/* XPM */
static char *_e7f1bf7f5e340f0e80657c037e76d6aJFu1REz1NTW0hBuA[] = {
/* columns rows colors chars-per-pixel */
"32 32 118 2 ",
"   c #430C0C",
".  c #4D0909",
"X  c #590708",
"o  c #550C0C",
"O  c #5C0C0C",
"+  c #461010",
"@  c #630707",
"#  c #6C0505",
"$  c #630B0A",
"%  c #720404",
"&  c #790402",
"*  c #760805",
"=  c #72140D",
"-  c #74180E",
";  c #641B1B",
":  c #6E1818",
">  c #771D10",
",  c #7B2612",
"<  c #7D2813",
"1  c #713D3D",
"2  c #764E4E",
"3  c #840301",
"4  c #8A0302",
"5  c #870D04",
"6  c #8C0B03",
"7  c #930604",
"8  c #9F0B00",
"9  c #9A1607",
"0  c #9C1807",
"q  c #9E1A0C",
"w  c #961513",
"e  c #A50D01",
"r  c #A80903",
"t  c #AC1503",
"y  c #AF1904",
"u  c #A11D0C",
"i  c #B11D06",
"p  c #B41E0C",
"a  c #85391B",
"s  c #AF230D",
"d  c #A8290F",
"f  c #B32207",
"g  c #B5220C",
"h  c #BA250C",
"j  c #B6290C",
"k  c #BB290D",
"l  c #A22310",
"z  c #A82A10",
"x  c #B92A10",
"c  c #AB3010",
"v  c #BF3211",
"b  c #B03915",
"n  c #803A3A",
"m  c #903334",
"M  c #B13A32",
"N  c #C12F0F",
"B  c #C3350F",
"V  c #C02F10",
"C  c #C03110",
"Z  c #C63C16",
"A  c #C73F18",
"S  c #C83F18",
"D  c #B44115",
"F  c #BA4C1B",
"G  c #BD551E",
"H  c #8B4821",
"J  c #C64012",
"K  c #CA4416",
"L  c #C64A17",
"P  c #CF4D17",
"I  c #C64219",
"U  c #C94218",
"Y  c #CE4C18",
"T  c #D24F17",
"R  c #D04F18",
"E  c #CE501A",
"W  c #D15219",
"Q  c #D75D1E",
"!  c #D85E1C",
"~  c #CF5A20",
"^  c #D25620",
"/  c #D45B20",
"(  c #D85F21",
")  c #D76020",
"_  c #D96321",
"`  c #D76E27",
"'  c #DD6A26",
"]  c #DA692F",
"[  c #CC752D",
"{  c #CE7A2F",
"}  c #DE7027",
"|  c #DF7429",
" . c #DD7C2E",
".. c #CE7C30",
"X. c #E06F26",
"o. c #E2792C",
"O. c #A14242",
"+. c #BF4E42",
"@. c #D76E47",
"#. c #DB7647",
"$. c #D67154",
"%. c #DC7D54",
"&. c #E5812F",
"*. c #E8812D",
"=. c #E68431",
"-. c #E98731",
";. c #E98831",
":. c #B49B9B",
">. c #BE9898",
",. c #C99A98",
"<. c #EBB5A0",
"1. c #D6CDCD",
"2. c #D8CCCC",
"3. c #E5C8C8",
"4. c #EFCCC8",
"5. c #F3D6CE",
"6. c #F5DACE",
"7. c white",
/* pixels */
"7.6.%.P P P T P P P R E R P P P U Z Z Z Z Z Z S S Z x i e +.4.7.",
"5.<.#.Q ! ! ! ! ) _ ! _ ) _ ) ) Q ^ ^ ^ ^ ^ ^ E E U Z h t M ,.1.",
"$.#.] ' &.;.;.;.;.-.-.-.;.;.;.;.=.=.=.=.=.=.o.| ] _ R Z t w n 2 ",
"C K '  .{ ..=.;.;.;.;.;.;.;.=.=.=.=.=.=.=.=.o.} _ ^ F z e 3 X   ",
"k I o...H a G _ _ ! _ _ ) ( / ^ ^ ^ ^ ^ ^ W Y U U b < = 7 4 O   ",
"g I o.[ a , D T R P W P Y Y U Z Z S Z Z Z Z C V V z > = 7 4 O + ",
"g A _ ` G D L T R R R Y K U U I S S S Z C C C V V x z u r 4 O + ",
"s v Q _ Q T T W R R R Y U S Z U U S Z Z C C C V C C C h r 4 O + ",
"t j Y _ Q T W T E W K K U Z U S A Z Z C C V C V C C C h r 4 $ + ",
"e g Y ( W W R R P K K U S U U S Z Z v V C C V C C V V h r 4 O + ",
"e f Y Q W W W Y Y U U U U S Z Z Z V C V V C C V V C x p r 4 O + ",
"e f Y Q W R Y Y U S S I S U Z Z C x V v C V V C V x x g r 4 O + ",
"e f Y ) W R K K I S U S U Z Z v C C C V V V V V x x x p r 4 O + ",
"e f K Q W K U S S S S S Z Z C C C C V C V V v x x x x p r 4 O + ",
"t f J W Y K I S U S U Z C C C C C V C V C V x x x x x p r 4 O + ",
"e f J P K I U U S S Z Z C C C C V C V C C x x s x x x s r 4 o + ",
"e f J P K S S S S Z Z C C V C V C V C x x x x x x x x p r 4 O + ",
"e i J W K U S S Z Z B C C C V C V C C x x s x x x s x p r 4 O + ",
"e f J Y K U S S C C C x V C V V V C x x x x x x x x x p w 4 O + ",
"e i Z Y U U S Z C C C N C V C C V V x x x s x x x x x p r 4 O + ",
"e i C K S Z C C C C C C C C C C x x x x x x s x x x x p r 4 O + ",
"t i C U Z Z C C C C B C C C V x x x s x x x x x x x x p r 4 O + ",
"e i C I Z N C N C x x C C x x x x x x x s x x x x x x p r 4 O + ",
"t y C Z Z N C C C B C C C x x x g x x x x x p x s x x p r 4 O + ",
"e y k C C C C C B N C k x x x x x x x x x x x g x x x p r 4 O + ",
"e t g j d d j k k h k k k g g g g s p g g g g g p s l q r 4 O + ",
"t t t 9 - - 0 i i y y t t t y t y t y t t y t t p w - = 7 4 O + ",
"8 8 8 5 $ $ 6 e 8 8 8 e 8 8 8 8 8 8 8 8 8 8 8 e 7 7 $ $ 3 3 o + ",
"3 3 & & % & 3 4 4 4 4 4 4 4 4 4 4 4 4 4 4 4 4 4 4 3 & % * # o   ",
"O.m : @ # % % % % % & % % % % % % % % % % % % % % % % # @ ; 1 2 ",
"3.>.1 o o o o o o o o o o o o O o o o o O o o o o o o o . 1 :.1.",
"7.1.2     + +   + + + + +   + + + + + + + + + + + + +     2 1.7."
};
