/* XPM */
static char *result[] = {
/* columns rows colors chars-per-pixel */
"32 32 191 2 ",
"   c #047D00",
".  c #0B7900",
"X  c #117F00",
"o  c #2F6E00",
"O  c #277C04",
"+  c #6F5E09",
"@  c #795907",
"#  c #576B00",
"$  c #4B7A04",
"%  c #676100",
"&  c #696001",
"*  c #6F730C",
"=  c #944D06",
"-  c #964E0C",
";  c #9A4D0E",
":  c #845C0B",
">  c #97500F",
",  c #9B4F11",
"<  c #9B5112",
"1  c #A44E14",
"2  c #A45215",
"3  c #A95719",
"4  c #AB541A",
"5  c #B55C12",
"6  c #B15D1D",
"7  c #876A0B",
"8  c #9C7814",
"9  c #B3630F",
"0  c #BB6413",
"q  c #B96615",
"w  c #B6651E",
"e  c #BB6C1B",
"r  c #AE7715",
"t  c #A37B17",
"y  c #BB761D",
"u  c #AF6021",
"i  c #BD7320",
"p  c #D86E19",
"a  c #C0751D",
"s  c #C7791C",
"d  c #D6771B",
"f  c #D97A1D",
"g  c #C37B20",
"h  c #C97C20",
"j  c #B37B4C",
"k  c #BB7F53",
"l  c #018300",
"z  c #0D8500",
"x  c #018D00",
"c  c #1D8502",
"v  c #009500",
"b  c #009B00",
"n  c #0D910D",
"m  c #218500",
"M  c #2C8404",
"N  c #258902",
"B  c #328A06",
"V  c #249704",
"C  c #00A300",
"Z  c #00AC00",
"A  c #0AAD01",
"S  c #00B300",
"D  c #00BB00",
"F  c #12B300",
"G  c #2FBC00",
"H  c #2C9B2B",
"J  c #30912D",
"K  c #2EA72E",
"L  c #58840D",
"P  c #77840E",
"I  c #46BC04",
"U  c #5CBE00",
"Y  c #00C300",
"T  c #00CB00",
"R  c #11C500",
"E  c #00D300",
"W  c #00DB00",
"Q  c #17D600",
"!  c #23D900",
"~  c #39DE00",
"^  c #00E300",
"/  c #0CE700",
"(  c #00EB00",
")  c #0CEE00",
"_  c #1AE300",
"`  c #11EB00",
"'  c #01F300",
"]  c #0BF200",
"[  c #04F800",
"{  c #13F401",
"}  c #1CF703",
"|  c #16F800",
" . c #21E200",
".. c #23F500",
"X. c #2AF500",
"o. c #29F805",
"O. c #37F707",
"+. c #3EF703",
"@. c #3DF802",
"#. c #3DC12D",
"$. c #52C400",
"%. c #5AD800",
"&. c #65C703",
"*. c #6CC400",
"=. c #74CD00",
"-. c #7BCC00",
";. c #69D700",
":. c #6CDB00",
">. c #79D500",
",. c #7BD400",
"<. c #74DE00",
"1. c #55E200",
"2. c #4AF604",
"3. c #4DF901",
"4. c #54F700",
"5. c #55F803",
"6. c #5EF811",
"7. c #67E000",
"8. c #6FE300",
"9. c #73E300",
"0. c #7FE500",
"q. c #71EB00",
"w. c #6AF400",
"e. c #6EF806",
"r. c #64F80B",
"t. c #79F602",
"y. c #74F905",
"u. c #7AF80B",
"i. c #75F81E",
"p. c #48C42C",
"a. c #7CCD2E",
"s. c #5E9242",
"d. c #40B240",
"f. c #71BD71",
"g. c #3DC340",
"h. c #6FD373",
"j. c #A3801A",
"k. c #D7811E",
"l. c #CB8524",
"z. c #D38422",
"x. c #DE8D24",
"c. c #D18C29",
"v. c #DE9125",
"b. c #D6942D",
"n. c #DD9228",
"m. c #DC9D33",
"M. c #E29D2E",
"N. c #E39C33",
"B. c #E1A034",
"V. c #E6A53B",
"C. c #E9A73B",
"Z. c #80CF00",
"A. c #82D400",
"S. c #81E500",
"D. c #88E300",
"F. c #84EA00",
"G. c #8AEB02",
"H. c #93ED00",
"J. c #87F606",
"K. c #8BF604",
"L. c #94F104",
"P. c #98F307",
"I. c #8DF416",
"U. c #89F819",
"Y. c #92F614",
"T. c #91F618",
"R. c #91F81F",
"E. c #86F828",
"W. c #95F82A",
"Q. c #9CF832",
"!. c #A7F83D",
"~. c #BE8157",
"^. c #E9AA41",
"/. c #88CF40",
"(. c #ACF848",
"). c #B0F84D",
"_. c #B4F854",
"`. c #B6F859",
"'. c #BCF861",
"]. c #92CC92",
"[. c #96DE92",
"{. c #AAE292",
"}. c #D0DEC7",
"|. c #E5D6C6",
" X c #EAD7C9",
".X c #C8ECC8",
"XX c #DFF2C8",
"oX c #D7ECD7",
"OX c #D5F2D7",
"+X c #F6FCF6",
"@X c white",
/* pixels */
"7.7.7.7.7.7.7.7.7.7.7.7.7.:.7.:.>.A.-.A.Z.A.Z.-.*.U U /.XX@X@X@X",
"9.9.9.9.9.8.8.8.8.8.8.8.8.8.8.9.,.A.A.A.,.,.>.=.&.&.&.a.{.OX+X@X",
"G.H.G.G.F.0.S.0.0.F.S.S.0.0.0.S.D.D.D.<.<.:.:.:.;.;.=.&.p.h.OX@X",
"L.L.L.P.G.G.G.G.G.G.G.G.G.G.J.0.F.G.G.G.9.8.8.8.8.9.A.&.G #.[..X",
"J.K.Y.T.W.U.I.I.U.U.I.I.K.F.t.t.t.K.L.G.F.0.S.0.S.D.A.*.I I #.g.",
"w.u.R.W.Q.Q.Q.Q.Q.Q.W.R.J.y.4.5.y.K.P.P.H.G.G.G.G.D.A.Z.*.I F S ",
"3.r.E.(._.`.`.`.`._.(.W.r.2...X.w.K.Y.Y.H.H.G.D.D.D.A.Z.=.I F Z ",
"O.2.E.!._.'.'.'.'.`.!.E.2...) { 4.y.U.Y.Y.H.H.G.G.S.;.%.$.G F S ",
"X.@.e.W.!.).).(.).!.R.e.2.{ ' { X.3.u.J.Y.Y.L.H.G.9.~ Q Q R D A ",
"| o.5.y.W.!.(.!.!.W.u.5.o.{ ( ' ] X.4.y.I.Y.P.L.G.7._ ^ E Y S Z ",
"[ | @.r.U.Q.(.(.Q.U.r.@.{ ' ( ^ ( ` X.2.y.K.P.H.0.1._ W E Y Z C ",
"[ [ ..@.6.i.E.E.i.6.+...] ( ^ ^ W W ) X.4.w.q.8.1.~ Q E T S Z b ",
"( ( ) { } o.O.O.o.} { ) ( W W E E E / / _  .! ! Q Q T T D Z C v ",
"^ ( ( ' ' [ ] { [ ' ' ( W W E T E E W W ^ W W T T T T D S C b b ",
"^ ^ ( ' ' [ ' ' ' ' ( ^ W E T T T T T W W W E T T T Y D Z C b v ",
"W W ^ ( ' [ ' ' ' ( ( W E T Y Y Y Y T T E W E T Y Y D S C b b b ",
"E W ^ ( ( ' ' ' ( ( ^ ^ E Y D S S D D T T T T Y D S Z C b b v b ",
"T E W ^ ( ' ( ( ( ^ W E T D S Z Z S D D Y Y D S Z C b v b v v v ",
"Y T E W ^ ( ( ^ ^ W E Y D Z C b C Z Z S S S Z Z C b v x x v v v ",
"D D Y E ^ ^ ( ^ ^ E T D S C b v v b Z Z Z C b v v x l l l n K d.",
"C S Y T T W ^ ^ W E D S C b x x x v b C b b v x l         H ]..X",
"B V A D Y T T T Y D Z b V M M O O O m m m c z z X . . X H f.oX@X",
"t P V C Z Z S Z C C b c # 7 7 : + + & % % # M N M c . J ].oX+X@X",
"p r L V n b b b v v N $ 7 9 0 5 4 ; - = = : % L $ $ o s.}.@X@X@X",
"p p r * N v x x x c P t i e a 5 4 1 1 1 1 , : @ : @ @ j }.@X@X@X",
"s d f r L M M M N L 8 g g i q 9 5 4 4 4 4 4 2 > , , , j |.+X@X@X",
"f k.k.s r 8 t t j.j.y l.l.i y e 5 5 u u 4 1 < > > , 1 k  X@X@X@X",
"v.n.v.x.f f d d z.k.l.l.l.l.l.y e q e w 6 2 < > > , 2 ~. X@X@X@X",
"C.C.V.N.x.x.x.x.v.n.b.c.b.c.l.g a y a i w u < > , , 2 k  X@X@X@X",
"^.^.^.V.N.M.M.M.M.m.m.m.m.b.c.l.s g g g i u 3 < < , < k  X@X@X@X",
"^.^.^.V.V.V.C.C.V.V.m.m.m.m.b.c.l.g i g i i u < , > - j |.@X@X@X",
"^.^.^.^.^.^.^.^.^.V.V.m.B.B.m.b.l.h g i i i u 3 < - = j |.@X@X@X"
};
