/* XPM */
static char *result[] = {
/* columns rows colors chars-per-pixel */
"32 32 163 2 ",
"   c #567A09",
".  c #677709",
"X  c #697B09",
"o  c #8F6B0C",
"O  c #85790D",
"+  c #91790D",
"@  c #A16E11",
"#  c #BF6B14",
"$  c #AC7815",
"%  c #C76113",
"&  c #CD6B16",
"*  c #C47B16",
"=  c #C77B1A",
"-  c #D2741A",
";  c #D57F1D",
":  c #DC7C1D",
">  c #048F00",
",  c #0B8B00",
"<  c #178501",
"1  c #1B8700",
"2  c #178B00",
"3  c #1D8902",
"4  c #009400",
"5  c #099000",
"6  c #009B00",
"7  c #0C9C00",
"8  c #1B9702",
"9  c #268503",
"0  c #2C8A01",
"q  c #3B8505",
"w  c #259405",
"e  c #209903",
"r  c #319108",
"t  c #01A200",
"y  c #00AB00",
"u  c #09AD01",
"i  c #00B400",
"p  c #00BB00",
"a  c #4F8306",
"s  c #538505",
"d  c #558A03",
"f  c #588800",
"g  c #668607",
"h  c #6C8505",
"j  c #648807",
"k  c #00C300",
"l  c #00CB00",
"z  c #00D300",
"x  c #00DB00",
"c  c #00E400",
"v  c #00EC00",
"b  c #00F400",
"n  c #02F800",
"m  c #0EF800",
"M  c #12F500",
"N  c #1EF400",
"B  c #14F800",
"V  c #1CF801",
"C  c #24F801",
"Z  c #2EF800",
"A  c #26F80B",
"S  c #2AF80F",
"D  c #3AF600",
"F  c #34F803",
"G  c #3AF800",
"H  c #3BF80F",
"J  c #28F810",
"K  c #66DF00",
"L  c #47F800",
"P  c #4CF800",
"I  c #42F80F",
"U  c #55F800",
"Y  c #59F802",
"T  c #50F809",
"R  c #67E000",
"E  c #6FE200",
"W  c #67EC00",
"Q  c #72E300",
"!  c #7CE500",
"~  c #70EC00",
"^  c #6CF400",
"/  c #67F803",
"(  c #6CF804",
")  c #63F80B",
"_  c #73F804",
"`  c #7BF80B",
"'  c #6CF811",
"]  c #77F824",
"[  c #7FF831",
"{  c #8B850D",
"}  c #8E880E",
"|  c #918707",
" . c #918807",
".. c #818512",
"X. c #968712",
"o. c #9A8519",
"O. c #A4860D",
"+. c #AE8718",
"@. c #B38317",
"#. c #B58718",
"$. c #BC851C",
"%. c #C18717",
"&. c #C28718",
"*. c #C98719",
"=. c #C38A1A",
"-. c #CC8C1D",
";. c #D6831D",
":. c #DC861F",
">. c #D68A1E",
",. c #E08C1F",
"<. c #D58322",
"1. c #D48F22",
"2. c #DC8C21",
"3. c #DF9326",
"4. c #DF9029",
"5. c #E28D24",
"6. c #E08F28",
"7. c #E29324",
"8. c #E1932A",
"9. c #E59B2C",
"0. c #E79E33",
"q. c #E6A335",
"w. c #EAA435",
"e. c #E6A139",
"r. c #EBA63A",
"t. c #EDAB3D",
"y. c #81E600",
"u. c #80EC00",
"i. c #8BEC05",
"p. c #8BEC08",
"a. c #8DF506",
"s. c #81F80B",
"d. c #94F305",
"f. c #98F300",
"g. c #8EF416",
"h. c #83F813",
"j. c #8DF814",
"k. c #8EF418",
"l. c #8FF81D",
"z. c #92F617",
"x. c #92F81E",
"c. c #95F825",
"v. c #96F829",
"b. c #9BF82C",
"n. c #84F830",
"m. c #9CF832",
"M. c #A1F835",
"N. c #A5F83C",
"B. c #A8F83D",
"V. c #EDAC42",
"C. c #EFB444",
"Z. c #F1B141",
"A. c #F0B049",
"S. c #F0BC4C",
"D. c #ABF844",
"F. c #AFF849",
"G. c #B1F84B",
"H. c #B4F855",
"J. c #B6F858",
"K. c #BCF85E",
"L. c #BDF861",
"P. c #F0C050",
"I. c #C1F86A",
/* pixels */
"R R K K R K R R K R R R R R R R R R R R K K K R K K K Q y.y.Q K ",
"Q Q E Q Q E E E E Q E E E E E E E E E E Q Q Q Q Q Q Q Q y.y.! Q ",
"y.y.y.y.! y.y.y.y.! ! ! y.! y.y.y.y.y.! y.y.i.i.i.i.y.y.i.i.i.i.",
"W ~ u.i.i.p.p.p.p.p.p.p.p.p.p.p.p.p.p.i.p.i.d.d.f.d.d.p.p.i.i.f.",
"N D ^ a.g.k.k.g.k.k.k.k.k.g.g.g.g.g.k.g.g.k.x.z.z.k.k.k.g.z.a.d.",
"n B L ( h.x.c.v.v.v.v.v.m.m.m.m.m.m.m.m.m.m.m.m.m.m.b.c.z.h.( / ",
"n n M F / j.b.N.m.N.m.D.G.J.J.J.H.J.H.J.H.J.J.J.J.H.D.b.j.( D V ",
"n n n V Y s.c.M.D.D.F.J.L.L.I.I.I.I.I.I.I.L.L.L.L.H.D.v.` P B n ",
"v v b V U _ ` l.M.F.J.L.L.I.I.I.I.I.I.I.I.I.H.G.F.D.m.] T C m n ",
"c v b B G Y ( s.c.N.J.K.L.K.L.L.K.K.K.K.K.J.D.B.M.b.l.' F B n n ",
"c c b n m Z Y _ s.x.B.G.G.G.G.G.G.G.F.G.G.F.D.M.l.s.` Y C n b b ",
"x c v n n B D U Y ) ] n.n.n.n.n.n.n.n.n.n.n.[ ] ) Y U G M b v v ",
"z x c b n n M V V C A J J S H I I I I H S J J J N V V M v c c c ",
"l l x v v n n b n n n n n n M B N B B M n n n b n n n b v c c x ",
"k l x c v v b b b b n n n n n n n n m n n n b b b b b v c x z z ",
"p k z c c c v b v b b b n b b n b n n n n b b v v v v v c x z l ",
"i p l x c c v v v b v b b n b v b b b v b b v v v v c c x z l l ",
"y i k l z x x c v v v v v v v v v v v v v v v v c x x z l l k k ",
"6 y p l l z z x c c v v v c v v v v v v v v c c x z z l k k p i ",
"0 w u p k k l z x x c c v c v c c v c c v c x z z l k k p i y y ",
"o X e y i p k k l z x c c c c c c c c c c x x z l k p i y y 6 t ",
"% @ s 8 t y y i p k z z z x x z x z x x z z l p i i y t 7 8 w r ",
"& # @ . 1 4 4 4 t y i k l l l l l l l k k p y t 6 4 4 5 0 d ..o.",
"- - & @   9 1 , > 4 t y y y i i i y i y y 6 4 5 , < 9 q j } $.<.",
"; ; ; = $ O s 0 < , 4 4 4 4 4 4 4 4 4 4 4 4 , 2 0 s h +.$.-.2.2.",
"2.2.2.:.: * { g a q 9 1 1 1 1 1 1 1 1 1 3 9 q a g { #.2.6.8.7.2.",
"2.2.2.7.5.;.&.@.$ + h f f f f f f f f f d h X.+.#.=.1.4.9.9.7.,.",
"7.7.7.7.7.7.2.2.: * O.| |  .| |  . . . . .O.>.5.6.8.0.0.w.w.9.7.",
"9.9.9.9.9.4.0.9.2.;.*.&.&.&.&.&.&.%.&.%.%.-.3.9.q.r.t.t.C.C.t.w.",
"w.w.w.w.q.q.w.q.9.8.8.6.4.4.4.4.8.8.8.8.8.9.q.w.t.Z.t.C.P.P.S.C.",
"Z.Z.V.V.V.V.V.V.V.V.V.V.e.e.0.e.r.r.r.r.r.r.t.t.t.C.S.S.P.P.P.S.",
"A.A.A.A.A.A.A.A.A.A.V.V.V.V.V.t.Z.Z.Z.t.Z.Z.Z.Z.Z.Z.S.P.P.P.P.P."
};
