/* XPM */
static char *aGVyYmVE[] = {
/* columns rows colors chars-per-pixel */
"32 32 192 2 ",
"   c #047D00",
".  c #0B7900",
"X  c #2F6E00",
"o  c #277C04",
"O  c #6F5E09",
"+  c #795907",
"@  c #576B00",
"#  c #4B7A04",
"$  c #577A06",
"%  c #686001",
"&  c #6F730C",
"*  c #934D06",
"=  c #964E0C",
"-  c #9A4D0E",
";  c #845C0B",
":  c #97500F",
">  c #9B4F11",
",  c #9B5112",
"<  c #A44E14",
"1  c #A45215",
"2  c #AB531A",
"3  c #A95719",
"4  c #B55C12",
"5  c #B15D1C",
"6  c #876A0B",
"7  c #9C7814",
"8  c #B3630F",
"9  c #BB6413",
"0  c #B5651D",
"q  c #BB6C1B",
"w  c #AE7714",
"e  c #A37B17",
"r  c #BB761D",
"t  c #AF6021",
"y  c #BD7320",
"u  c #D86E18",
"i  c #C0751D",
"p  c #C7791C",
"a  c #D6771B",
"s  c #D97A1D",
"d  c #C37B20",
"f  c #C97C20",
"g  c #B37B4C",
"h  c #BB7F53",
"j  c #018300",
"k  c #0D8500",
"l  c #018D00",
"z  c #168605",
"x  c #1D8502",
"c  c #009500",
"v  c #009B00",
"b  c #0D910D",
"n  c #218500",
"m  c #2C8304",
"M  c #258902",
"N  c #328A06",
"B  c #249704",
"V  c #00A300",
"C  c #00AC00",
"Z  c #0AAD01",
"A  c #00B300",
"S  c #00BB00",
"D  c #12B300",
"F  c #2FBC00",
"G  c #2C9B2B",
"H  c #30912D",
"J  c #2EA72E",
"K  c #58830D",
"L  c #77840E",
"P  c #46BC04",
"I  c #5CBE00",
"U  c #00C300",
"Y  c #00CB00",
"T  c #11C500",
"R  c #00D300",
"E  c #00DB00",
"W  c #17D600",
"Q  c #23D900",
"!  c #39DE00",
"~  c #00E300",
"^  c #0CE700",
"/  c #00EB00",
"(  c #0CEE00",
")  c #1AE300",
"_  c #11EB00",
"`  c #01F300",
"'  c #0BF200",
"]  c #04F800",
"[  c #13F401",
"{  c #1CF703",
"}  c #16F800",
"|  c #21E200",
" . c #23F500",
".. c #2AF500",
"X. c #29F805",
"o. c #37F707",
"O. c #3EF703",
"+. c #3DF802",
"@. c #3DC12D",
"#. c #52C400",
"$. c #5AD800",
"%. c #65C703",
"&. c #6CC400",
"*. c #74CD00",
"=. c #7BCC00",
"-. c #69D700",
";. c #6CDB00",
":. c #7BD400",
">. c #74DE00",
",. c #55E200",
"<. c #4AF604",
"1. c #4DF901",
"2. c #54F700",
"3. c #55F803",
"4. c #5EF811",
"5. c #67E000",
"6. c #6FE300",
"7. c #73E300",
"8. c #7FE500",
"9. c #71EB00",
"0. c #6AF300",
"q. c #6EF806",
"w. c #64F80B",
"e. c #79F602",
"r. c #74F905",
"t. c #7AF80B",
"y. c #75F81E",
"u. c #48C42C",
"i. c #7CCD2E",
"p. c #5E9242",
"a. c #40B240",
"s. c #71BD71",
"d. c #3DC340",
"f. c #6FD373",
"g. c #A3801A",
"h. c #D7811E",
"j. c #CB8523",
"k. c #DE8D24",
"l. c #D18C29",
"z. c #DE9125",
"x. c #D6942D",
"c. c #DD9228",
"v. c #DC9D33",
"b. c #E09229",
"n. c #E29D2E",
"m. c #E39C33",
"M. c #E1A034",
"N. c #E6A53B",
"B. c #E9A73B",
"V. c #80CF00",
"C. c #82D400",
"Z. c #81E500",
"A. c #88E300",
"S. c #84EA00",
"D. c #8AEB02",
"F. c #93ED00",
"G. c #87F606",
"H. c #8BF604",
"J. c #94F104",
"K. c #98F307",
"L. c #8DF416",
"P. c #89F819",
"I. c #92F614",
"U. c #91F618",
"Y. c #91F81F",
"T. c #86F828",
"R. c #95F82A",
"E. c #9CF82E",
"W. c #9CF832",
"Q. c #A7F83D",
"!. c #A9F83E",
"~. c #978247",
"^. c #BE8157",
"/. c #E9AA41",
"(. c #88CF40",
"). c #ACF848",
"_. c #B0F84D",
"`. c #B4F854",
"'. c #B6F859",
"]. c #BCF861",
"[. c #92CC92",
"{. c #96DE92",
"}. c #AAE292",
"|. c #D0DEC7",
" X c #E5D6C6",
".X c #EAD7C9",
"XX c #C8ECC8",
"oX c #DFF2C8",
"OX c #D7ECD7",
"+X c #D5F2D7",
"@X c #F6FCF6",
"#X c white",
/* pixels */
"#X#X#XoX(.I I &.=.C.:.V.V.V.C.:.;.;.5.5.5.5.5.5.5.5.;.5.5.5.5.5.",
"#X@X+X}.i.#.%.&.*.:.:.:.C.C.C.>.>.7.6.6.6.6.6.6.6.6.6.6.7.7.7.7.",
"#X+Xf.u.%.*.-.-.;.;.;.>.C.A.A.A.Z.S.8.8.8.8.Z.Z.Z.8.8.Z.D.D.J.D.",
"XX{.@.F %.:.7.6.6.6.6.7.S.D.S.S.S.S.S.D.D.D.D.D.L.D.D.D.J.K.J.J.",
"d.@.P I *.C.Z.S.8.8.8.S.F.H.G.G.r.e.G.G.L.L.L.L.L.L.L.L.U.L.H.H.",
"C D P &.=.C.A.D.A.D.D.F.F.J.G.r.2.2.q.G.R.R.E.Q.W.W.W.E.E.P.r.q.",
"C D P &.=.C.A.D.D.D.F.J.I.I.H.q.o. .O.w.T.!.`.'.'.'.'.`.).T.w.1.",
"A D F #.$.-.8.D.D.D.J.K.I.L.r.2.[ (  .3.T.Q.`.'.].].].'.!.T.<.+.",
"A Z T W W ! 7.D.J.J.I.I.I.r.1...' ' } <.q.Y.Q._._._._.Q.R.q.+.X.",
"C A Y R E ) 5.D.F.K.I.P.r.2...' / ` ' ..2.t.R.Q.Q.).Q.R.r.2.X.} ",
"V C U Y E ) ,.S.F.J.H.r.1..._ ~ / / ` [ +.w.T.Q.Q.Q.E.P.w.+.} ] ",
"v V S Y E W ! $.6.9.0.2..._ ~ E ~ ~ / '  .+.4.y.T.T.y.4.O. .] ] ",
"v V C S Y Y W W Q Q | ) ^ ~ E R R E E / ( [ { X.o.o.X.{ [ ( / / ",
"c v V A U Y Y R R R E E E E R Y Y R R ~ / ` ` ` { ' ] ] ` / / ~ ",
"v v V C S U Y Y Y R E ~ E R Y Y Y Y R E ~ / ` ` ` ` ] ` / / ~ ~ ",
"c v v V A S S U Y R E R Y Y U U U U Y R E / / / ` ` ] ` / ~ ~ E ",
"v v v v V C A S U U Y Y U U S A A S U R E / / / ` ` ` ` / ~ E R ",
"c c c c v v C C A S U U S S C C C C S Y R E ~ ~ / / ` / ~ E R Y ",
"c c l l l c v v V C A A A A C V v V A S Y R ~ ~ / / / ~ E R Y U ",
"a.J b j j j l c c V V C C C v c c v V A S Y R E ~ ~ ~ E R Y S A ",
"XX[.G j         l c v V V v c l l c v V A S Y E ~ ~ E R Y S C C ",
"#XOXs.G . . . z k k x n n n o o o o m B V C S Y Y Y U U S Z B N ",
"#X@XOX[.H . n M M N @ % % % O ; 6 6 6 @ x c V V A C C C C B L e ",
"#X#X#X|.p.X # $ # % ; * * * - < 4 9 8 6 # M c c v v v b B K w u ",
"#X#X#X X~.+ + ; ; ; , < > < < 2 4 9 q r 7 L x c l l l M & w p u ",
"#X#X#X Xg - - > > > 2 2 2 2 2 2 9 q r d d 7 K m m m N $ w s a a ",
"#X#X#X.Xh , > - , > < 3 5 0 4 4 q i d d f y g.7 7 7 7 w p h.s h.",
"#X#X#X.X^.1 : - : , 1 t 0 q 0 i r p j.j.l.l.j.h.s s u s k.c.c.c.",
"#X#X#X.X^.1 > : : , t q y y y y p j.l.x.x.x.k.z.k.k.k.b.m.N.B.B.",
"#X#X#X Xh 1 : : , , t y d y y j.j.l.x.v.v.v.v.n.n.n.n.M.B././.B.",
"#X#X#X Xg : : , 3 t q r y j.d j.l.x.v.v.v.M.N.N.B.N.B.B.B./././.",
"#X#X#X Xg = : , , t y j.y y f j.x.v.M.v.M.M.N./././././././././."
};
