/* XPM */
static char *e3cd062cc689401bdcd98e439457afeaYykNVsLar1DGFAc0[] = {
/* columns rows colors chars-per-pixel */
"32 32 42 1 ",
"  c #2F2F3F",
". c #373745",
"X c #383847",
"o c #3C3C4A",
"O c #42424D",
"+ c #474751",
"@ c #4B4B54",
"# c #4E4E58",
"$ c #54545D",
"% c #575764",
"& c #595961",
"* c #606066",
"= c #64646A",
"- c #666671",
"; c #6C6C74",
": c #6F6F78",
"> c #707076",
", c #74747B",
"< c #79797E",
"1 c #7D7D82",
"2 c #828285",
"3 c #868689",
"4 c #8D8D8D",
"5 c #8E8E90",
"6 c #949494",
"7 c #989897",
"8 c #9C9C9C",
"9 c #9F9FA1",
"0 c #A3A3A3",
"q c #ACACAC",
"w c #AEAEB0",
"e c #B3B3B3",
"r c #B5B5B9",
"t c #BABABA",
"y c #C3C3C3",
"u c #CDCDCD",
"i c #D4D4D4",
"p c #DCDCDC",
"a c #E3E3E3",
"s c #EBEBEB",
"d c #F3F3F3",
"f c gray99",
/* pixels */
"fsq4554454644444464444444641&1pf",
"ai04688888880888888888888882*>ep",
"q0768qttttttttttttttttttttq6=$>1",
"4660eyyuuuuuuuuiuuiuiuyuuuy8>$++",
"560euiuuippppppppppppiuuiiuw1*O ",
"360tipiippaaasaaaaaaapiiaauw2$O ",
"<30tuiasaaaasdddddddappaday9>#. ",
";<7wtiassaasdfddddddsasaspt6=O. ",
"><48qtupsdddfdssaaasdddaut03=+  ",
"><38qetisfddddapappasddat85<$@O ",
";,37qweysfsaaaaaapiiassiq42;$+  ",
"><379qqyadaapappppiippiy82,-$@o ",
":<3678qysdspappaaassapyq3,,=*+  ",
";<3688qyadapaaapaadsaiy02>>;$@O ",
":<38etetiaaapapaaaaaapuw2;>-$+  ",
":<38rtetippaapppppaaapur3>>>$+O ",
"><28qteeyipaapiippapapue3:>-&+X.",
">,47qqetyiipppiipapapiuq2:,-&+. ",
">,470eqtiiiipassapapiut02::-$+. ",
"><280eeyiiuupadsaaapute81:>-&+. ",
";,37qetyuiuupaasaaaiyq84<;>-&+. ",
"><38qtyyttyyuuuuuuiye0861<,-&+. ",
"><38eyte00eeq000000088q062,-&+. ",
"><38tte86688431133333578731=&O..",
";<38ww075421<>==><<<<11353<=&+X ",
";<37007442,>>;==->;>;::<332>&+..",
"><3677641<>>>,11<>,>::;><13<*O. ",
"=>23332<>--;-><1;-------=>1,$O  ",
"$&>1<,=*&$&$&&&*&&&&&$&&&&&$O.  ",
"1,;==$#+++#++++++++++++++++o.o%=",
"pt,#Oo..X..XXXX..XXX....o.. .%wi",
"fp2O.                    .   -if"
};
