/* XPM */
static char *_3b93675687b4f7ea4b2160ce69d792cipozKC8wAQilhilR[] = {
/* columns rows colors chars-per-pixel */
"32 32 157 2 ",
"   c #9D3A0E",
".  c #9F3611",
"X  c #A62414",
"o  c #A42D13",
"O  c #AD2D17",
"+  c #A72718",
"@  c #A82718",
"#  c #A72C18",
"$  c #AB2A18",
"%  c #AD3417",
"&  c #A53917",
"*  c #AC3D17",
"=  c #B83C16",
"-  c #BA3318",
";  c #CD371E",
":  c #C53A19",
">  c #CC3D1D",
",  c #D03F1E",
"<  c #DE3B1F",
"1  c #D03720",
"2  c #D33920",
"3  c #DD3D20",
"4  c #99440D",
"5  c #954C0B",
"6  c #994E0E",
"7  c #99510F",
"8  c #9C4D12",
"9  c #9F5515",
"0  c #A84C17",
"q  c #A64919",
"w  c #B54913",
"e  c #A35517",
"r  c #AF5B17",
"t  c #A6541C",
"y  c #AB541C",
"u  c #AC5B1D",
"i  c #B55714",
"p  c #BE5613",
"a  c #B66113",
"s  c #BD6517",
"d  c #B2621D",
"f  c #B8671A",
"g  c #BA6A1E",
"h  c #BD711D",
"j  c #AC5C20",
"k  c #B46420",
"l  c #BA6C20",
"z  c #BE7420",
"x  c #C04F15",
"c  c #C34018",
"v  c #C34D18",
"b  c #CB4F1B",
"n  c #D2431F",
"m  c #D04F1B",
"M  c #DC481F",
"N  c #D25C1E",
"B  c #CC621C",
"V  c #D8611C",
"C  c #C1711D",
"Z  c #D04723",
"A  c #DD4722",
"S  c #CF5824",
"D  c #E44422",
"F  c #E34A23",
"G  c #EC4D27",
"H  c #F04E27",
"J  c #F04F28",
"K  c #E15C27",
"L  c #E95925",
"P  c #EE5429",
"I  c #EB5B2B",
"U  c #F05627",
"Y  c #F15529",
"T  c #F8552F",
"R  c #F15A2B",
"E  c #F85730",
"W  c #F55D30",
"Q  c #F85B30",
"!  c #DA6027",
"~  c #D56F25",
"^  c #D06C28",
"/  c #CB7624",
"(  c #C47C24",
")  c #CF792D",
"_  c #D17422",
"`  c #D57820",
"'  c #D37028",
"]  c #D47D2E",
"[  c #EC632D",
"{  c #ED682C",
"}  c #F2632D",
"|  c #F16B2E",
" . c #E07923",
".. c #EB722E",
"X. c #EA6C30",
"o. c #F66533",
"O. c #F36D33",
"+. c #F86A30",
"@. c #E77232",
"#. c #E87230",
"$. c #F37335",
"%. c #F47A36",
"&. c #BD5B50",
"*. c #BA634E",
"=. c #B4744B",
"-. c #B17B4A",
";. c #BA7F53",
":. c #C78123",
">. c #CB8527",
",. c #CC842C",
"<. c #D2852D",
"1. c #D2892E",
"2. c #DA902A",
"3. c #D18530",
"4. c #D18A30",
"5. c #D69430",
"6. c #DC9C34",
"7. c #E58F2D",
"8. c #E49F2F",
"9. c #E68333",
"0. c #EE8637",
"q. c #EE893A",
"w. c #F28937",
"e. c #F2803C",
"r. c #F18B3E",
"t. c #E49134",
"y. c #EC9432",
"u. c #E59C34",
"i. c #EE9D3E",
"p. c #F19C3C",
"a. c #DEA037",
"s. c #E0A02F",
"d. c #E1A134",
"f. c #EAA436",
"g. c #EAA937",
"h. c #E5A43C",
"j. c #ECA53C",
"k. c #ECAC3D",
"l. c #F2A23F",
"z. c #EFB03F",
"x. c #F0B03F",
"c. c #BD8056",
"v. c #F09C43",
"b. c #ECAC40",
"n. c #F0A143",
"m. c #F0AC42",
"M. c #F0A848",
"N. c #F0B242",
"B. c #F0B64B",
"V. c #F0BC4C",
"C. c #F0C050",
"Z. c #EACCC7",
"A. c #E6D5C5",
"S. c #E7D4C6",
"D. c #E9D6C8",
"F. c #EAD7C9",
"G. c white",
/* pixels */
"C.V.B.N.N.x.x.x.N.b.b.h.h.a.6.5.1.3.4.,.( z l k j j q ;.F.G.G.G.",
"C.V.V.B.N.x.z.N.b.k.h.h.h.6.6.5.1.4.3.,.( z l k j t j ;.F.G.G.G.",
"C.V.V.N.B.b.k.b.b.k.f.d.d.a.6.5.4.4.4.,.( z l k j j 9 ;.F.G.G.G.",
"C.C.V.B.x.b.b.h.h.d.a.s.a.6.6.5.4.,.4.,.( z l k j t t ;.D.G.G.G.",
"C.C.V.V.N.N.k.h.f.d.s.a.d.6.5.5.4.4.4.,.( z l k j t y ;.D.G.G.G.",
"C.V.V.N.N.k.b.h.d.s.s.s.d.6.6.5.4.4.4.,.( z l k j j t ;.D.G.G.G.",
"C.V.V.N.B.b.b.h.d.s.d.d.d.6.6.5.5.4.3.,.( z l k j t t ;.D.G.G.G.",
"C.V.B.B.x.b.b.h.d.s.a.d.6.h.6.5.4.4.,.,.( z l d u t e ;.D.G.G.G.",
"V.V.B.N.N.m.x.k.f.8.8.6.6.a.6.5.4.<.>.:.:.h g d e 8 6 -.F.G.G.G.",
"x.N.B.B.N.x.x.x.g.f.u.u.t.t.6.5.4.,./ C C g g d 9 5 5 -.S.G.G.G.",
"v.n.N.B.N.x.x.x.k.k.i.0.X.#.t.6.5.] S b s s g d 9 5 5 -.S.G.G.G.",
"e.r.N.N.N.x.x.k.k.l.q.$.W I 9.t.4.^ Z > p a f u 8 4 5 -.S.G.G.G.",
"o.%.l.N.x.z.g.f.p.r.O.I J P X.' ~ N n > p i r 0 & . 4 -.S.G.G.G.",
"T +.w.i.p.p.y.y.0.$.R H J P I K N b , > p i 0 * o o   =.S.G.G.G.",
"E R +.O.| | | { | [ Y J Y G G A n > , ; c = % # + X o *.Z.G.G.G.",
"E T Y R T T U U U Y J J J G D 3 2 1 1 ; : - O + + + X &.Z.G.G.G.",
"E E U U R U U U P Y G G Y G D n 2 2 1 ; : - $ @ @ @ X &.Z.G.G.G.",
"Q } R U U U U P R Y P I P J D < 2 2 n > : - O @ @ X X &.Z.G.G.G.",
"+.+.R R R U Y J Y P I [ [ I F < , n b b : - $ + @ X X &.Z.G.G.G.",
"%.+.} U U U Y U I [ @.@.[ I F < < n N B v = O @ # o o *.Z.G.G.G.",
"w.%.| P Y Y Y { 9.7.y.9.[ G D < < A ' / s w % o & 4 4 =.S.G.G.G.",
"v.r.$.R R R R $.y.g.h.t...L F A A ! ] ,.C i * & 8 7 5 -.S.G.G.G.",
"B.M.q.$.Q W $.0.j.k.k.d.7. .V N ^ ] 3.,.( f 0 0 e e 6 -.S.G.G.G.",
"C.B.v.v.$.$.r.v.b.N.b.h.d.2.` _ ,.4.4.,.( h d y y e 6 -.S.G.G.G.",
"C.V.N.M.p.p.l.m.m.k.b.h.d.6.5.1.4.4.4.,.( z k k j t 9 c.S.G.G.G.",
"C.V.V.B.N.N.N.x.N.N.b.h.h.6.6.5.4.3.4.,.( z l k j t t c.F.G.G.G.",
"C.V.V.V.N.N.x.x.b.b.b.h.h.6.6.5.4.4.4.,.( z l k j j q c.D.G.G.G.",
"C.V.V.B.N.x.x.N.b.b.b.b.d.6.6.5.4.4.4.,.( z l k j t t c.D.G.G.G.",
"C.V.C.N.N.x.x.N.b.b.b.h.a.6.5.5.4.4.4.,.( z l k u t t c.D.G.G.G.",
"C.C.V.B.N.x.x.x.N.b.b.h.h.a.6.5.4.4.4.,.( z l k j t t c.F.G.G.G.",
"C.C.V.N.N.x.N.x.N.b.b.h.h.6.6.5.4.4.4.,.( z l k j t t c.D.G.G.G.",
"C.V.B.B.N.x.m.x.b.b.b.b.d.a.6.5.4.3.4.,.( z l k j y t c.F.G.G.G."
};
