/* XPM */
static char *_c5707bc72c0463f8d6abbbc85919450l1AfmqFEyahVT43p[] = {
/* columns rows colors chars-per-pixel */
"32 32 179 2 ",
"   c #9D3A0E",
".  c #9F3A12",
"X  c #A62414",
"o  c #A42D13",
"O  c #AD2D17",
"+  c #A72718",
"@  c #A82718",
"#  c #A72C18",
"$  c #AB2A18",
"%  c #AD3417",
"&  c #A53917",
"*  c #AA3E18",
"=  c #B83C16",
"-  c #BA3318",
";  c #CD371E",
":  c #C53A19",
">  c #CC3D1D",
",  c #D03F1E",
"<  c #DE3B1F",
"1  c #E03F1F",
"2  c #D03720",
"3  c #D33920",
"4  c #DD3D20",
"5  c #E03F20",
"6  c #874900",
"7  c #8A4B00",
"8  c #914E05",
"9  c #99440D",
"0  c #954D0B",
"q  c #99510D",
"w  c #9C4D13",
"e  c #955612",
"r  c #9D5413",
"t  c #A84C17",
"y  c #B54913",
"u  c #A25416",
"i  c #AF5B17",
"p  c #A5541B",
"a  c #AC541A",
"s  c #AA5A1C",
"d  c #BE5613",
"f  c #B75B16",
"g  c #B66113",
"h  c #BD6517",
"j  c #B3631C",
"k  c #B8671A",
"l  c #B7691D",
"z  c #BA6A1B",
"x  c #BE711D",
"c  c #AC5C20",
"v  c #9E6C2C",
"b  c #B36320",
"n  c #B76921",
"m  c #BA6C20",
"M  c #BE7420",
"N  c #A27738",
"B  c #A3793B",
"V  c #C44718",
"C  c #CB4F1B",
"Z  c #D3461F",
"A  c #DC481F",
"S  c #D15D1E",
"D  c #CA691D",
"F  c #D5621D",
"G  c #C1741C",
"H  c #C57B1D",
"J  c #CA7A1C",
"K  c #D14422",
"L  c #DB4D22",
"P  c #CF5824",
"I  c #DD5223",
"U  c #E24221",
"Y  c #EA4624",
"T  c #E34B24",
"R  c #EC4D26",
"E  c #F04F28",
"W  c #EA5526",
"Q  c #EF5429",
"!  c #EC5B2B",
"~  c #F05627",
"^  c #F15529",
"/  c #F8552F",
"(  c #F25A2A",
")  c #F85730",
"_  c #F55D30",
"`  c #D56927",
"'  c #CB7624",
"]  c #C47C23",
"[  c #C57D2B",
"{  c #D47821",
"}  c #D67528",
"|  c #D47B2C",
" . c #EC632B",
".. c #E4692D",
"X. c #EB6C2D",
"o. c #F3642E",
"O. c #F16B2E",
"+. c #EB722E",
"@. c #E67D28",
"#. c #E96C30",
"$. c #F66533",
"%. c #F56E33",
"&. c #F86A30",
"*. c #E87632",
"=. c #F37235",
"-. c #F47A36",
";. c #F67638",
":. c #BD5B50",
">. c #BA634E",
",. c #AB7B44",
"<. c #AB7B45",
"1. c #B4744B",
"2. c #B27B4B",
"3. c #BA7F53",
"4. c #CD821D",
"5. c #D3851E",
"6. c #D4881F",
"7. c #CA8326",
"8. c #CB8526",
"9. c #CC842C",
"0. c #D58A26",
"q. c #D48D26",
"w. c #D1852C",
"e. c #D38C2B",
"r. c #DB9027",
"t. c #D5912B",
"y. c #D18530",
"u. c #D18A30",
"i. c #D69430",
"p. c #DD9533",
"a. c #DC9C33",
"s. c #E58E2E",
"d. c #E48132",
"f. c #EA8534",
"g. c #F2853A",
"h. c #F18B3E",
"j. c #E49434",
"k. c #EC9331",
"l. c #E89B36",
"z. c #F19C3C",
"x. c #DEA137",
"c. c #E0A02F",
"v. c #E1A133",
"b. c #E8A635",
"n. c #EBAA37",
"m. c #E5A53B",
"M. c #EBA53A",
"N. c #EBAA3D",
"B. c #F3A03F",
"V. c #EFB03E",
"C. c #BD8056",
"Z. c #BB9B6D",
"A. c #C38759",
"S. c #CA8E58",
"D. c #CC9358",
"F. c #D29C58",
"G. c #F09C43",
"H. c #DCA358",
"J. c #E2A943",
"K. c #EBAB40",
"L. c #F1A344",
"P. c #F1AC43",
"I. c #F0A848",
"U. c #EFB041",
"Y. c #F0B443",
"T. c #F0B64A",
"R. c #F0BB4B",
"E. c #F0C151",
"W. c #CCB391",
"Q. c #EACCC7",
"!. c #E5D5C4",
"~. c #E9D6C8",
"^. c #EAD7C9",
"/. c #E9D7CA",
"(. c #EEDBCA",
"). c #F3E1CA",
"_. c #EBE1D4",
"`. c #FAF7F3",
"'. c white",
/* pixels */
"T.R.R.Y.Y.K.K.K.J.m.v.l.x.a.a.t.u.u.u.9.] M m b c c p 3./.'.'.'.",
"R.R.R.Y.Y.V.N.J.K.m.v.v.v.x.a.i.u.u.9.9.] M m b c c p 3./.'.'.'.",
"R.R.R.Y.Y.K.K.K.K.m.c.x.v.l.a.i.u.u.u.9.] M M b c c w 3./.'.'.'.",
"E.R.R.Y.Y.K.K.m.m.b.v.v.x.a.a.i.u.u.u.9.] M m b c r c 3.~.'.'.'.",
"E.E.R.Y.Y.Y.N.m.v.v.v.v.x.x.i.i.u.u.u.9.M M m b c p a C.~.'.'.'.",
"E.R.R.Y.P.N.K.m.v.c.c.v.a.a.a.i.u.u.u.9.7.M m b c c p 3./.'.'.'.",
"E.R.R.R.Y.K.K.m.v.c.v.v.x.a.a.t.u.u.u.9.] M m b c p p 3.~.'.'.'.",
"E.R.T.Y.Y.K.K.N.b.c.c.a.m.x.a.i.u.u.9.9.] M m b c t u 3.~.'.'.'.",
"T.R.T.Y.Y.V.V.N.b.c.b.c.x.x.a.i.u.9.8.8.] M n j r w 0 2./.'.'.'.",
"Y.Y.T.T.Y.Y.V.N.k.k.s.j.l.a.a.i.i.9.' D x x m j r 0 0 2.!.'.'.'.",
"G.L.Y.R.V.V.V.B.f.X. .+.j.x.a.i.u.| P C f h z j r 0 0 2.!.'.'.'.",
"g.h.P.Y.Y.V.V.z.+.! Q ! f.p.a.t.u.` K V d h j i u 9 0 2.!.'.'.'.",
"_ ;.B.Y.Y.V.n.k.X.^ E Q X.d.j.t.' P K V d f i t & . 9 ,.!.'.'.'.",
") $.g.z.B.z.k.@.! E E Q ! ..| } F C , > d f t * $ o   1./.'.'.'.",
") ( %.O.O.O.O. .~ E E R T T I I K > 3 ; : = % o X X X >.Q.'.'.'.",
") / ^ ( ( / ( ~ ^ E E R U 4 5 4 3 3 3 ; : - O + $ + X :.Q.'.'.'.",
") ) ( ~ ( ^ ~ ~ Q R E R U 5 A < 3 3 2 ; : - $ @ @ @ X :.Q.'.'.'.",
"_ ( ( ~ ~ ~ ~ ~ Q Q Q W U 5 5 < 3 3 Z > : - $ @ @ @ X :.Q.'.'.'.",
"&.&.( ~ ( ~ ^ Q !  . .! T 5 A < > > C C V - O @ @ X X :.Q.'.'.'.",
"-.%.o.~ ~ ~ ^ ! #.*.*...R 5 U < 3 Z S F V = O + # o o >.Q.'.'.'.",
"g.-.o.! ( ~ ^ o.f.j.j.d.W Y U U 1 L } ' h y O # & 9 9 1.Q.'.'.'.",
"L.h.=.( ^ ( ( +.k.m.m.j.@.W A A I I | 9.x f * & w q 0 2.!.'.'.'.",
"T.I.h.=._ _ =.h.M.N.N.m.s.@.F S ` | y.9.] z a t p u 0 2.!.'.'.'.",
"E.R.L.h.;.=.h.G.P.U.K.m.c.s.{ ' w.u.u.9.] z i s s u 0 ,.!.'.'.'.",
"E.E.T.I.z.z.L.V.P.V.K.m.l.a.t.e.u.u.u.9.] M l c c u 7 ,.!.'.'.'.",
"J.J.J.m.N.m.M.b.b.n.N.m.x.a.a.i.e.u.9.7.] M n b s w 6 B !.'.'.'.",
"[ [ [ [ e.q.e.q.r.r.a.x.a.a.i.i.q.0.7.H m n b s u 0 6 N !.'.'.'.",
"n b j z x G H H 4.6.q.r.t.t.q.q.{ J x l j s u e 0 e v Z._.'.'.'.",
"k j g k z k z x H 4.5.6.4.4.] H x z j u r q 8 7 6 v W._.`.'.'.'.",
"S.S.S.S.S.S.S.D.F.H.H.H.H.H.F.D.D.A.C.C.2.,.,.B B Z._.'.'.'.'.'.",
"(.(.(.(.(.(./.(.(.).).).(.(.(.).(.(.(./.!.!.!.!.!._.`.'.'.'.'.'.",
"'.'.'.'.'.'.'.'.'.'.'.'.'.'.'.'.'.'.'.'.'.'.'.'.'.'.'.'.'.'.'.'."
};
