/* XPM */
static char *_1e48f100eaa44e483cd13c0ff6eabdf87YTPnpbwjdysZxK[] = {
/* columns rows colors chars-per-pixel */
"32 32 178 2 ",
"   c #9D3A0E",
".  c #9F3A12",
"X  c #A62414",
"o  c #A42D13",
"O  c #A72718",
"+  c #A82718",
"@  c #A72C18",
"#  c #AB2A18",
"$  c #AD3417",
"%  c #A53917",
"&  c #AA3E18",
"*  c #B83C16",
"=  c #BA3318",
"-  c #CD371E",
";  c #C53A19",
":  c #CC3D1D",
">  c #D03F1E",
",  c #D03720",
"<  c #D33920",
"1  c #DD3D20",
"2  c #E03F20",
"3  c #874900",
"4  c #8B4A00",
"5  c #924D06",
"6  c #99440D",
"7  c #954D0B",
"8  c #994E0E",
"9  c #9B510F",
"0  c #9C4D13",
"q  c #955612",
"w  c #9E5414",
"e  c #A84C17",
"r  c #B54913",
"t  c #A15415",
"y  c #AF5B17",
"u  c #A5541B",
"i  c #AC541A",
"p  c #AA5A1C",
"a  c #BE5613",
"s  c #B85914",
"d  c #B66113",
"f  c #BD6517",
"g  c #B4631C",
"h  c #B8671A",
"j  c #B7691D",
"k  c #BA6A1C",
"l  c #BE721D",
"z  c #AC5C20",
"x  c #9E6C2C",
"c  c #B36320",
"v  c #B76921",
"b  c #BA6C20",
"n  c #BE7420",
"m  c #A27738",
"M  c #C44718",
"N  c #CB4F1B",
"B  c #D3461F",
"V  c #D04E1B",
"C  c #DC481F",
"Z  c #D15D1E",
"A  c #CA691D",
"S  c #D5621D",
"D  c #C2721C",
"F  c #C57C1F",
"G  c #C97C1D",
"H  c #D14422",
"J  c #DB4D22",
"K  c #CF5824",
"L  c #DD5223",
"P  c #E24221",
"I  c #EA4624",
"U  c #E34B24",
"Y  c #EC4D26",
"T  c #F04F28",
"R  c #EA5526",
"E  c #EF5429",
"W  c #EC5B2B",
"Q  c #F05627",
"!  c #F15529",
"~  c #F8552F",
"^  c #F25A2A",
"/  c #F85730",
"(  c #F55D30",
")  c #D56927",
"_  c #CB7624",
"`  c #C47C23",
"'  c #C57D2B",
"]  c #D47821",
"[  c #D67528",
"{  c #D47B2C",
"}  c #EC632B",
"|  c #E4692D",
" . c #EB6C2D",
".. c #F3642E",
"X. c #F16B2E",
"o. c #EB722E",
"O. c #E67D28",
"+. c #F66533",
"@. c #F56E33",
"#. c #F86A30",
"$. c #E87632",
"%. c #F37235",
"&. c #F47A36",
"*. c #F67638",
"=. c #BD5B50",
"-. c #BA634E",
";. c #A77A40",
":. c #AD7A46",
">. c #B4744B",
",. c #B27B4B",
"<. c #BA7F53",
"1. c #D1831F",
"2. c #C78123",
"3. c #CD8523",
"4. c #CC842C",
"5. c #CF8A29",
"6. c #D28624",
"7. c #D58D27",
"8. c #D1852C",
"9. c #D28B2C",
"0. c #D6932D",
"q. c #D9922B",
"w. c #D18530",
"e. c #D18A30",
"r. c #D69430",
"t. c #DD9533",
"y. c #DC9C33",
"u. c #EA842E",
"i. c #E58E2E",
"p. c #E7902F",
"a. c #E48132",
"s. c #EA8534",
"d. c #F18B3E",
"f. c #E49434",
"g. c #EC9331",
"h. c #E19D35",
"j. c #EC9B37",
"k. c #F19C3C",
"l. c #DFA136",
"z. c #E0A02F",
"x. c #E1A134",
"c. c #E8A635",
"v. c #EBAA37",
"b. c #E5A53C",
"n. c #EFA33D",
"m. c #EAAA3C",
"M. c #F3A03F",
"N. c #EFB03E",
"B. c #BD8056",
"V. c #BC9C6E",
"C. c #C38759",
"Z. c #CA8E58",
"A. c #CC9358",
"S. c #D49E58",
"D. c #F09C43",
"F. c #D6A058",
"G. c #E2A943",
"H. c #EBAB40",
"J. c #F1A344",
"K. c #F1AC43",
"L. c #F0A848",
"P. c #EFB041",
"I. c #F0B443",
"U. c #F0B64A",
"Y. c #F0BB4B",
"T. c #F0C151",
"R. c #CCB391",
"E. c #EACCC7",
"W. c #E5D5C4",
"Q. c #E9D6C8",
"!. c #E9D7C9",
"~. c #EAD7C9",
"^. c #EEDBCA",
"/. c #F1DFCA",
"(. c #F2E1CA",
"). c #EAE1D3",
"_. c #F9F7F3",
"`. c white",
/* pixels */
"`.`.`.~.B.u u z c b ` ` 4.w.e.e.r.r.y.x.x.x.b.m.H.H.N.K.I.Y.I.Y.",
"`.`.`.~.B.u u z c b n ` 4.e.e.e.r.y.y.x.x.x.b.m.G.H.N.I.I.Y.Y.Y.",
"`.`.`.~.C.u u z g b ` ` 4.e.e.e.r.y.l.b.z.x.b.G.b.H.H.I.I.Y.Y.Y.",
"`.`.`.~.<.u u z c v n ` 4.e.e.e.r.y.y.y.x.x.b.m.H.H.H.K.Y.Y.Y.T.",
"`.`.`.~.<.u u z c b n ` 4.e.e.0.r.y.y.b.l.h.x.c.b.H.m.I.I.Y.T.T.",
"`.`.`.~.B.z z z c b n ` 4.e.e.e.r.y.y.y.l.x.z.x.b.m.I.I.I.Y.T.Y.",
"`.`.`.~.<.u u z c b n ` 4.e.e.e.r.y.y.b.x.z.z.x.b.H.H.I.I.Y.Y.T.",
"`.`.`.~.<.e u u c b n ` 4.4.e.e.r.r.y.x.x.z.z.x.b.H.P.I.I.Y.Y.T.",
"`.`.`.W.,.8 0 t g b n ` 2.4.e.e.r.y.y.h.x.z.x.c.N.K.N.I.I.Y.Y.Y.",
"`.`.`.W.,.5 7 w g k l l A _ 4.e.r.y.l.h.p.i.p.j.N.N.N.I.I.U.I.K.",
"`.`.`.W.,.7 7 w g h j A N K { e.r.y.l.f.o. . .s.k.I.N.I.Y.L.J.D.",
"`.`.`.W.,.7 6 e p y d a M H ) 8.r.r.h.a.W T W o.j.N.N.I.I.J.D.&.",
"`.`.`.W.,.6 . % e y d s M B Z ] 0.f.a. .Q Y !  .g.v.N.I.I.J.&.+.",
"`.`.`.W.>.  o @ e e s M : : V Z [ { | W T T T W O.g.j.k.k.d.#.~ ",
"`.`.`.E.-.o X O # $ * ; - > > H L U J U Y ! T ! ..X.@.@.X.X.~ ~ ",
"`.`.`.E.=.X X X # # = ; - - , < 1 2 2 P Y T T ! Q ! ~ ^ Q ^ ~ ~ ",
"`.`.`.E.=.X X O + # = ; - , < < 1 2 2 I Y T T E E E ^ Q Q ! ~ ~ ",
"`.`.`.E.=.X O # + # = ; > : , < H 2 2 P E E E E ^ E Q Q ^ ^ ( ^ ",
"`.`.`.E.=.X O O + # = M N V B < 1 P 2 U W | } W E ! Q ^ ^ ^ #.#.",
"`.`.`.E.-.o o O # # * M S Z H < 1 2 P U | $.$. .W ! Q E Q ..@.&.",
"`.`.`.W.>.6 6 . + $ r f _ ) J 1 2 2 I Q u.f.f.u.} ! W E Q ..&.d.",
"`.`.`.W.,.7 8 0 % & s D 4.{ ) J C U R o.h.x.v.g.%.^ ! ! ^ %.d.D.",
"`.`.`.W.,.0 t u e i d ` e.w.{ ) Z Z O.i.c.m.m.n.d.%./ ( +.D.H.Y.",
"`.`.`.W.:.7 t p i p l ` 4.e.e.8.] ] q.h.b.H.H.K.k.d.*.+.D.L.Y.T.",
"`.`.`.W.m 5 w z c g n ` 4.e.4.9.9.r.y.h.b.H.P.N.K.J.M.M.K.U.Y.T.",
"`.`.`.W.m 3 q p c j n ` 4.4.9.9.r.y.y.b.G.H.m.m.m.v.c.b.b.G.G.G.",
"`.`.`.W.m 3 7 t p z v l ` ` 6.7.q.y.b.H.H.b.l.l.l.y.0.5.' ' ' 4.",
"`.`.`.~.V.x q 7 w u p g j l G 6.7.0.y.h.y.t.7.5.5.3.F l j g g g ",
"`.`.`._.).R.x 4 5 8 9 t t g h D 2.1.3.6.6.3.2.F D k k h g g g f ",
"`.`.`.`.`.).V.;.:.,.,.,.B.B.Z.A.S.S.F.F.S.S.S.A.A.Z.Z.Z.A.Z.Z.Z.",
"`.`.`.`.`._.).W.W.W.Q.~.~.~.^.^./.(.(.(.(.(.(.^.^.^.^.^.^.^.^.^.",
"`.`.`.`.`.`.`.`.`.`.`.`.`.`.`.`.`.`.`.`.`.`.`.`.`.`.`.`.`.`.`.`."
};
