/* XPM */
static char * blo_xpm[] = {
"64 64 15 1",
" 	c #DC0000",
".	c #00796B",
"+	c #9E9D24",
"@	c #0A7E07",
"#	c #558B2F",
"$	c #259B24",
"%	c #056F00",
"&	c #0D5302",
"*	c #212121",
"=	c #3E2723",
"-	c #4E342E",
";	c #5D4037",
">	c #424242",
",	c #616161",
"'	c #757575",
"                                                                ",
" .++...+....+.+.+.......+.+...+..+...+.+.......+.+.+....+...++. ",
" @@#.$.+.+..$+$..$++.+..$.$+$$$..$$$+$.$..+.++$..$+$..+.+.$.#@@ ",
" @@@#.@#.@#$@@$#@$@#+@+.@+$$#$$##$$#$$+@.+@+#@$@#$@@$#@.#@.#@@@ ",
" %%@@@@@#@$@@%%$%$&$#$@+@$#@$@$@@$@$@#$@+@$#$&$%$%%@@$@#@@@@@%% ",
" %@%%@@@@%@@%%@@$&&&%$@@@@$@@@@@@@@@@$@@@@$%&&&$@@%%@@%@@@@%%@% ",
" %%%%%%@%%%@%%%@%%%%@@@@%@@@%%@@@@%%@@@%@@@@%%%%@%%%@%%%@%%%%%% ",
" %%%%%%%%%%%%%%%%%%%@%%%%%%%@%%@@%%@%%%%%%%@%%%%%%%%%%%%%%%%%%% ",
" &&&&%&%%&%%%%%%%%%%%%%%%%%%%%%%%%%%%%%%%%%%%%%%%%%%%%&%%&%&&&& ",
" &&*&&&&&&%&%&%%%%&&%%&%%%&&&%&%%&%&&&%%%&%%&&%%%%&%&%&&&&&&*&& ",
" &*&*&**&&&&&&**&&&&&%&&&&&&&&&&&&&&&&&&&&%&&&&&**&&&&&&**&*&*& ",
" *****&***&&&***&*&*&&&&&&&&&&&**&&&&&&&&&&&*&*&***&&&***&***** ",
" *********&**&*******&&&****&&****&&****&&&*******&**&********* ",
" =********************&******&****&******&********************= ",
" -*==*=*==***==******&********************&******==***==*=*==*- ",
" --------*=-*-*-=*=*****=*--*-*--*-*--*=*****=*=-*-*-=*-------- ",
" ;;;-;=>---*----*--=***=*----;-;;-;----*=***=--*----*--->=;-;;; ",
" =;;-;=**--=-=------*----;--;;;==;;;--;----*------=-=--**=;-;;= ",
" ,=;-;;=*=;--;;;;;;-=*--;-=--;=,,=;--=-;--*=-;;;;;;--;=*=;;-;=, ",
" =;-;;;;=;;;;;;;;;;--==;--==-;=**=;-==--;==--;;;;;;;;;;=;;;;-;= ",
" ;;;;;===;;;;;===;;---=-------;==;-------=---;;===;;;;;===;;;;; ",
" ;;;;='''=;;;;=*=;---;;;;;;;;;;==;;;;;;;;;;---;=*=;;;;='''=;;;; ",
" -;;=''>>'=;;-;=;----;;===;;;;;;;;;;;;===;;----;=;-;;='>>''=;;- ",
" -;;='>>>>=;;--=--==-;='''==;------;=='''=;-==--=--;;=>>>>'=;;- ",
" --;=>>**>=;-----===-;=>>>'=;------;='>>>=;-===-----;=>**>>=;-- ",
" --;=>***>=;-=-------;;=>>=;;-====-;;=>>=;;-------=-;=>***>=;-- ",
" ---;=***=;-==-;;;;---;=>>=;--====--;=>>=;---;;;;-==-;=***=;--- ",
" ---;=***=;---;;;;;;--;=*=;;-======-;;=*=;--;;;;;;---;=***=;--- ",
" ;;;;=**=;---;;;==;;;-;=*=;--======--;=*=;-;;;==;;;---;=**=;;;; ",
" ;;;;;=*=;--;;;=''=;;;-;==;--======--;==;-;;;=''=;;;--;=*=;;;;; ",
" ==;;-;=;;;;;;=,,,,=;;--;=;-==----==-;=;--;;=,,,,=;;;;;;=;-;;== ",
" ,,=;;-=;;;;;;=,**,=;;=--=------------=--=;;=,**,=;;;;;;=-;;=,, ",
" *,,=;-;===;--;=**=;;-==----;;;;;;;;----==-;;=**=;--;===;-;=,,* ",
" **=;--;=,=;-=-;=*=;;;;;;;-;;======;;-;;;;;;;=*=;-=-;=,=;--;=** ",
" ==;---;==;--=-;==;;;;;;;;;;=''''''=;;;;;;;;;;==;-=--;==;---;== ",
" ;;----;=;;;;;;;==;-;====;;=''''''''=;;====;-;==;;;;;;;=;----;; ",
" ----;;;;;;;;;;;;=;-;;=*=;;=''''''''=;;=*=;;-;=;;;;;;;;;;;;---- ",
" ---;;;=======;;;;---;==;;;=''''''''=;;;==;---;;;;=======;;;--- ",
" --;;;='''''''==;--=-;==;;;=''''''''=;;;==;-=--;=='''''''=;;;-- ",
" --;;='''''''''=;--=-;=;-;;=',>>>>,'=;;-;=;-=--;='''''''''=;;-- ",
" --;;='''''''''=;;----;---;=,,>**>,,=;---;----;;='''''''''=;;-- ",
" =--;=''',,,,''==;;;;;;---;=*>>**>>*=;---;;;;;;=='',,,,'''=;--= ",
" =--;='',,>,''''=;;;;;;;---;=******=;---;;;;;;;='''',>,,''=;--= ",
" ---;;=,>>>>>>',=;;===;;;--;=,****,=;--;;;===;;=,'>>>>>>,=;;--- ",
" -;;;;=,,***>>>>=;='''=;;---;=****=;---;;='''=;=>>>>***,,=;;;;- ",
" ;;;;;;=>>****>>=;=>>>=;;-=-;=,**,=;-=-;;=>>>=;=>>****>>=;;;;;; ",
" ;===;;;=>*****=;;=***=;;-=--;=**=;--=-;;=***=;;=*****>=;;;===; ",
" ='''=;-;=*****=;-;=**=;--==-;=**=;-==--;=**=;-;=*****=;-;='''= ",
" =>>=;;--;=**==;-==;===;-----;====;-----;===;==-;==**=;--;;=>>= ",
" ==*=;-;;;;==;=;-=--;;=;---;;;=;;=;;;---;=;;--=-;=;==;;;;-;=*== ",
" ;;=;-;;;==;;;;---;;;;;---;;;;;--;;;;;---;;;;;---;;;;==;;;-;=;; ",
" --;=;;;=''=;;;;;;====;;;-;;=;;;;;;=;;-;;;====;;;;;;=''=;;;=;-- ",
" ;;;=-;='>,'=;;;==''''==;;;=,=;;;;=,=;;;==''''==;;;=',>'=;-=;;; ",
" ;;;;-;=>**'=;;=,''>''''=;;=*,=;;=,*=;;=''''>'',=;;='**>=;-;;;; ",
" ===;;;=***=;;=,'>>>>>'''=;=*=;--;=*=;='''>>>>>',=;;=***=;;;=== ",
" '''=;;;=*=;-;='>>***>>''=;==;----;==;=''>>***>>'=;-;=*=;;;=''' ",
" >>,'=;;=*=--;=>>*****>>'=;=;;;;;;;;=;='>>*****>>=;--=*=;;=',>> ",
" >>>'=;-;=;--;=>>*****>>'=;;;;====;;;;='>>*****>>=;--;=;-;='>>> ",
" **>>=;--;;;;=;=******>>=;--;=''''=;--;=>>******=;=;;;;--;=>>** ",
" ***>=;--;;==,=;=*****>=;;;;;=,>>,=;;;;;=>*****=;=,==;;--;=>*** ",
" ***=;---;=**=;;=*****=;-==;;;=**=;;;==-;=*****=;;=**=;---;=*** ",
" ===;-----;==;-;=*****=;=>>=;-;==;-;=>>=;=*****=;-;==;-----;=== ",
" ;;;--;;;;;;;---;=***=;;=*=;;-;==;-;;=*=;;=***=;---;;;;;;;--;;; ",
"                                                                "};
