/* XPM */
static char *_d745ae141ac4403ec3731684cb37d655pdcnF6sw2fRP9X8[] = {
/* columns rows colors chars-per-pixel */
"32 48 19 1 ",
"  c #081010",
". c #102121",
"X c #183139",
"o c #733900",
"O c #21424A",
"+ c #295263",
"@ c #316373",
"# c #844A08",
"$ c #8C5A08",
"% c #A56B18",
"& c #AD7B18",
"* c #BD8418",
"= c #C69418",
"- c #CE9C18",
"; c #D6AD18",
": c #DEB521",
"> c #E7C65A",
", c #4A849C",
"< c #EFDE94",
/* pixels */
"================================",
"=>>>>>>>>>>>>>>>>>>>>>>>>>>>>>>=",
"=>>>>>>>>>>>>>>>>>>>>>>>>>>>>>>=",
"=>>&&&&&&&%*&&&&&&&&%*&&&&&&&>>=",
"=>>&&&&***%-***>>***%-*******>>=",
"=>>&*=====&;==>$$>==&;======*>>=",
"=>>&;;;;;;&>;>$OO$>;&>;;;;--->>=",
"=>>*;;;;;;&>>$OOX.$>=>;;;---->>=",
"=>>*;;;;;;=>$OOX...$<>;;----->>=",
"=>>*;;;;;;<$OOX.....$<;------>>=",
"=>>*;;;;;;<>;;====;;><------->>=",
"=>>*;;;;;;&><<<<<<<<;:------->>=",
"=>>*;;;;;;&<>$$$###:<:------->:=",
"=>>*;;;;;;&>%XXXX..o<:-------::=",
"=>>*;;;;;;&>%XXX...o<:------=::=",
"=>>*;;;;;;&>%XX....o<:-----==::=",
"=>>*;;;;;;&>%@@,,@@o>:----===::=",
"=>>*;;<<>>>:#XXXXXXo:><<>>===::=",
"=>>*;<>%%%%##XXXXXXoo$$$%->==::=",
"=>>*;<%XXX+XXX@,,@XXX+X..$>==::=",
"=>>*;>%XXX@XX@,,,,@XX@...$>==::=",
"=>>*;>%XX.,XX,,,,,,XX,...$>==::=",
"=>>*;>%X..,XX,,,,,,XX,.. $:=*::=",
"=>>*;>%...@XX@,,,,@XX@.  $:**::=",
"=>>*;<%...+XXX@,,@XXX+   $;**::=",
"=>>*;<>ooooooXXXXX.ooooo$--**::=",
"=>>*;;<<>>--oXXXXX.o;;;---***::=",
"=>>*;-----%:$+@,,@+o:==******::=",
"=>:*....*-%:$...   o:=*******::=",
"=::.,,,,.*%>$..    o:=*******::*",
"=:X.++++.X%>$.     $;=******&::*",
"=:O......O%>-$$$$$$-;=*****&&::*",
"=:+.&&&&.+%:>>>>>::;%=****&&&::*",
"=:@.*---.@%:=====***$=***&&&&::&",
"=:@.*---.@%;====****$=**&&&&&::&",
"=:+.*--=.+%;===*****$=*&&&&&&::&",
"=:XO@@@@OX%;==******$=&&&&&&&::&",
"=::......=%;=*******$*&&&&&&%::&",
"=::&======%;********$*&&&&&%%::&",
"=::%======%;*******&$*&&&&%%%::&",
"=::%======%;******&&$*&&&%%%%::%",
"=::%=====*%-*****&&&$*&&%%%%%::%",
"=::%====**%-****&&&&$*&%%%%%%::%",
"=::%===***%-***&&&&&$*%%%%%%%::%",
"=::%******%&**&&&&&&$&%%%%%%%::%",
"=::::::::::::::::::::::::::::::%",
"=::::::::::::::::::::::::::::::%",
"****&&&&&&&&%%%%%%%%%%%%%%%%%%%%"
};
