/* XPM */
static char * fort_xpm[] = {
"103 103 88 1",
" 	c #99D9EA",
".	c #605030",
"+	c #685030",
"@	c #A07840",
"#	c #282020",
"$	c #302820",
"%	c #A87840",
"&	c #A88040",
"*	c #B08040",
"=	c #B88848",
"-	c #B87838",
";	c #504028",
">	c #504828",
",	c #C88848",
"'	c #C89050",
")	c #C89048",
"!	c #785830",
"~	c #A86830",
"{	c #986838",
"]	c #987038",
"^	c #986030",
"/	c #C87838",
"(	c #C88840",
"_	c #C88038",
":	c #C07030",
"<	c #886030",
"[	c #503828",
"}	c #986028",
"|	c #985828",
"1	c #B86830",
"2	c #584828",
"3	c #905830",
"4	c #906030",
"5	c #483828",
"6	c #B06030",
"7	c #B87030",
"8	c #886838",
"9	c #A07040",
"0	c #805028",
"a	c #906830",
"b	c #B06830",
"c	c #684028",
"d	c #684828",
"e	c #A06030",
"f	c #804828",
"g	c #C87030",
"h	c #785030",
"i	c #805030",
"j	c #786030",
"k	c #A86030",
"l	c #C87830",
"m	c #A87038",
"n	c #D07830",
"o	c #D08038",
"p	c #805830",
"q	c #806038",
"r	c #907038",
"s	c #403820",
"t	c #403020",
"u	c #583020",
"v	c #584020",
"w	c #D0A050",
"x	c #D0A850",
"y	c #D0B050",
"z	c #B88040",
"A	c #C08040",
"B	c #705030",
"C	c #A06830",
"D	c #C08848",
"E	c #704828",
"F	c #B07838",
"G	c #382820",
"H	c #383020",
"I	c #705830",
"J	c #303830",
"K	c #383830",
"L	c #402820",
"M	c #502820",
"N	c #503020",
"O	c #683028",
"P	c #482820",
"Q	c #683828",
"R	c #704028",
"S	c #D09048",
"T	c #182020",
"U	c #D08840",
"V	c #807868",
"W	c #405050",
"                                                                                                       ",
"                                                                                                       ",
"                                                                                                       ",
"                                                                                                       ",
"                                                                                                       ",
"                                                                                                       ",
"                                                                                                       ",
"             .+@####$%@@&*=-&;;;>;;;; ,,,,'''',)!.    .!),'''',,,, ;;;;>;;;&-=*&@@%$####@+.            ",
"             >>%$$$$#~~{]@]^]>;;;>;;;;/((/_)):::<.>$$>.<:::))_/((/;;;;>;;;>]^]@]{~~#$$$$%>>            ",
"             ;[]$$$#$]^}}}||{;;>;;;;;;/::::::1::]22$$22]::1::::::/;;;;;;>;;{||}}}^]$#$$$][;            ",
"             ;[]###$#]^^}3334;;;;;;;;5/:::1667118;[$$[;8117661:::/5;;;;;;;;4333}^^]#$###][;            ",
"             ;;9##$##{^^}300a;;;;;;;;;::::166b71+>;$$;>+17b661::::;;;;;;;;;a003}^^{##$##9;;            ",
"             cd*$$$$#~e~~^^fa>>>>>;;;>::ggg:::b1h+2$$2+h1b:::ggg::>;;;>>>>>af^^~~e~#$$$$*dc            ",
"             cd*$$$$#{e~~^^i4>>>>>;;;;g:ggg::1b7j+2$$2+j7b1::ggg:g;;;;>>>>>4i^^~~e{#$$$$*dc            ",
"             dd%$$$$#{e~kkk}a;>>;>;;;;::glllllll].2$$2.]lllllllg::;;;;>;>>;a}kkk~e{#$$$$%dd            ",
"             dd]$$$$${~~k~m]]>;>>;;;;;_(_llno,,,&.2$$2.&,,,onll_(_;;;;;>>;>]]m~k~~{$$$$$]dd            ",
"             ..+#####p]9999q!;;>>>;;;;p=====)=*]r..$$..r]*=)=====p;;;;>>>;;!q9999]p#####+..            ",
"             stu#####v+p8aaa]=wxxxxx=249==*=*)99=xyyyyx=99)*=*==942=xxxxxw=]aaa8p+v#####uts            ",
"             c+]qq8r999&*==**z-:zA)),9,,(,'''wwwwxwwwwxwwww''',(,,9,))Az:-z**==*&999r8qq]+c            ",
"             ;2aBBi0333{%*&mC~~bb7-D,](/:://gl/llllllllll/lg//::/(],D-7bb~~Cm&*%{3330iBBa2;            ",
"             ;v]hEfi333|eeeCe~~bbb-D,](_/::::gllggggggggllg::::/_(],D-bbb~~eCeee|333ifEh]v;            ",
"             ;2]BEfi333|eeeee~~bbb7D,9,_::::ggllggggggggllgg::::_,9,D7bbb~~eeeee|333ifEB]2;            ",
"             ;v]hEfi333|eeCCe~~bb6-A)],(/::::gggggggggggggg::::/(,])A-6bb~~eCCee|333ifEh]v;            ",
"             >v]BEii333|eeeeC~~F-77z)9,_::::ggglgggggggglggg::::_,9)z77-F~~Ceeee|333iiEB]v>            ",
"             22rh!pp433}~mm%%=*D==A=,9)(/(,,((_llggggggll_((,,(/()9,=A==D*=%%mm~}334pp!hr22            ",
"             $$2GGHs;;;;2....++IIIII8sjjjjjjjqqqqqqqqqqqqqqjjjjjjjs8IIIII++....2;;;;sHGG2$$            ",
"             JJ;HJKK5;;;>22..2++++++2$!!j!!jjj<jjpjjjjpjj<jjj!!j!!$2++++++2..22>;;;5KKJH;JJ            ",
"                    LtMMNNNNNuuuuuOOuOOOOOOOOOOOOOOOOOOOOOOOOOOOOOOuOOuuuuuNNNNNMMtL                   ",
"                    tPPPPMMMNMNNNNNuuuuuuuuuuuuuuuOuuOuuuuuuuuuuuuuuuNNNNNMNMMMPPPPt                   ",
"                    GGLLLPPMMMMMMNuuNOOQRRdQ0f|^3f{44{f3^|f0QdRRQOONuuNMMMMMMPPLLLGG                   ",
"                    GGPNi33]%]eeekb7bb711:::::gggg'))'gggg:::::117bb7bkeee]%]33iNPGG                   ",
"                    GLcE033]@mCeekb7bb111:::::ggggS))Sgggg:::::111bb7bkeeCm@]330EcLG                   ",
"                    ;dEE043]@~eeekb77b111:::::gggg())(gggg:::::111b77bkeee~@]340EEd;                   ",
"                    ;vEh8]]]@]~%%&77bb71:::::gl__g())(g__lg:::::17bb77&%%~]@]]]8hEv;                   ",
"                    >cI.;2>2.++++I!!r]==D))))')))))**)))))'))))D==]r!!I++++.2>2;.Ic>                   ",
"                    ;>>>;>2>..+.++j!!!jqq88888qI+++ss+++Iq88888qqj!!!j++.+..>2>;>>>;                   ",
"                    ;;+j@***.+TTTTT.xxw+vxxxyy*;########;*yyxxxv+wxx.TTTTT+.***@j+;;                   ",
"                    ;+j]@***..TTTTTswxx=9yxxxy*sTTTTTTTTs*yxxxy9=xxwsTTTTT..***@]j+;                   ",
"                    qhBBp444;2TTTTTG1-)=a/:/_/~HTTTTTTTTH~/_/:/a=)-1GTTTTT2;444pBBhq                   ",
"                    jhcR0333[;TTTTTG7F)Aa_/:::eHTTTTTTTTHe:::/_aA)F7GTTTTT;[3330Rchj                   ",
"                    qhER0333[;TTTTTGb7)D]_:::geGTTTTTTTTGeg:::_]D)7bGTTTTT;[3330REhq                   ",
"                    j!RR0333[;TTTTTGb1)D]_::::^HTTTTTTTTH^::::_]D)1bGTTTTT;[3330RR!j                   ",
"                    phER0333[;TTTTTGb-)=](/:::^HTTTTTTTTH^:::/(]=)-bGTTTTT;[3330REhp                   ",
"                    q!Bhp433[;TTTTTH=z)=]_/),(~HTTTTTTTTH~(,)/_]=)z=HTTTTT;[334phB!q                   ",
"                    !IIIq8<<;;TTTTTG=*=*8)))))rHTTTTTTTTHr)))))8*=*=GTTTTT;;<<8qIII!                   ",
"                    J$H>r*==..TTTTT;9@@rr9]***]>ss5ss5ss>]***]9rr@@9;TTTTT..==*r>H$J                   ",
"     +qr**&@&*====)'!r==wwwxxxxxxD9wyyyxxyxyyyyyyyyyyyyyyyyyyxyxxyyyw9Dxxxxxxwww==r!')====*&@&**rq     ",
"    ;2+9=q<8r]99@9*====*Azz/AD))),a),,,''''wwwwwxxwwwwxxwwwww'''',,,)a,)))DA/zzA*====*9@99]r8<q=9+     ",
"    H[v]&fBh0<33a4%**&~C~~~bb7zD),<(/::/(___(lll_o_oo_o_lll(___(/::/(<,)Dz7bb~~~C~&**%4a33<0hBf&]v     ",
"    H;;]*BEfi03333^eCeee~~6bb7FD),<(_/:::::gggllggggggggllggg:::::/_(<,)DF7bb6~~eeeCe^33330ifEB*];     ",
"    H[;9%BEEi03333^Ceeee~~6bbb1D),8,_/:::::gglllgggggggglllgg:::::/_,8,)D1bbb6~~eeeeC^33330iEEB%9;     ",
"    H[;]*fEfi03333^eeCeC~~6bbb7D),8,_/::::ggglllgggggggglllggg::::/_,8,)D7bbb6~~CeCee^33330ifEf*];     ",
"    H;;]*BEfi03333eeeeee~~6bbbFA),8,(_:::::gglllgggggggglllgg:::::_(,8,)AFbbb6~~eeeeee33330ifEB*];     ",
"    H;;]*BEEi03333^eeeeC~~bF7bbz),8,(:::::g:ggllggggggggllgg:g:::::(,8,)zbb7Fb~~Ceeee^33330iEEB*];     ",
"    H>2]*Bhpp03333{C~m9m**z==z-=),8'/:/(((_lllllgggggggglllll_(((/:/'8,)=-z==z**m9m~C{33330pphB*]2     ",
"    $$#H+$$$GGssss;;;>;;222.....+jG+++++++++I+I+IIIIIIII+I+I+++++++++Gj+.....222;;>;;;ssssGG$$$+H#     ",
"     $$$s$$$$GHsHH55;;;;2>>.22.22;$2++++++++BII+I++++++I+IIB++++++++2$;22.22.>>2;;;;55HHsHG$$$$s$$     ",
"        LPMMMMMNNNNNOuuuuuuOuOOuOOOOOOOOOOOOOOOOOOOuuOOOOOOOOOOOOOOOOOOOuOOuOuuuuuuONNNNNMMMMMPL       ",
"        HHLPPPPMMMMMOMNMNNNQQQQQvdQRfRRfEREdfffdf04uu40fdfffdEREfRRfRQdvQQQQQNNNMNMOMMMMMPPPPLHH       ",
"        GGGLLL;QdRi-,<{}|||^eCCCeekCm7~~~~~~6666b-=]]=-b6666~~~~~~7mCkeeCCCe^|||}{<,-iRdQ;LLLGGG       ",
"        $GGLuci0349ASa{a|||}e~Ceeekk~~~~~~~~~6667z=]]=z7666~~~~~~~~~kkeeeC~e}|||a{aSA9430icuLGG$       ",
"        GLdREEi3339)S]a||||^eCCeeekk~~~~~~~~~66~b7=]]=7b~66~~~~~~~~~kkeeeCCe^||||a]S)9333iEERdLG       ",
"        t;dEEEi0349)w9{||||^eCCeeekk~~~~~~~~66667-=]]=-76666~~~~~~~~kkeeeCCe^||||{9w)9430iEEEd;t       ",
"        ;;dRBEi033a)S9{}|||^eCCeeekk~~~~~~~~~~6667=]]=7666~~~~~~~~~~kkeeeCCe^|||}{9S)a330iEBRd;;       ",
"        [;dEEEp4a3a)S9{|3||^eCCeeeCk~~~~~~~~b77b~bz]]zb~b77b~~~~~~~~kCeeeCCe^||3|{9S)a3a4pEEEd;[       ",
"        ;H$$$$HH5.!=D]]]]]]9@@9~{]%&***=**========*]]*========**=***&%]{~9@@9]]]]]]D=!.5HH$$$$H;       ",
"        $$$$GGHHsHH.$H2>2222++++++++IIIII!I!!!!!!!!..!!!!!!!!I!IIIII++++++++2222>2H$.HHsHHGG$$$$       ",
"         $2+99======))))rqqII>5#TTTTTTTTTTTTTTTTTT##9=wxx'')9,A*Dxwqu;HHHHs8*=')'''=======99+2$        ",
"         $s8a8**&&&&))''q++II2sTTTTTTTTTTTTTTTTTTTTT*xxxxxxyxxwwxx@PHsssss2==='''''*&&&&**8a8s$        ",
"        $GH!fE^{a]]]====Bvvvv;GTTTTTTTTTTTTTTTTTTTTT%,))(:lggggl(S%A((((,')())*****q]]]a{^Ef!HG$       ",
"        GHH!EE}^3]]]bF*7Rvvvv[GTTTTTTTTTTTTTTTTTTTTTC/:::1ggggg:_,&A((//(,(A()%m%&&q]]]3^}EE!HHG       ",
"        ttHhRE}^3344]6~~Rvvvv[GTTTTTTTTTTTTTTTTTTTTTe:11:1gggg:gl,%z((/:::1171CCCCCi4433^}ER!HtG       ",
"        ttHhEE}}3333]~~~cvvvv[GTTTTTTTTTTTTTTTTTTTTTe:1111ggg::gg,%-((_:::1111C~CCef3333}}EE!HtH       ",
"        ttHBEE^}3333]~~~cvvvv[GTTTTTTTTTTTTTTTTTTTTTe:1111ggg:g:_,%A((A:::1111CCeCef3333}^EE!HtH       ",
"        ttHBEE}^3333]~~~Rvvvv[GTTTTTTTTTTTTTTTTTTTTTe:::11gggg:gg(&),(_:::1111~CCeef3333^}EE!Htt       ",
"        ttHhEE}^3333b~~~cvvvv;GTTTTTTTTTTTTTTTTTTTTTa%()))xw''''(,%D,)_:::1111CCCeCf3333^}EEhHtt       ",
"        ttH!EE}}33337~~kRvvv2;GTTTTTTTTTTTTTTTTTTTTT>.;;>>>>>.j8@&9),,/:::1111CCCeCf3333}}EE!Htt       ",
"        ttHhEE}}3333sr]].>>;>5$TTTTTTTTTTTTTTTTTTTTTj9&@@*@*@r+.;H2),,(:::1111CCeCef3333}}EE!Htt       ",
"        ttH!EE}^3333qHss$####$#TTTTTTTTTTTTTTTTTTTTT*SSSSSSSSSxxxxj),,_:::1111CCeeef3333^}EEhHtt       ",
"        ttHhEE^}3333xxww8II2+>HTTTTTTTTTTTTTTTTTTTTTkllllllnloSSwx%)((/:::1171CCCCCi4433^}ER!HtG       ",
"        ttHhEE}}3333r'wwqII+I2sTTTTTTTTTTTTTTTTTTTTTkllllllnnloUwx%)((_:::1111C~CCef3333}}EE!HtH       ",
"        ttHBEE}^3333q=''q++vRvsTTTTTTTTTTTTTTTTTTTTTkllllllnllllUw&)((A:::1111CCeCef3333}^EE!HtH       ",
"        ttHBEE}}3333j=''pccvRvHTTTTTTTTTTTTTTTTTTTTTkllllllnnllnoS*D,(_:::1111~CCeef3333^}EE!Htt       ",
"        ttHhh!{^3333E7(/fddvRvHTTTTTTTTTTTTTTTTTTTTTkllllllnnlnlow=-,)_:::1111CCCeCf3333^}EEhHtt       ",
"        ttH!jj9]4333E~::fddvRvHTTTTTTTTTTTTTTTTTTTTTkllllllnnllloS)],,/:::1111CCCeCf3333}}EE!Htt       ",
"        ttHhh!{^3333E7(/fddvRvHTTTTTTTTTTTTTTTTTTTTTkllllllnnlnlow=-,,(:::1111CCeCef3333}}EE!Htt       ",
"        ttH!jj9]4333E~::fddvRvHTTTTTTTTTTTTTTTTTTTTTCllllllnnllloS)],,_:::1111CCeeef3333^}EEhHtt       ",
"        5ts+!I@@]]]afk::fddvRvHTTTTTTTTTTTTTTTTTTTTTkllllllnnllloU'*,)((,,))A/~~CCCpa]]]@@I!+st5       ",
"        >555ss+]9]]]E~::fddvRvHTTTTTTTTTTTTTTTTTTTTTkllllllnnnllnow*,'',''))))*&~Ckq]]]9]+ss555>       ",
"       V8j;>2.2>+!!!Ek::fddvRvHTTTTTTTTTTTTTTTTTTTTTkllllllnnlllnnx&9wwwwwwxxx22222.!!!+>2.2>;j8V      ",
"       8q8r89@**+!I!fk::fddvRvHTTTTTTTTTTTTTTTTTTTTTkllllllnnllllow*G*''''wxx@222222!I!+**@98r8q8      ",
"       8!!h8a8@&&&&=Ek::fddvRvHTTTTTTTTTTTTTTTTTTTTTkllllllnnnllnow=]wwxxxxxww''''''=&&&&@8a8h!!8      ",
"       ;222jBEp4r]]9Ek::fddvRvHTTTTTTTTTTTTTTTTTTTTTkllllllnnllllUwA<,()))))DD=====&9]]r4pEBj222;      ",
"       t;v2!ERi0333|Ek::fddvRvHTTTTTTTTTTTTTTTTTTTTTkllllllnnnlllowDq(A-Fbbb~~kCCeC}|3330iRE!2v;t      ",
"       t;v2!EEi3333}Ek::fddvRvHTTTTTTTTTTTTTTTTTTTTTCllllllnnnlllnS)a(A--7bb~~C~Cee}}3333iEE!2v;t      ",
"       t;v.!EEi0333}EC::fddvRvHTTTTTTTTTTTTTTTTTTTTTkllllllnnnllllS,],D-7bbb~~CCeCe}}3330iEE!.v;t      ",
"       t;v.!EEi0333|EC::fdd;RvHTTTTTTTTTTTTTTTTTTTTTkllllllnnnoollS,],)zFbbb~~CCCee^|3330iEE!.v;t      ",
"       t;v.!EEi0333}EC::fddvRvHTTTTTTTTTTTTTTTTTTTTTkllllllnnnllllS,],D-7bbb~~CCeCe}}3330iEE!.v;t      ",
"       t;v.!EEi0333|EC::fdd;RvHTTTTTTTTTTTTTTTTTTTTTkllllllnnnoollS,],)zFbbb~~CCCee^|3330iEE!.v;t      ",
"       t;v2hEEi0333|EC::icc2I2sTTTTTTTTTTTTTTTTTTTTTknlnnoUSwSwwSUSw&,DzFbbb~~CCCCe}|3330iEEh2v;t      ",
"       H;v.hEBi3333|Bk/(j++2!.sTTTTTTTTTTTTTTTTTTTTTmoo,SwSxxwwwwwww*,DzFbbb~~CCCee}|3333iBEh.v;H      ",
"       5222I!!qrrrr]I9==!++>+;GTTTTTTTTTTTTTTTTTTTTT]='''''''')'''''@)======**@9~{e{]rrrrq!!I2225      ",
"        #$$$G$Hs555;GGs5$####$#TTTTTTTTTTTTTTTTTTTTT!rjjjjjjj!!!!!!!HqI+++++..222>2;;555sH$G$$$#W      "};
