/* XPM */
static char * mario_SG1_xpm[] = {
"32 32 16 1",
" 	c #FF00FF",
".	c #303030",
"+	c #B86800",
"@	c #F83050",
"#	c #D80028",
"$	c #F0A070",
"%	c #885840",
"&	c #B00000",
"*	c #F07868",
"=	c #F8C890",
"-	c #F8F8F8",
";	c #60A8E0",
">	c #5088B8",
",	c #406090",
"'	c #F0D848",
")	c #E89048",
"                                ",
"                                ",
"                                ",
"                                ",
"            ..   ..             ",
"            .....+.             ",
"           .@@#.+$.             ",
"           .@###%$.             ",
"         ......&&*..            ",
"        .........&&&.           ",
"         ...****..&&.           ",
"           .$.$$*.....          ",
"         ...$.$$*..$$.          ",
"        .===$$$*...$$.          ",
"        .$$$$*.$*.*$*.          ",
"         .***...$***.           ",
"          ....$$**..            ",
"           .*****....           ",
"            ......#&.           ",
"           .---..#@#&.          ",
"          .----=.#@#&.          ",
"          .---==.@##&.          ",
"         ...===.###&....        ",
"         .-;....&&&..%$...      ",
"         .-;;-->...,.$=$+..     ",
"         .>>;;>>>,,,..$++=..    ",
"          .>>>>>>>,,. .%$==..   ",
"          .,,,,,,,,,.  .$$++.   ",
"           .........    .%%%.   ",
"             .'))++.    .%%..   ",
"            .'))+++.     ...    ",
"            ........            "};
