/* XPM */
static char * mario_SG3_xpm[] = {
"32 32 16 1",
" 	c #FF00FF",
".	c #303030",
"+	c #B86800",
"@	c #F07868",
"#	c #885840",
"$	c #F83050",
"%	c #F0A070",
"&	c #D80028",
"*	c #B00000",
"=	c #F8C890",
"-	c #F8F8F8",
";	c #5088B8",
">	c #60A8E0",
",	c #E89048",
"'	c #F0D848",
")	c #406090",
"                                ",
"                                ",
"                                ",
"                                ",
"          ..      ...           ",
"          .+.... .+@.           ",
"          .#.$$$.+@%.           ",
"           .$$&&&#@%.           ",
"          ......&&@@.           ",
"         ........***.           ",
"         ..@@@@@@..*.           ",
"          .%.%.%%@....          ",
"          .%.%.%%@..%.          ",
"         .===%%%@...%%.         ",
"         .%%%@@.%@.@%@.         ",
"        ...@@....%@@@.          ",
"          .....%%@@..           ",
"           .@@@@@...            ",
"        .. ......&&&.           ",
"       .-=..$&..&$$&*.          ",
"       .-..$&*.;...$&*.         ",
"       .=.&&*.;.---.**.         ",
"        .....>.----=.*.         ",
"        ..>>--.---==.....       ",
"       .,'.>--;.===..%%+..      ",
"       .+,'.;;;;...++.%++..     ",
"       .++,.)));;;).+..+==..    ",
"       .++,....)))).,+.%%++.    ",
"       ..+,.   ...).,+..#+#.    ",
"        ...       ..,+..##..    ",
"                    ..  ...     ",
"                                "};
