/* XPM */
static char * Piranha6_xpm[] = {
"32 32 131 2",
"  	c #FF00FF",
". 	c #B5A0B4",
"+ 	c #C3C9BD",
"@ 	c #AA91A9",
"# 	c #88694A",
"$ 	c #76763B",
"% 	c #8E5A57",
"& 	c #BAB7BB",
"* 	c #C6CDC5",
"= 	c #977696",
"- 	c #B267B1",
"; 	c #E6F2E5",
"> 	c #EAF8ED",
", 	c #E8F2E7",
"' 	c #98A47D",
") 	c #90AB2B",
"! 	c #906B50",
"~ 	c #7A892E",
"{ 	c #EAF4EA",
"] 	c #D6E3D5",
"^ 	c #9A389A",
"/ 	c #B37BB2",
"( 	c #CED8CD",
"_ 	c #878F76",
": 	c #E7F3E9",
"< 	c #DAE5DA",
"[ 	c #BEC2BE",
"} 	c #A9AFAA",
"| 	c #9E837D",
"1 	c #ADB8A5",
"2 	c #86972C",
"3 	c #7B8454",
"4 	c #E8E3D9",
"5 	c #D2DCD2",
"6 	c #733C3B",
"7 	c #A2081C",
"8 	c #B21A19",
"9 	c #BAACA5",
"0 	c #818133",
"a 	c #BA0C0A",
"b 	c #9B071C",
"c 	c #CC0B07",
"d 	c #D60A0A",
"e 	c #A44542",
"f 	c #999D8E",
"g 	c #8D3177",
"h 	c #A33230",
"i 	c #D90C0C",
"j 	c #9A0357",
"k 	c #BC1111",
"l 	c #B19690",
"m 	c #C10D0D",
"n 	c #D92221",
"o 	c #B71514",
"p 	c #D50707",
"q 	c #A34D49",
"r 	c #E6EEE4",
"s 	c #AA79AA",
"t 	c #DD5A57",
"u 	c #E8C9C1",
"v 	c #C4BFB9",
"w 	c #CD9B94",
"x 	c #E3A49D",
"y 	c #D94844",
"z 	c #B69BB5",
"A 	c #AA8BA9",
"B 	c #DA2D2C",
"C 	c #E8D4CB",
"D 	c #E8DFD6",
"E 	c #C2C5C2",
"F 	c #A98782",
"G 	c #E6BBB3",
"H 	c #D91616",
"I 	c #B4A29C",
"J 	c #AD1D1D",
"K 	c #DC3634",
"L 	c #E5C0B8",
"M 	c #A53CA5",
"N 	c #E29B95",
"O 	c #A52A40",
"P 	c #D81716",
"Q 	c #D19F95",
"R 	c #E7DED3",
"S 	c #990B28",
"T 	c #A74751",
"U 	c #E17973",
"V 	c #A40715",
"W 	c #DE625F",
"X 	c #E18A85",
"Y 	c #CC1412",
"Z 	c #C9130F",
"` 	c #A88393",
" .	c #982218",
"..	c #961309",
"+.	c #9E053D",
"@.	c #A40271",
"#.	c #0B6415",
"$.	c #026B0D",
"%.	c #0C6B17",
"&.	c #067513",
"*.	c #1C5C27",
"=.	c #633269",
"-.	c #166420",
";.	c #097216",
">.	c #424549",
",.	c #0E6B1A",
"'.	c #4C4053",
").	c #196224",
"!.	c #55385B",
"~.	c #86218A",
"{.	c #8A228E",
"].	c #00830D",
"^.	c #028911",
"/.	c #00890E",
"(.	c #522555",
"_.	c #047C11",
":.	c #13651E",
"<.	c #02740E",
"[.	c #02640D",
"}.	c #017C0E",
"|.	c #015D0C",
"1.	c #028410",
"2.	c #2D4E35",
"3.	c #8E1A90",
"4.	c #752479",
"5.	c #433D49",
"6.	c #33423A",
"7.	c #3B3C42",
"8.	c #652A6A",
"9.	c #841A87",
"0.	c #65276A",
"                                                                ",
"                                                                ",
"                . + @   # $         # %   & * =                 ",
"              - ; > , ' ) %         ! ~ + { > ] ^               ",
"              / , , > ( ~             _ > : { < ^               ",
"                < , , , =             [ { : { }                 ",
"                | , , > 1 ~ 2     2 3 4 { { 5 6                 ",
"              7 8 9 > > ] 3 #     0 ' > , { | a b               ",
"              c d e < { { f       g 1 { { 5 h i c j             ",
"            7 i i k l { { 5         5 { { l m i n h             ",
"            o i d p q r { , .     s , , < e p t u v             ",
"            w x y i k 9 , , r z A < { > 9 k B C > 5             ",
"            5 > D y p e 5 > : { , { { < q p t , { (             ",
"            E { > x i m F { : { , , { F a d t r { E             ",
"            @ , > G H d 8 I { { > { 9 J K H n L > @             ",
"            M ] > N i i i J F E + | O x 4 N P K Q M             ",
"              @ R y p p p d m 8 k c N { > G P p S               ",
"                T i d B t y i d i B D > { U i V                 ",
"                  b y C { 4 W d d P X G U Y b                   ",
"                      & < > G H i i i Z V j                     ",
"                          s `  ...b +.@.                        ",
"                              #.$.                              ",
"                              %.&.                              ",
"                              *.%.                              ",
"              =.-.;.%.-.>.    *.,.    '.).;.;.-.!.              ",
"      ~.{.!.-.].^.^.^.^./.,.(.;._.(.:./.^.].^.^./.,.'.{.~.      ",
"      $.]./.^.^.<.$.[.$.$.}.|.^.^.|.}.$.$.$.$.<.1.^./.].}.      ",
"      2./.^.1.<.&._.^.1.}.[.[.].^.[.|.&.1.^.1.<.<._.^./.*.      ",
"      3.}.].^.^.^.^.^.^.^.<.$.^.^.$.&.^.^.^.^.^.^.^.^.}.4.      ",
"        !.}./.^.^.^.^.^./.$.[.^.^.$.|./.^.^.^.^.^./.].5.        ",
"          4.-._.].]._.#.6.    -.:.    7.:.<.].].}.:.8.          ",
"              9.0.0.9.                    9.0.8.9.              "};
