/* XPM */
static char * Piranha1_xpm[] = {
"32 32 127 2",
"  	c #FF00FF",
". 	c #A152A1",
"+ 	c #A478A4",
"@ 	c #B3A3B3",
"# 	c #AD9690",
"$ 	c #856684",
"% 	c #DCE5DB",
"& 	c #EAF4EA",
"* 	c #B0B1AF",
"= 	c #C1C5C0",
"- 	c #EEF9EE",
"; 	c #C3CBC2",
"> 	c #B3BAB2",
", 	c #D4DED5",
"' 	c #9B5E99",
") 	c #E6F1E6",
"! 	c #A1A89F",
"~ 	c #CDD5CC",
"{ 	c #E6F3E9",
"] 	c #D8E4D7",
"^ 	c #773652",
"/ 	c #85042C",
"( 	c #A38A84",
"_ 	c #BFC8B3",
": 	c #757E5C",
"< 	c #982623",
"[ 	c #BF0907",
"} 	c #98062D",
"| 	c #AA1312",
"1 	c #BB0B0A",
"2 	c #B5A49D",
"3 	c #EEF9F0",
"4 	c #B0B99E",
"5 	c #818B6A",
"6 	c #D90C0C",
"7 	c #D60B0B",
"8 	c #A40815",
"9 	c #C40A0A",
"0 	c #E3EEE4",
"a 	c #8A917A",
"b 	c #828974",
"c 	c #976E5C",
"d 	c #C60708",
"e 	c #960635",
"f 	c #CC0909",
"g 	c #7B8D28",
"h 	c #9AA47E",
"i 	c #933432",
"j 	c #950638",
"k 	c #B60C09",
"l 	c #D00708",
"m 	c #A47B76",
"n 	c #616D45",
"o 	c #909977",
"p 	c #B8B8B0",
"q 	c #46271B",
"r 	c #A15B57",
"s 	c #959B92",
"t 	c #DA1818",
"u 	c #CB4845",
"v 	c #30481B",
"w 	c #5D3F64",
"x 	c #017B0F",
"y 	c #83210D",
"z 	c #A4302E",
"A 	c #975B57",
"B 	c #DB2121",
"C 	c #E29994",
"D 	c #7D9A7B",
"E 	c #028911",
"F 	c #324C3B",
"G 	c #10701D",
"H 	c #16681B",
"I 	c #DA4443",
"J 	c #B61514",
"K 	c #B7ACA5",
"L 	c #8E514E",
"M 	c #D26966",
"N 	c #7EA182",
"O 	c #0A7817",
"P 	c #037D11",
"Q 	c #76287A",
"R 	c #00890D",
"S 	c #98180C",
"T 	c #3F5F27",
"U 	c #018310",
"V 	c #02730D",
"W 	c #494150",
"X 	c #00850E",
"Y 	c #01690D",
"Z 	c #1C5E0E",
"` 	c #77230A",
" .	c #57320A",
"..	c #0B6F0E",
"+.	c #45434C",
"@.	c #01640C",
"#.	c #9B1E1D",
"$.	c #B09F99",
"%.	c #AD0F0E",
"&.	c #384B40",
"*.	c #66316B",
"=.	c #662708",
"-.	c #B75854",
";.	c #AC6864",
">.	c #A83C36",
",.	c #5A542C",
"'.	c #097515",
").	c #18610D",
"!.	c #187724",
"~.	c #0B6E17",
"{.	c #57385D",
"].	c #B4645B",
"^.	c #117D20",
"/.	c #C42422",
"(.	c #265515",
"_.	c #4B3B52",
":.	c #005E0B",
"<.	c #587D5C",
"[.	c #DDDACF",
"}.	c #DA3835",
"|.	c #7C1507",
"1.	c #0D4A0A",
"2.	c #453C4C",
"3.	c #115D1B",
"4.	c #085E12",
"5.	c #9D6897",
"6.	c #9D1F45",
"                                                                ",
"                                                                ",
"                                                                ",
"                                                                ",
"                                                                ",
"                                                                ",
"                                                                ",
"                                                                ",
"                                                                ",
"                                                                ",
"                                                                ",
"                                . +                             ",
"                          @ # $ % & *                           ",
"                        = - ; > & & ,                           ",
"                      ' ) ) ! ~ & { ] ^                         ",
"                    / ( - _ : % & { ~ < [ }                     ",
"                  | 1 2 3 4 5 ) & & 2 | 6 7 8                   ",
"                8 6 9 2 0 a b & & ) c d 6 6 6 8                 ",
"              e f 6 9 ( 5 g h & { ] i 7 6 6 7 7 j               ",
"              k 6 6 l m 4 n o & & p | 6 7 7 7 6 k               ",
"            q f 6 7 7 r 0 ; s 0 & ( [ 6 7 6 7 t u v             ",
"          w x y t 7 7 z , & p 0 { A f 7 6 7 B C D E F           ",
"          G E H c I 6 J K & = % 0 L f 7 6 6 M N O E P           ",
"        Q R E P O n J l A 0 0 ) { A f 7 7 S T U V E R           ",
"        W R X Y x X Z ` | # { { ) m 9 J  ...E V Y E R F         ",
"        +.R E U @.V E V  .#.$.0 & a %. .U U Y Y E E R &.        ",
"        *.X E E E ..@.P P =.J -.;.>.,.E x @.x E E E U           ",
"          '.E E E E P @.P ).k 7 7 u !.x @.P E E E E ~.          ",
"          {.X E E E E x Y O >.6 t ].^.@.P E E E E P             ",
"            F X E E E E Y G $.B 7 /.(.@.E E E E x               ",
"              _...R R X :.<.[.}.7 7 |.1.X X x H                 ",
"                  2.3.4.    5.6.} j     2.2.                    "};
