/* XPM */
static char * piece1_xpm[] = {
"32 32 174 2",
"  	c #FF00FF",
". 	c #F2E6C9",
"+ 	c #D5AA44",
"@ 	c #C38C03",
"# 	c #F7EFD8",
"$ 	c #F6EBC8",
"% 	c #ECD897",
"& 	c #DAB334",
"* 	c #D19D0B",
"= 	c #CE9F11",
"- 	c #D9AF26",
"; 	c #D3A21D",
"> 	c #E4BF48",
", 	c #F2DD9F",
"' 	c #F8EEC6",
") 	c #E4C979",
"! 	c #DDB848",
"~ 	c #E7C13D",
"{ 	c #E7B81E",
"] 	c #E9C642",
"^ 	c #ECCC50",
"/ 	c #F3CF51",
"( 	c #EFCA4E",
"_ 	c #E9C44B",
": 	c #D7AE3B",
"< 	c #D6BB6E",
"[ 	c #F3EAD5",
"} 	c #DEB738",
"| 	c #DBAA0C",
"1 	c #E6B71B",
"2 	c #E9BF25",
"3 	c #EAC435",
"4 	c #F5D248",
"5 	c #F9DD5A",
"6 	c #F9E26B",
"7 	c #F8DE64",
"8 	c #F8E373",
"9 	c #F5DA5C",
"0 	c #F2CF3C",
"a 	c #E6B914",
"b 	c #C99605",
"c 	c #C79F30",
"d 	c #E1CC90",
"e 	c #EEC31A",
"f 	c #EDC323",
"g 	c #F5E17F",
"h 	c #F5E282",
"i 	c #F6E06E",
"j 	c #F8E067",
"k 	c #DFB316",
"l 	c #D4A40D",
"m 	c #CAA12C",
"n 	c #E2B312",
"o 	c #F1C924",
"p 	c #FADA43",
"q 	c #F8E88C",
"r 	c #F8EFAC",
"s 	c #F8EEA5",
"t 	c #F3D75A",
"u 	c #F9DB54",
"v 	c #F7DA55",
"w 	c #D9A70B",
"x 	c #E8BD1D",
"y 	c #F5D444",
"z 	c #F8F0AF",
"A 	c #F4CD2C",
"B 	c #F8D73D",
"C 	c #F0C62B",
"D 	c #F1E7D2",
"E 	c #F4E9C6",
"F 	c #DDB746",
"G 	c #F8F1B2",
"H 	c #F2E28E",
"I 	c #F0C118",
"J 	c #F2CA34",
"K 	c #F7DD64",
"L 	c #E9BA14",
"M 	c #C7A23A",
"N 	c #EEE3C5",
"O 	c #F8EA94",
"P 	c #F8EB9B",
"Q 	c #F2D967",
"R 	c #E7BF3B",
"S 	c #FBE984",
"T 	c #F5CA1C",
"U 	c #BD8A02",
"V 	c #EAD495",
"W 	c #F4D552",
"X 	c #F8E47B",
"Y 	c #F9F1BC",
"Z 	c #F8E683",
"` 	c #E2B721",
" .	c #E3BC36",
"..	c #EFDE8C",
"+.	c #FAD735",
"@.	c #F9D01F",
"#.	c #EEC217",
"$.	c #CB9C06",
"%.	c #DFCA94",
"&.	c #ECE6D5",
"*.	c #D1B16F",
"=.	c #F9F3D6",
"-.	c #F9F1CB",
";.	c #EFD150",
">.	c #D9AC1A",
",.	c #F9DA4A",
"'.	c #F7D12B",
").	c #D7A812",
"!.	c #C59914",
"~.	c #C3962C",
"{.	c #EBDEC3",
"].	c #C2973C",
"^.	c #ECCB43",
"/.	c #EED97E",
"(.	c #B67E02",
"_.	c #DBAB11",
":.	c #DDB42B",
"<.	c #EED362",
"[.	c #B58401",
"}.	c #F9D32C",
"|.	c #F7D43C",
"1.	c #F4C81A",
"2.	c #F9D223",
"3.	c #F8D536",
"4.	c #E3B20C",
"5.	c #C6950A",
"6.	c #AD7D01",
"7.	c #BA9440",
"8.	c #D2A210",
"9.	c #A87600",
"0.	c #B69340",
"a.	c #BA8401",
"b.	c #E6C24B",
"c.	c #C9950B",
"d.	c #E5DBC3",
"e.	c #C29840",
"f.	c #A67400",
"g.	c #E0AF0B",
"h.	c #F2E7C6",
"i.	c #9B6D00",
"j.	c #AC8E40",
"k.	c #E4C144",
"l.	c #F2E6B8",
"m.	c #C59405",
"n.	c #D6A507",
"o.	c #F5E79B",
"p.	c #CD9C0D",
"q.	c #D09D07",
"r.	c #F2DE7F",
"s.	c #A57509",
"t.	c #956900",
"u.	c #AB8C3D",
"v.	c #926700",
"w.	c #C59514",
"x.	c #D5AA1F",
"y.	c #ECC429",
"z.	c #A97E08",
"A.	c #BFA96F",
"B.	c #DEC691",
"C.	c #A88529",
"D.	c #D0BE90",
"E.	c #CFA00D",
"F.	c #9F7400",
"G.	c #C8A43D",
"H.	c #CCA232",
"I.	c #CEA118",
"J.	c #AF830F",
"K.	c #B48E30",
"L.	c #C0AA70",
"M.	c #BE9732",
"N.	c #AC892F",
"O.	c #D5C294",
"P.	c #B5913F",
"Q.	c #8C6400",
"                      . + @ @ @ @ @ @ + .                       ",
"                # $ $ % & * = - ; ; ; > , ' . .                 ",
"              # ) ! ! ~ { { ] ^ ^ / ( ( / _ : < [               ",
"            # % } | 1 2 3 4 5 6 7 8 7 9 0 a b c d [             ",
"          # ) } e f 0 9 g h i 6 8 7 6 j 5 0 k l m < [           ",
"        # % } n o p 6 q r s q i 9 t u 5 j v f w b m d [         ",
"      [ ) } x o y j q s z z s h ] 2 A B 5 t C a w l m < D       ",
"      E F | f p 6 q r G G G G H _ x I J K K J I L | @ M N       ",
"      E > k 0 6 O s z G G G G P Q 0 x R h S B T T a U M N       ",
"    [ V R f W X O s r z s r Y z Z W `  ...O u +.@.#.$.m %.[     ",
"  &.*.m x A v 8 8 q s s S O =.-.q ;.>. ...s 8 ,.'.e ).!.~.*.D   ",
"  {.].@ a +.5 7 5 i P P 6 X =.=.Z ^.>.& /.O 7 ,.'.e k b (.].{.  ",
"  {.].U n +.5 5 B u O O ,.K -.-.7 o _.:.<.7 ,.'.T #.n * [.].{.  ",
"  {.].U a }.,.,.'.B Z X |.W ' ' u L w - 4 ,.'.1.x L n $.(.].{.  ",
"  {.].@ a 2.}.}.@.3.j K A / E -.u #.).>.A }.o L L 4.).5.6.7.{.  ",
"  {.].@ a 2.@.T T A y y f ( E ' u #._.).L @.L a n | 8.@ 9.0.{.  ",
"  {.].a.L 2.@.L L x f f a b.E -.5 #.>.).x L L n w = c.@ 9.0.d.  ",
"  {.e.@ n @.L L n 4.L L 4.b.E -.u #.l l n L n _.8.* c.a.f.0.d.  ",
"  {.e.@ n L L n g.n n 4.| _ h.-.v #.$.5.| n ).8.= = c.a.i.j.d.  ",
"  {.e.@ g.L n _.g._._.| 4.k.l.Y u L m.U * _.l = = * c.a.i.j.d.  ",
"  {.e.(.n.n n | ).8.8.w | ~ o.P ,.a @ [.!.).= l = p.m.(.i.j.d.  ",
"  {.].(.q.n n n 8.= = l ). .r.S p a @ [.c.= 8.= = p.U s.t.u.d.  ",
"  {.].(.c._.a a ).= = * l :.Q j +.x U [.c.8.= = 8.c.U s.v.u.d.  ",
"  D *.~.w.* n a _.8.= 8.p.x.~ ^.y._.U a.c.8.).8.p.5.z.s.s.A.&.  ",
"    [ B.~.@ w n 4.).8.8.= = !.!.w.U [.U p.l | w 5.[.i.C.D.&.    ",
"      D *.~.= n.| k ).l 8.$.m.a.(.[.U m.p.).).E.[.z.C.A.&.      ",
"        D B.~.@ w 4.k | _.l $.c.5.5.5.8.| ).$.[.F.C.D.&.        ",
"          D *.~.E.n.n.| k n k >.).8.E.$.E.b [.z.C.A.&.          ",
"            [ d m U U $.| L e e a ).m.U [.9.t.C.D.&.            ",
"              [ < M G.H.I.l k k 8.5.[.J.K.0.u.L.&.              ",
"                &.N N %.M.[.[.J.J.F.i.N.O.d.d.&.                ",
"                      N P.t.t.i.Q.Q.Q.u.d.                      "};
