/* XPM */
static char *a268a9beff30434589827e8d1a619b6bFwWIyYCFPH1o8jwc[] = {
/* columns rows colors chars-per-pixel */
"32 32 123 2 ",
"   c #5D1500",
".  c #641C02",
"X  c #6E2402",
"o  c #722905",
"O  c #762E08",
"+  c #7B3207",
"@  c #7B3308",
"#  c #853B06",
"$  c #893E06",
"%  c #843C08",
"&  c #8D4307",
"*  c #874008",
"=  c #8D4409",
"-  c #914606",
";  c #944A06",
":  c #9A4E05",
">  c #934608",
",  c #954C09",
"<  c #9B4D08",
"1  c #9C5006",
"2  c #9A530B",
"3  c #A35503",
"4  c #A85705",
"5  c #A65902",
"6  c #AD5D01",
"7  c #A05108",
"8  c #A25A0A",
"9  c #AC5D09",
"0  c #B05F00",
"q  c #AF6104",
"w  c #AE630B",
"e  c #B26200",
"r  c #B86700",
"t  c #B66803",
"y  c #BB6C02",
"u  c #B26709",
"i  c #B46B0D",
"p  c #BA6F09",
"a  c #BE7103",
"s  c #BC720B",
"d  c #A36013",
"f  c #AE6711",
"g  c #B16811",
"h  c #BC7513",
"j  c #BF7914",
"k  c #B6771B",
"l  c #BE7D19",
"z  c #C06F00",
"x  c #C27301",
"c  c #C87700",
"v  c #CC7C01",
"b  c #C0770C",
"n  c #C37A0C",
"m  c #C87D09",
"M  c #C47E13",
"N  c #CF8103",
"B  c #CF840B",
"V  c #D18406",
"C  c #D38606",
"Z  c #D68907",
"A  c #D0860C",
"S  c #D58A0A",
"D  c #D88F0E",
"F  c #D9900E",
"G  c #CB8413",
"H  c #C88214",
"J  c #C98317",
"K  c #CD8914",
"L  c #C38319",
"P  c #C4841A",
"I  c #C5871D",
"U  c #CF8E1A",
"Y  c #CB881D",
"T  c #D08910",
"R  c #D18A11",
"E  c #D38D11",
"W  c #D38E15",
"Q  c #D28F19",
"!  c #D08F1A",
"~  c #CE901F",
"^  c #D69214",
"/  c #D79315",
"(  c #D59217",
")  c #D99414",
"_  c #DC9817",
"`  c #D8981B",
"'  c #DA9A1D",
"]  c #C68A27",
"[  c #CE9220",
"{  c #CD9328",
"}  c #CB932C",
"|  c #D19624",
" . c #D09627",
".. c #D19727",
"X. c #D49924",
"o. c #D59A24",
"O. c #D99F27",
"+. c #D39C2B",
"@. c #D59F30",
"#. c #D49D32",
"$. c #D39F37",
"%. c #DAA126",
"&. c #DAA32A",
"*. c #DDA72C",
"=. c #DFA92D",
"-. c #D4A037",
";. c #D4A137",
":. c #D7A337",
">. c #DEAD34",
",. c #D6A33A",
"<. c #D5A33D",
"1. c #D5A43E",
"2. c #D6A53E",
"3. c #D9A73D",
"4. c #D9A83D",
"5. c #E0AF35",
"6. c #E0B23C",
"7. c #DBAB49",
"8. c #DCAF48",
"9. c #DCB14E",
"0. c #E2B848",
"q. c #E2BB5B",
"w. c #E9CA6C",
/* pixels */
"x y z z z y z y e 6 6 6 6 4 8 4 6 6 6 6 6 6 6 5 3 : 7 7 7 < & $ ",
"x x J Y J J M M M h s p y r 7 7 u s h h h h h h g u 9 9 4 : $ % ",
"z J 7.q.7.3.4.3.1.;.{ U K s 2 2 l ..$.1.,.<.1.;.{ Y J b t < $ @ ",
"y Y q.w.9.1.1.3.1.;...Q R s : 2 L O.:.1.7.3.1.;. .Q R m t < # o ",
"y G 7.8.] h h h h h s s p q ; : b A M h h h h h s p y t 4 > o . ",
"y M 7.1.h 6 6 6 6 0 0 0 q 5 - 1 x c r 6 6 6 6 0 0 0 6 4 7 $ o . ",
"e M 3.1.h 6 0 0 6 6 6 q q 3 = 1 a c r 0 0 6 6 6 0 4 4 < > # + o ",
"6 s #.#.h 0 0 0 e e e q 6 3 = 1 y c r e e e e e e 4 3 < > $ # + ",
"6 s W Q p q q q e e e 6 4 < = : t x r q 6 e q q 4 3 7 7 3 : # O ",
"4 e s s q 5 3 5 5 3 3 3 < ; * - 5 q 4 5 3 5 5 1 < < 7 5 0 3 # O ",
"8 7 1 2 - - - = - = # # * * * * - ; ; & * $ & - & , 3 6 e 3 # O ",
"< < 2 2 2 : 1 1 : - @ # - 1 1 1 ; ; - & @ % & ; : 7 i s y 5 $ O ",
"& 2 k P b x x y t 5 & - q x x y t e 5 1 & & 5 t y n ~ X.W s $ O ",
"% 2 I ` A c c c x q ; 1 y v v c x r r 5 - ; t v C / *.*.( s = O ",
"% 2 P E x r r r r 5 - ; q t r r r r e 5 & 1 y C / %.&.X.n 4 # O ",
"% 2 M A y 6 e q e 3 - - 5 q q q 6 q e 5 ; 5 s / X.%.%.U s 3 # O ",
"* 2 n A y 6 e 6 e 5 - - 3 6 e 6 6 e 6 6 5 u K o.%.%.` A a 3 % O ",
"# 2 H A y e 6 q 6 5 - - 5 e e e q e r r q s ~ &.%.` ) A y 1 % O ",
"# 2 J A y e q q 4 1 = - 4 e e e 6 r x x t p ~ O.` ) ) B y 1 % O ",
"& 2 i s q 4 5 3 < , # & 1 5 3 5 4 r x a q q L U A B B n e : # O ",
"< < 1 2 ; - - - = # # @ & & # & 3 r t q : : w p y t y q 1 & + O ",
": < , 2 ; ; ; ; ; ; & & = & $ - w h s g d 8 u s p p y q 1 & @ O ",
"& 1 i n p e e e r e q 6 5 3 3 f } ,.#.+.} } ~ ~ [ U R n q : # O ",
"% 2 n S c y a y y y y y r r 0 h 1.0.6.>.5.5.*.&.%.o.) A y 3 # O ",
"* 1 s N a r e r r e e r c x r h ;.6.5.&.&.=.&.%.` ) ) B y 3 # O ",
"* : y c t 6 q 6 6 q r y v v t s +.>.&.%.&.%.X.` ) F D B y 3 # O ",
"% ; t a r e e 6 q r a N S B r s +.5.=.%.&.X._ ) ^ D C v y 1 # O ",
"* , q r 6 6 6 6 r a N C A m q i ..=.%.X.%.` F F D Z v x e : # O ",
"$ > 7 9 4 3 3 4 a N D S x q 1 d K _ _ ) _ ) ) F Z v a q 1 & + O ",
"% $ $ $ & > > 7 q a s s q : * , u j j j b j j s a t 4 ; & + @ + ",
"@ @ o X X o # # & & = & # @ + @ & - - - = = = & & & & # @ @ @ O ",
"O o .     . X O O O O O O @ O O O o O O O O O O O O O O O O @ O "
};
