/* XPM */
static char *b8b62be24c8846c7f2aa3c54203c26b9nxEPXC5eEkX58yLm[] = {
/* columns rows colors chars-per-pixel */
"32 32 149 2 ",
"   c #570F08",
".  c #5C1406",
"X  c #5C1408",
"o  c #621A04",
"O  c #621A08",
"+  c #691F08",
"@  c #6C2405",
"#  c #6F2708",
"$  c #6F2808",
"%  c #772F06",
"&  c #742D08",
"*  c #7B3206",
"=  c #7A3208",
"-  c #833A07",
";  c #883E06",
":  c #803708",
">  c #833908",
",  c #8C3E08",
"<  c #8C4206",
"1  c #874008",
"2  c #8D4309",
"3  c #914706",
"4  c #944A05",
"5  c #994E06",
"6  c #924508",
"7  c #954908",
"8  c #9B4D08",
"9  c #9E5105",
"0  c #9B510A",
"q  c #995612",
"w  c #9B5913",
"e  c #9C5C1A",
"r  c #A45505",
"t  c #A85704",
"y  c #A65801",
"u  c #AD5D01",
"i  c #A25208",
"p  c #A15B0E",
"a  c #B05F00",
"s  c #AE6104",
"d  c #AE640A",
"f  c #B36301",
"g  c #B86701",
"h  c #B76903",
"j  c #BB6C02",
"k  c #B1670A",
"l  c #B26A0C",
"z  c #B96E09",
"x  c #BF7002",
"c  c #BB720C",
"v  c #A36013",
"b  c #A5651C",
"n  c #B06811",
"m  c #BC7513",
"M  c #BF7914",
"N  c #B6741A",
"B  c #BA761A",
"V  c #BE7A1A",
"C  c #C06F00",
"Z  c #C37301",
"A  c #C67906",
"S  c #CA7C04",
"D  c #C1770B",
"F  c #C3790B",
"G  c #C87D08",
"H  c #C47E13",
"J  c #CD8007",
"K  c #CE840C",
"L  c #D1870E",
"P  c #D68C0C",
"I  c #D88F0D",
"U  c #D9900F",
"Y  c #C48117",
"T  c #CB8513",
"R  c #CE8914",
"E  c #C4851A",
"W  c #C7891D",
"Q  c #CD8D1C",
"!  c #D28F19",
"~  c #CE911E",
"^  c #D59113",
"/  c #DA9515",
"(  c #DB9817",
")  c #D39219",
"_  c #D8971B",
"`  c #D7991C",
"'  c #DA991C",
"]  c #C68B22",
"[  c #C88A20",
"{  c #C88F2E",
"}  c #CE9222",
"|  c #CB942C",
" . c #D19524",
".. c #D69D24",
"X. c #D99E24",
"o. c #D39C2C",
"O. c #CF9830",
"+. c #C99738",
"@. c #D49E33",
"#. c #D09C3B",
"$. c #D9A027",
"%. c #D9A22A",
"&. c #DFA82C",
"*. c #D5A035",
"=. c #DBA631",
"-. c #DEAB34",
";. c #D5A33D",
":. c #D8A73E",
">. c #DDAC3A",
",. c #DFB03B",
"<. c #E0A537",
"1. c #E0B13C",
"2. c #CEA046",
"3. c #D5A541",
"4. c #D7A947",
"5. c #D9AA46",
"6. c #DBAD4A",
"7. c #DFB245",
"8. c #DEB34B",
"9. c #D3A952",
"0. c #DAAE50",
"q. c #DBB151",
"w. c #DDB559",
"e. c #E0AA44",
"r. c #E1B444",
"t. c #E0B54A",
"y. c #E5BC52",
"u. c #E0B55A",
"i. c #E0B65D",
"p. c #E0B75E",
"a. c #E2BB5B",
"s. c #E4BF5B",
"d. c #E7C25B",
"f. c #E6C25C",
"g. c #E9CA6C",
"h. c #ECCB73",
"j. c #EDD079",
"k. c #EFD682",
"l. c #EFD18B",
"z. c #F0D692",
"x. c #F0D694",
"c. c #F1D896",
"v. c #F1D8A4",
"b. c #F1DBA9",
"n. c #F1DCAB",
"m. c #F1E0BD",
"M. c #F1E2C1",
"N. c #F1E4CA",
"B. c #F1E5CC",
/* pixels */
"Z j C C C C C g f u u u a u i d [ %.$.X.X.X.` ` ^ P I I I L j a ",
"C A T W H T H H M m c z z f t n O.e.t.q.u.i.w.u.e.<.&.X.' T f y ",
"j T 6.a.e.:.e.:.3.@. .Q R A f B 0.j.z.b.M.N.N.m.v.l.h.d.=.E p 3 ",
"C W i.g.q.;.;.3.3.*. .) P G j V u.k.c.b.M.B.B.M.b.z.j.d.-.E 0 : ",
"C T 6.8.] m m B m m c D J S j B 5.s.y.q.w.i.w.i.u.8.6.-.X.H 7 % ",
"j H :.;.m a u a u a f C J G f m ;.7.%.X...X.X...X.X.' ' ^ z 2 & ",
"a H ;.;.m u a a s f Z J ^ R h m ;.8.=.$...X.$...X.` _ P G a 2 & ",
"u m @.@.m a a a f x J ^ ' Q z m *.t.=.$.%.%.%.%.%.' ( L A u 2 & ",
"a z ! ! c u s f Z J _ ' ( R j c *.,.=.$.%.%.%.X./ / / L Z y - % ",
"t f D c s y u f Z G E W R A f z Q o.~ ~ ] W Q Q R K K F u 4 * # ",
"r i 8 5 3 4 y f f f p p k f f s z z c k w p k z h h z u 3 % + X ",
"8 8 0 q e v N m m d 5 0 d m m m c c c s 5 9 n M m c j u ; & O   ",
"2 0 N ] +.2.;.;.%.] d n { ;.3.;.*.o.~ Y s n { ;.3.o.K h 4 % O   ",
"> w | 1.7.7.8.7.,.o.c c *.8.8.7.,.&.&.~ z m #.t.6.=.K h 4 = O   ",
"> e 2.d.,.=.=.=.&.} c z | -.-.-.=.&.%.~ z c  .=._ K Z u ; & O   ",
"< b 9.f.>.$.$.$.$.~ z z ) %.......$.$.~ z z R ^ J Z f 9 - & X   ",
"9 N 0.f.>.$.$.$.$.~ z z ~ %.$.$.$.%.$.~ z h G J Z f t 5 - # O   ",
"s V q.f.>.$.$.$.$.Q z z ~ %.%.$.%.%.$.Q c f Z Z f t i 7 - # X   ",
"u V 8.d.>.$.$.$.' L h z ~ %.&.$.$.$.` R z f f f u i 8 8 > # O   ",
"f M #.5.| Q ~ Q L F s d Y ~ W W ~ ) R x u r y r 8 8 5 6 * @ X   ",
"j x m m l z z z h s 5 5 d k w p l z z s < ; < 3 2 2 < > @ o . . ",
"j j m m m m c c c l v v l d 9 5 s h f u 3 < < 3 3 3 3 > @ o . . ",
"f m #.4.=.$.o.o.%.%.O.| } Y d u x Z x h f u y y y y i 6 % @ .   ",
"u V 6.f.,.-.-.-.>.-.-.-.&.~ z h Z S Z j j j f f u t i 7 > # O   ",
"u m 5.y.-.%.=.%.%.%.=.%.%.} z h C Z g f f f f a t r i 8 - # X   ",
"f m *.r.=...$.%.%...%.$.' Q d s j j f a f a a t i i 8 6 * & O   ",
"u m o.1.=...$.$.%.$.$...^ F r 9 f j f f a u t i i 8 7 2 * # X X ",
"u c  .&.%.X.X...X...' ) G s 3 3 u j f u u t i 0 8 7 2 * = @ X   ",
"s z ! ' ( _ / / / / L G t 7 - - 8 t t r r r i 8 6 2 - % @ o .   ",
"y s z M F D D F H c h y 2 % # & > 6 , , , , 2 , * & & @ o .   . ",
"3 3 2 2 7 7 2 3 2 2 % @ O O O O + + + + + + + + @ O o . .     . ",
"; > = & & & & & & # X     X                               .     "
};
