/* XPM */
static char *_e3d335153754208c7b3a009096165f7EiM887zDcAq7bvyC[] = {
/* columns rows colors chars-per-pixel */
"32 32 95 2 ",
"   c #570F08",
".  c #5B1305",
"X  c #5B1308",
"o  c #631B03",
"O  c #621A08",
"+  c #691F08",
"@  c #6C2404",
"#  c #6F2708",
"$  c #6F2808",
"%  c #742B05",
"&  c #722A08",
"*  c #7C3306",
"=  c #7B3408",
"-  c #853B07",
";  c #883E06",
":  c #803708",
">  c #843C08",
",  c #8B3E08",
"<  c #8D4307",
"1  c #874008",
"2  c #8C4208",
"3  c #914606",
"4  c #944A06",
"5  c #9B4E06",
"6  c #924608",
"7  c #964A08",
"8  c #9B4D08",
"9  c #9C5006",
"0  c #9B530B",
"q  c #A45504",
"w  c #A85705",
"e  c #A65802",
"r  c #AD5D01",
"t  c #A25208",
"y  c #AC5D09",
"u  c #B05F00",
"i  c #AE6104",
"p  c #AE620E",
"a  c #B26200",
"s  c #B86701",
"d  c #B66803",
"f  c #BC6C01",
"g  c #B16609",
"h  c #BB6F08",
"j  c #BF7102",
"k  c #BC720B",
"l  c #B16811",
"z  c #BC7513",
"x  c #BF7914",
"c  c #B6771B",
"v  c #BE7D19",
"b  c #C06F00",
"n  c #C27302",
"m  c #C87700",
"M  c #CB7A00",
"N  c #C1770A",
"B  c #C4780B",
"V  c #C57C0D",
"C  c #C87D09",
"Z  c #C37C12",
"A  c #C57F14",
"S  c #CF8409",
"D  c #D0860C",
"F  c #D3880B",
"G  c #CB8413",
"H  c #C88214",
"J  c #C98317",
"K  c #C38319",
"L  c #C4841A",
"P  c #C5871D",
"I  c #CB881D",
"U  c #D18A11",
"Y  c #D38D11",
"T  c #D28E18",
"R  c #D0901A",
"E  c #D8981B",
"W  c #C68A27",
"Q  c #CD9328",
"!  c #D09627",
"~  c #D19727",
"^  c #D99F27",
"/  c #D49D32",
"(  c #D59E33",
")  c #D39F37",
"_  c #D4A037",
"`  c #D4A137",
"'  c #D5A43E",
"]  c #D6A53F",
"[  c #D9A73D",
"{  c #DBAB49",
"}  c #DCAE48",
"|  c #DCAF48",
" . c #DCB14E",
".. c #E2BB5B",
"X. c #E9CA6C",
/* pixels */
"n f b b b b b s a r r r r r q t r i i r r r u e t 8 8 t t 8 < , ",
"b B J I J A J A x z k h k a t t g k z z z z z z l g p y q 8 2 > ",
"b J { ..} [ [ [ ` ) Q T S k 0 0 v ! ` { ' ' ' ) Q I G B s q ; = ",
"f I ..X. .' ' ' { ` ! T U k 9 0 L ^ ` ` ' { ' ` ! T U C s 9 * # ",
"f H } } W z z z x z k h k i 3 0 k F A z z x z z h h h s w 4 % o ",
"f A { ' z r r u r u r a i e 3 5 j M s r r r u r u u r e 9 , @ . ",
"a Z [ ' z r u r r r r i i e 3 9 j M d r r r a u u r w 8 4 : o . ",
"r z ( ( z u u u a a a r r e < 9 f M d r a a a u u w q 8 2 * O   ",
"r h T T k i i i i a a r w 9 2 7 d n s a a i a i w t t 8 6 = O   ",
"r a N k i e e e e e q q 8 7 1 4 e i e e e e e 9 8 8 7 7 1 = O   ",
"q 0 8 8 3 3 3 < 4 < - - 1 1 1 > 4 4 4 < ; ; < 3 2 2 2 1 : & X X ",
"8 8 0 0 0 5 9 9 5 < : : 3 9 9 9 4 4 4 < = * 3 9 9 9 7 4 > $ O   ",
"2 0 c L N f j s d e < < a n n f d a e 9 1 4 i j n f s e 2 % O X ",
"> 0 P E D M M M n i 4 5 f M M m n s s e < 5 f M M M n i 4 = O   ",
"1 0 L Y n s s s s e 4 4 i d s s s a a e 4 4 i s s s s e 2 & X X ",
"1 0 A D h r r a i e 3 3 e i a i a u a e 4 < e a a i r q - $ X   ",
"1 0 V D f r i i r e 3 3 e r a u r u a e 4 3 e a i r w 8 - # O   ",
"; 0 V D h u a i r e 3 3 e a a a a a r q < 3 e i u e t 7 - # X   ",
"; 0 A D f a i r w 9 < 4 e a i i a r w 5 < 4 e r e q t 7 - $ O   ",
"1 0 k k r e e e 5 7 ; 2 9 e e e e q 5 4 ; < 9 e 5 8 8 6 * + X   ",
"8 9 0 7 4 3 3 3 2 ; = > < < 1 1 2 3 2 1 = > < 3 6 2 6 - @ o .   ",
"8 8 0 9 7 7 4 4 7 4 < < < < = - 3 5 7 4 < < < 4 3 3 , - @ o .   ",
"2 9 l V h i a a d a i r r 9 1 4 a j d a i r e e e e 8 6 * + O   ",
"> 0 V F m f j f f f j s a e 3 9 j M j f f f a a r w q 4 - # O   ",
"1 9 j S f s a s s a s s a e < 7 s n s a a s a a e q t 7 > $ O   ",
"- 0 f m d i r i a u r u e e 4 7 a f s a a u r w t 8 8 6 - $ O   ",
"1 4 d j s r a a u a a u w 5 6 7 a j s u u r w t t 8 7 , : $ X   ",
"1 4 i d a r r r r r r w t 4 , < i s a r r e t t 8 7 2 : % @ X   ",
", 3 t r q q w t w w t t 6 , : , 9 w w w w q t 8 6 , > % @ o .   ",
"- ; , , 3 , , , , 2 , , = = $ & > 2 , , , , , , : = & + o . .   ",
"* % % @ @ + # + + + + O O O O O + + + + + + + + O O O O . .     ",
"= % o . o o               X                                   X "
};
