/* XPM */
static char *result[] = {
/* columns rows colors chars-per-pixel */
"32 32 179 2 ",
"   c #5A7D0A",
".  c #7C7E0C",
"X  c #807A0D",
"o  c #97780C",
"O  c #A36A13",
"+  c #A67213",
"@  c #AD7513",
"#  c #A47813",
"$  c #BA7B16",
"%  c #DB6019",
"&  c #D46F19",
"*  c #D96C19",
"=  c #CB7D1B",
"-  c #D7791C",
";  c #DD7F20",
":  c #0E8700",
">  c #038E00",
",  c #0C8B00",
"<  c #168700",
"1  c #1D8701",
"2  c #138C00",
"3  c #1D8A00",
"4  c #039300",
"5  c #0A9200",
"6  c #009C00",
"7  c #189700",
"8  c #258703",
"9  c #258A00",
"0  c #2A8800",
"q  c #338703",
"w  c #338A03",
"e  c #3E8E06",
"r  c #269502",
"t  c #279A05",
"y  c #01A300",
"u  c #00AA00",
"i  c #0BAB01",
"p  c #00B400",
"a  c #00BB00",
"s  c #0AB901",
"d  c #27A405",
"f  c #458704",
"g  c #4C8603",
"h  c #488805",
"j  c #4B8C0A",
"k  c #558605",
"l  c #5E8106",
"z  c #518C0A",
"x  c #5E8B09",
"c  c #6D8203",
"v  c #638C0C",
"b  c #7B840E",
"n  c #699010",
"m  c #719010",
"M  c #00C400",
"N  c #00CA00",
"B  c #00D400",
"V  c #00DB00",
"C  c #00E400",
"Z  c #0AE600",
"A  c #00EC00",
"S  c #0AEF00",
"D  c #14EA00",
"F  c #1DEE00",
"G  c #00F400",
"H  c #0CF300",
"J  c #01F800",
"K  c #0AF800",
"L  c #13F600",
"P  c #1CF301",
"I  c #1CF800",
"U  c #24F400",
"Y  c #22F801",
"T  c #28F900",
"R  c #24F80B",
"E  c #37F000",
"W  c #3CF300",
"Q  c #37F803",
"!  c #3CF800",
"~  c #30F809",
"^  c #34F810",
"/  c #67DF00",
"(  c #43F400",
")  c #48F700",
"_  c #46F903",
"`  c #4DF802",
"'  c #4DF80F",
"]  c #59F500",
"[  c #54F800",
"{  c #5BF801",
"}  c #67E000",
"|  c #6FE200",
" . c #67EA00",
".. c #6FEB00",
"X. c #72E300",
"o. c #7FE500",
"O. c #7DEC00",
"+. c #66F502",
"@. c #65F802",
"#. c #65F809",
"$. c #6BF80C",
"%. c #73F80A",
"&. c #7BF80C",
"*. c #63F810",
"=. c #6AF811",
"-. c #73F811",
";. c #74F81B",
":. c #76F824",
">. c #898F0E",
",. c #8F8712",
"<. c #958711",
"1. c #929016",
"2. c #A98C15",
"3. c #B68A1A",
"4. c #BF8A1C",
"5. c #B3941E",
"6. c #BD9723",
"7. c #BE9D2C",
"8. c #CC8320",
"9. c #D48A21",
"0. c #DD8C24",
"q. c #DF8728",
"w. c #C59222",
"e. c #C99E2C",
"r. c #D69324",
"t. c #E29126",
"y. c #E3962B",
"u. c #E69A2B",
"i. c #E89B2E",
"p. c #C2A131",
"a. c #CDA033",
"s. c #D6A134",
"d. c #E5A02F",
"f. c #E7A232",
"g. c #E9A435",
"h. c #E4A03A",
"j. c #EBA43C",
"k. c #EDAB3B",
"l. c #80E600",
"z. c #87EC01",
"x. c #8AEC05",
"c. c #8EEE08",
"v. c #83F406",
"b. c #85F80E",
"n. c #8AF80F",
"m. c #96F207",
"M. c #91F80F",
"N. c #8DF416",
"B. c #89F810",
"V. c #8EF418",
"C. c #85F81B",
"Z. c #8FF81E",
"A. c #90F518",
"S. c #92F81C",
"D. c #8BF828",
"F. c #95F824",
"G. c #97F82A",
"H. c #9BF82D",
"J. c #88F832",
"K. c #94F831",
"L. c #9CF832",
"P. c #A2F834",
"I. c #A6F83C",
"U. c #A8F83E",
"Y. c #ECAB42",
"T. c #EFB444",
"R. c #F1B141",
"E. c #F1B249",
"W. c #F0BC4D",
"Q. c #A7F840",
"!. c #AAF843",
"~. c #AEF84A",
"^. c #B1F84C",
"/. c #B4F855",
"(. c #B6F859",
"). c #BAF85D",
"_. c #BCF862",
"`. c #F0C151",
"'. c #C1F869",
/* pixels */
"} } / / / } } } } } } } } } } } } } } } / / / / / / / } } } } } ",
"X.X.X.X.X.| | | | | | | | | | | | | | | X.X.X.X.X.X.X.o.X.| X.X.",
"l.l.l.l.l.o.o.l.o.o.o.o.l.o.o.o.o.o.o.o.l.l.z.x.x.x.x.x.l.o.o.o.",
" ...O.z.x.x.x.x.x.x.x.x.c.x.c.x.x.v.c.c.x.x.m.m.m.m.m.m.c.x.z.z.",
"F E +.v.N.A.V.V.V.V.N.N.V.V.V.V.V.V.V.V.C.V.V.A.A.A.A.A.A.B.v.v.",
"A P ] v.D.F.G.G.H.L.L.L.L.L.L.H.L.L.L.L.L.L.L.L.L.L.L.L.F.C.#.{ ",
"G P { b.H.I.P.Q./.(.(.(./.(.(.(.(._.(._.(.(.(.(.(.(.(.^.H.;.Q I ",
"A P { B.L.!.Q.~.(._._._._.'.'.'._.'._._._.'.'.'._._._.^.H.=.P J ",
"A F ] B.P.Q.Q.!.^.~.~./._.'.'.'.'.'.'.'.'.'.'._./.^.~.U.S.+.Y G ",
"C D ( $.D.P.U.Q.U.Q.U.!.(._.'.'.'.'.'.'.'.'._.(.!.I.P.G.b.{ F A ",
"C C P Q $.S.P.Q.Q.Q.U.Q.!.(._.'.'.'.'.'.'._./.!.!.I.H.D.#.W D C ",
"V C A L ` %.F.P.P.U.Q.Q.Q.!.(._._.).).)._.(.~.I.P.H.S.-._ U Z V ",
"B V C H U ` &.V.F.P.I.!.!.!.~.~.^.~.~.~.~.^.!.P.Z.b.&.{ T H C V ",
"N B V S H T ` @.=.;.D.K.K.L.L.P.H.P.P.L.K.K.J.:.#.] [ ! H G C V ",
"N B V C G K I Y Y ~ ' *.-.&.b.b.b.n.M.b.=.' ^ R I I I L G A B N ",
"M M B C G J J J J K Y Q ) [ [ { { @.@.{ ! Y G J J J G J G C B N ",
"p a B V A G G G J J K L L I I I I I Y I L K J J G A G G A A B M ",
"u p M B V A A G G J J G G J J J J J J J G J J G G G G A A V M a ",
"6 u a N B V A G A G G G G G J J G J A G J G G G A A A A V N p y ",
"w r i a N V C A A A G A A A G J A A A A A A A A A A C V B s t q ",
"# b t p M B C C A A A C A A A A A A A A A A A C C C V B M d b O ",
"* # e i a N B C C C C C C C C C C C C C C C C C V V N M i e + % ",
"* @ k 7 y a N B B V C C C C C C C C C C C V V B B N N s 7 k @ * ",
"- $ . f 2 u a M M N B B V B V B V V B V B B N M a a p i r   @ & ",
"0.9.$ X 8 4 6 u u p p a N N N N N N N M a a u u u y 6 5 9 l @ & ",
"d.y.; @   8 2 5 4 6 y u p p p p a p p p u u 6 4 5 , , 1 h b $ - ",
"k.f.0.= @ X f 2 > > 4 4 6 y y y y y u 6 y 6 4 > 3 9 9 h ,.4.9.0.",
"Y.k.y.0.; $ . g 0 < : > 4 4 4 4 4 4 5 5 5 , 2 8 h v x b 4.t.u.d.",
"R.k.f.y.t.9.$ o c g q 1 2 , , , : 2 9 9 9 0 q k <.3.5.w.r.u.g.k.",
"R.T.k.g.g.y.q.8.2.>.m x z j j h j z x v v n m 1.w.y.i.d.i.f.k.T.",
"W.W.W.E.Y.Y.j.h.s.e.w.5.5.5.5.5.5.5.5.6.7.p.p.a.h.g.k.k.k.k.k.T.",
"`.`.W.W.E.E.E.E.Y.k.i.y.u.u.u.y.u.u.u.i.j.Y.Y.Y.Y.Y.R.R.R.R.R.k."
};
