/* XPM */
static char *result[] = {
/* columns rows colors chars-per-pixel */
"32 32 162 2 ",
"   c #5B7B0B",
".  c #75710D",
"X  c #777F0E",
"o  c #827C0D",
"O  c #8A7D0C",
"+  c #9B790E",
"@  c #9C7512",
"#  c #AF6E15",
"$  c #A37713",
"%  c #AD7414",
"&  c #AF7A15",
"*  c #B17514",
"=  c #BC7514",
"-  c #B07A16",
";  c #BD7916",
":  c #C47216",
">  c #CC7D1B",
",  c #D6751A",
"<  c #DB741C",
"1  c #D57B1D",
"2  c #DA7C1E",
"3  c #008E00",
"4  c #0B8B00",
"5  c #178601",
"6  c #138B00",
"7  c #029300",
"8  c #089200",
"9  c #009B00",
"0  c #139201",
"q  c #1A9301",
"w  c #238404",
"e  c #2D8403",
"r  c #258D04",
"t  c #298901",
"y  c #348D06",
"u  c #3D8D00",
"i  c #249504",
"p  c #289402",
"a  c #2F9F00",
"s  c #3F9100",
"d  c #00A200",
"f  c #0CA500",
"g  c #01AC00",
"h  c #14A600",
"j  c #1EA000",
"k  c #15AC01",
"l  c #00B500",
"z  c #0DB500",
"x  c #00BD00",
"c  c #10B800",
"v  c #428505",
"b  c #468C02",
"n  c #478808",
"m  c #4A8808",
"M  c #548504",
"N  c #5C870B",
"B  c #5A8808",
"V  c #6F8304",
"C  c #7A830D",
"Z  c #01C300",
"A  c #00CA00",
"S  c #00D300",
"D  c #00DB00",
"F  c #00E400",
"G  c #0CE700",
"H  c #00EC00",
"J  c #17EA00",
"K  c #1FEF03",
"L  c #00F400",
"P  c #0EF300",
"I  c #02F900",
"U  c #0CF800",
"Y  c #14F400",
"T  c #1BF602",
"R  c #13F900",
"E  c #1BF800",
"W  c #22F801",
"Q  c #28F802",
"!  c #27F609",
"~  c #23F60C",
"^  c #37F803",
"/  c #3AF801",
"(  c #3BF80D",
")  c #3CF810",
"_  c #66DF00",
"`  c #45F700",
"'  c #49F300",
"]  c #47F800",
"[  c #4DF801",
"{  c #4FF80E",
"}  c #51F800",
"|  c #5AF800",
" . c #67E000",
".. c #6FE200",
"X. c #72E300",
"o. c #7FE500",
"O. c #64F60B",
"+. c #6BF80B",
"@. c #7AF802",
"#. c #72F80B",
"$. c #7BF80C",
"%. c #66F810",
"&. c #76F824",
"*. c #7BF824",
"=. c #A5840D",
"-. c #AB8818",
";. c #BC861A",
":. c #B08818",
">. c #BD8818",
",. c #CA891B",
"<. c #D0831D",
"1. c #D9831E",
"2. c #DC8621",
"3. c #DC8A22",
"4. c #DE9226",
"5. c #DD9429",
"6. c #E1952A",
"7. c #E39C2C",
"8. c #E59F31",
"9. c #E4A335",
"0. c #EAA334",
"q. c #EAA738",
"w. c #ECAA3C",
"e. c #81E600",
"r. c #8AEC05",
"t. c #8CED08",
"y. c #86F80F",
"u. c #94F107",
"i. c #9AF20C",
"p. c #8DF417",
"a. c #87F812",
"s. c #89F813",
"d. c #8FF418",
"f. c #8DF81B",
"g. c #92F61A",
"h. c #93F81C",
"j. c #98F81E",
"k. c #81F826",
"l. c #8EF824",
"z. c #93F824",
"x. c #96F82A",
"c. c #9AF82D",
"v. c #84F831",
"b. c #8BF830",
"n. c #95F830",
"m. c #9CF832",
"M. c #A1F62C",
"N. c #A3F836",
"B. c #A4F83B",
"V. c #A9F83D",
"C. c #EDAC42",
"Z. c #F1B143",
"A. c #F0B149",
"S. c #A7F841",
"D. c #AAF842",
"F. c #AEF84A",
"G. c #B0F84C",
"H. c #B4F855",
"J. c #B5F858",
"K. c #BAF85E",
"L. c #BCF861",
"P. c #C1F869",
/* pixels */
" . ._ _  ._ _  . . . . . . . . . . . . ._ _ _ _ .._ _  . . . . .",
"..X.X.X.X.X...X.........................X.X.X.X.X.X.............",
"o.e.r.r.e.o.e.o.o.o.o.o.o.o.o.o.o.o.o.e.r.r.r.r.e.e.e.o.o.o.e.e.",
"t.t.u.u.t.r.t.r.t.r.t.r.r.t.t.r.t.t.t.t.u.i.i.i.t.r.t.r.t.t.t.t.",
"d.d.g.g.d.p.p.p.p.p.p.d.p.p.p.p.f.p.d.f.g.j.M.m.h.p.p.p.p.d.d.d.",
"f.f.z.x.m.m.m.m.m.c.m.m.m.c.x.x.x.x.x.z.f.z.m.V.N.m.m.m.x.z.l.d.",
"$.a.x.S.H.K.J.H.J.J.J.J.J.H.B.N.N.N.N.c.s.f.m.F.H.J.J.H.D.x.s.$.",
"@.y.m.F.L.P.P.L.P.P.P.P.P.L.H.F.S.S.D.n.#.#.x.F.J.L.L.J.V.l.+.| ",
"@.y.m.F.L.P.P.P.P.P.P.P.P.P.L.J.F.D.D.b.{ { b.F.F.G.G.V.j.#.^ E ",
"| +.n.F.L.P.P.P.P.L.P.P.P.P.P.K.F.V.F.v.) ^ *.N.V.V.N.z.#.] Y L ",
"E ( v.G.L.P.P.L.P.P.P.P.P.P.P.K.F.V.D.v.! W +.j.N.N.j.#./ Y H F ",
"I ~ &.V.J.L.L.K.K.K.K.K.K.K.K.J.F.V.B.&.~ Y ] +.k.k.+.] R H F D ",
"L T O.h.V.F.F.F.F.F.F.F.F.F.F.F.D.N.h.O.K H E Q ( ( Q R I H D S ",
"H Y ` +.l.N.V.D.S.D.S.V.V.D.D.V.N.z.#.' J F L L U R I I L H D A ",
"H H Y ^ +.f.N.D.D.D.D.V.S.D.D.N.g.$.] Q G F H L I I I L L F A Z ",
"D H L E [ $.z.m.m.m.m.N.m.n.v.*.+.[ Q P F F H L L L L L H D Z x ",
"S D H R / | $.s.s.y.y.a.$.%.) ~ W E P H D D F H L L L H F D x l ",
"A D H U W / } | | | | | } / R I L L H F S A D F H L H H F A l g ",
"A S F I U R E E E E E E E R I L L H D S A A S D F H H F S Z g 9 ",
"Z A F L L L L L L L L L L L L L H F S Z c c Z S D H F F A l 9 7 ",
"l Z D F H H H H H H H H H H H H D S A c a a c A D F F D Z g 9 9 ",
"f z A D F F F F F H F F F F F D S A x h b s h x A S S Z l f i y ",
"p j Z S D F F F F F F F F F D S A x l h s u 0 9 g l g g 9 r X $ ",
"V m k A S D D S D S D D D S Z x l g 9 q M M e 4 7 9 9 8 w   * < ",
"% o p l Z A A A A A A A A Z l g 9 7 7 e O + M t 4 3 3 w . # > 2 ",
"< - N q g l l l l l l l l g d 7 4 5 w   % : O   v e e   # < 2.4.",
"1.> & C i g d d d d d d d 9 7 4 e M o % : : = % $ @ @ % > 2.6.8.",
"3.3.2 & N r q 8 7 7 7 7 7 8 6 e M O ; < , 2 1 1 , , , , 2.4.7.8.",
"4.4.1.1 & X v r 0 4 4 4 4 i b V + = <.1.4.5.5.5.2.2 2 2.3.6.7.8.",
"8.7.4.3.2 ; C B m n m m n B C =.> 2 3.5.9.9.9.9.5.4.4.6.8.8.0.0.",
"w.q.8.6.2.<.;.:.:.:.:.:.-.:.>.,.3.5.5.9.w.C.C.C.w.q.0.q.w.C.Z.Z.",
"w.w.q.7.4.1.2.2.3.3.1.3.3.1.1.4.5.5.7.9.C.A.A.A.Z.Z.Z.Z.A.A.A.A."
};
