/* XPM */
static char *result[] = {
/* columns rows colors chars-per-pixel */
"32 32 181 2 ",
"   c #5B7B04",
".  c #5C7B0B",
"X  c #75740B",
"o  c #7E7B0B",
"O  c #9A6B0D",
"+  c #8B700D",
"@  c #847B0E",
"#  c #8B7E0B",
"$  c #9A7A0E",
"%  c #9C7512",
"&  c #B06E16",
"*  c #A57412",
"=  c #AC7614",
"-  c #B17514",
";  c #BC7315",
":  c #BC7815",
">  c #C96815",
",  c #D16A17",
"<  c #C77C17",
"1  c #CD7C1B",
"2  c #D6751A",
"3  c #DA731C",
"4  c #D67A1D",
"5  c #D87C1D",
"6  c #008F00",
"7  c #0C8C00",
"8  c #198501",
"9  c #148B00",
"0  c #1E8D01",
"q  c #039300",
"w  c #0A9300",
"e  c #019B00",
"r  c #0A9A00",
"t  c #1C9300",
"y  c #159D01",
"u  c #218404",
"i  c #2D8304",
"p  c #238C00",
"a  c #288B01",
"s  c #398704",
"d  c #2A9300",
"f  c #2A9802",
"g  c #00A300",
"h  c #0CA600",
"j  c #00AD00",
"k  c #16AC01",
"l  c #00B400",
"z  c #0CB400",
"x  c #00BC00",
"c  c #0ABF00",
"v  c #458406",
"b  c #4D8707",
"n  c #458A02",
"m  c #528305",
"M  c #5B8505",
"N  c #5C8806",
"B  c #638006",
"V  c #7E8807",
"C  c #768208",
"Z  c #00C300",
"A  c #00CB00",
"S  c #00D400",
"D  c #00DB00",
"F  c #08DD00",
"G  c #00E400",
"H  c #00EB00",
"J  c #15E700",
"K  c #1BE500",
"L  c #1BED00",
"P  c #01F300",
"I  c #02F900",
"U  c #0AF800",
"Y  c #14F600",
"T  c #1DF302",
"R  c #11F800",
"E  c #1CF800",
"W  c #34EF03",
"Q  c #22F802",
"!  c #2AF801",
"~  c #27F80B",
"^  c #3AF802",
"/  c #34F80E",
"(  c #3BF80D",
")  c #66DF00",
"_  c #44F300",
"`  c #4DF100",
"'  c #45F801",
"]  c #4AF800",
"[  c #4CF80F",
"{  c #5AF500",
"}  c #50F800",
"|  c #5BF800",
" . c #50F80F",
".. c #67E000",
"X. c #6FE200",
"o. c #71E300",
"O. c #7FE500",
"+. c #64F200",
"@. c #62F800",
"#. c #6BF903",
"$. c #61F70A",
"%. c #6AF50B",
"&. c #64F80C",
"*. c #6DF80B",
"=. c #7DF400",
"-. c #7FF802",
";. c #73F80B",
":. c #7AF80B",
">. c #73F812",
",. c #74F81F",
"<. c #78F824",
"1. c #A4840C",
"2. c #AF8717",
"3. c #A98718",
"4. c #BB8717",
"5. c #B08718",
"6. c #BC871A",
"7. c #C9891A",
"8. c #D4801D",
"9. c #DA821E",
"0. c #DE891E",
"q. c #DB8420",
"w. c #D58A21",
"e. c #DB8C23",
"r. c #DE9226",
"t. c #DD9329",
"y. c #DD992C",
"u. c #E18D24",
"i. c #E39624",
"p. c #E29229",
"a. c #E39B2C",
"s. c #E49F31",
"d. c #E5A433",
"f. c #E9A436",
"g. c #E5A239",
"h. c #EBA63A",
"j. c #EDAC3C",
"k. c #80E600",
"l. c #87EC01",
"z. c #8AEC06",
"x. c #8CED08",
"c. c #82F406",
"v. c #80F907",
"b. c #85F80D",
"n. c #8BF80D",
"m. c #95F207",
"M. c #94F108",
"N. c #98F308",
"B. c #8DF417",
"V. c #87F811",
"C. c #8AF811",
"Z. c #8EF418",
"A. c #8DF81C",
"S. c #91F617",
"D. c #93F619",
"F. c #94F81D",
"G. c #80F825",
"H. c #89F829",
"J. c #93F824",
"K. c #96F829",
"L. c #9AF82C",
"P. c #82F830",
"I. c #8BF831",
"U. c #97F830",
"Y. c #9DF832",
"T. c #9CF83C",
"R. c #A2F834",
"E. c #A5F83B",
"W. c #A8F83E",
"Q. c #EBAB42",
"!. c #F1B141",
"~. c #F0B149",
"^. c #A7F840",
"/. c #A9F842",
"(. c #AEF84A",
"). c #B2F84D",
"_. c #B4F855",
"`. c #B6F859",
"'. c #BAF85E",
"]. c #BCF860",
"[. c #C2F86B",
/* pixels */
"................) ) ) ) ........................................",
"X.X.X.X.X.X.X.o.o.o.O.o.o.X.X.X.X.X.X.X.X.X.X.X.X.X.X.X.X.X.X.X.",
"k.O.O.O.k.k.O.k.l.z.z.l.k.k.k.k.O.O.k.k.O.O.O.O.O.O.O.O.O.O.O.O.",
"x.x.z.x.x.z.z.x.m.N.N.M.x.x.z.z.x.z.z.x.z.z.x.z.x.z.x.z.x.x.l.l.",
"Z.Z.Z.Z.Z.Z.B.B.B.S.D.S.Z.Z.S.B.Z.Z.B.B.B.B.Z.Z.B.Z.Z.S.A.n.c.=.",
"A.F.J.K.K.K.Y.Y.T.U.F.A.J.K.K.K.K.K.Y.T.Y.Y.Y.Y.Y.Y.Y.L.K.H.;.#.",
"-.V.L.W.R.W._.`.`./.A.V.K.E.E.R.R.^._.`._.`.`.`._.`._.)./.H.&.] ",
"{ %.H.Y.W.(.`.'._.T.>.;.Y./././.^.(.].].[.].[.[.].[.[.[.).I.[ ! ",
"L W %.J.R./.).W.J.>.'  .I./././.W.(.].[.[.[.].[.[.[.[.[.).P./ U ",
"G L { b.L.W.W.R.n.@.! / <.R.W./.^.(._.'.].].].'.].].'._.E.,.~ I ",
"G K +.n.F.R.W.R.C.@.Q Q &.F.R./././.(.(.(.(.(.(.(.(.(.W.F.$.T P ",
"D K ` #.%.,.P.G.*._ Y R ' *.J.E.W./.^.^.^.^.W.W./.^.T.J.v.{ T H ",
"S F L Q Q ~ ( ( ! Y U H Y ^ ;.F.R./././././.W././.Y.A.v.-.{ L H ",
"A S H I I I R R P I P P I Y ' ;.J.R.R.Y.Y.Y.Y.R.Y.J.:.#.@._ J G ",
"Z A G P I I I I P P H P P P Y ^ ;.C.n.b.b.V.V.V.C.:.| ' ! Y F S ",
"x Z S G P I I P H P H H H H I Y ] @.| | | | { | { } ^ Q U H S A ",
"l x A D H I P P H H H H H H P P Y E E E Y E E E E Y Y U I H S Z ",
"g j x A G H H H H G G H G G G H P I P P I I P I P P P P H G A Z ",
"e g l Z D H H H H H G G D S S D H H H H H H H H H H H H G D Z l ",
"w r g x S G G G G G G D S A A S D G G G G G G G G G H G G A z h ",
"a t h x A S D G S S A A Z Z Z A S D D G G G G G G G G D S c f d ",
"B n y j x Z A S A c z z l l l l x A S S S D D D S D S S Z k s   ",
"- @ a e g j l j l h f d w q q q g l l Z Z A A A A Z Z l g f X O ",
"3 - . u q q e e r f B B v i 8 7 q g g j l l l l l l l g e s O > ",
"q.1 & X u 6 6 7 a M $ - * @ m a 7 q e e g e g g g g e r t b * , ",
"e.q.3 & . i i s M # : 3 , < # M i 9 q q q q q q w w w 0 v o : 2 ",
"t.r.9.< = % % * = : 8.5 2 > : $ C n 0 7 7 7 7 8 p p p b + ; 4 0.",
"s.a.r.9.4 3 3 3 4 5 w.w.5 4 4 < 1.V N v b v v b M N N C ; 3 e.i.",
"j.f.a.r.q.5 8.q.e.r.t.y.y.t.e.r.7.4.2.3.2.3.3.2.5.5.5.6.w.u.a.a.",
"!.j.d.a.t.t.t.t.y.d.d.d.d.d.s.a.t.p.p.p.p.p.p.p.p.p.p.p.a.s.f.h.",
"!.!.j.g.g.s.g.g.g.j.j.j.j.j.j.j.h.h.h.h.h.h.h.Q.g.g.s.s.g.h.Q.Q.",
"j.!.!.Q.Q.Q.Q.Q.Q.Q.!.j.!.!.!.!.!.!.!.!.!.!.!.Q.Q.Q.Q.Q.Q.Q.~.~."
};
