/* XPM */
static char * terreG_xpm[] = {
"32 32 151 2",
"  	c #FF00FF",
". 	c #EAD7C9",
"+ 	c #BD8056",
"@ 	c #A6541C",
"# 	c #AC5C20",
"$ 	c #B46420",
"% 	c #BA6C20",
"& 	c #BE7420",
"* 	c #C47C24",
"= 	c #CC842C",
"- 	c #D18A30",
"; 	c #D69430",
"> 	c #DC9C34",
", 	c #DEA037",
"' 	c #E1A134",
") 	c #E5A43C",
"! 	c #ECAC40",
"~ 	c #F0B242",
"{ 	c #F0B03F",
"] 	c #F0AC42",
"^ 	c #F0B64B",
"/ 	c #F0BC4C",
"( 	c #F0C050",
"_ 	c #ECAC3D",
": 	c #EAA937",
"< 	c #D18530",
"[ 	c #E0A02F",
"} 	c #AB541C",
"| 	c #BA7F53",
"1 	c #A35517",
"2 	c #E7D4C6",
"3 	c #B17B4A",
"4 	c #994E0E",
"5 	c #9C4D12",
"6 	c #B2621D",
"7 	c #BA6A1E",
"8 	c #C78123",
"9 	c #CB8527",
"0 	c #EAA436",
"a 	c #954C0B",
"b 	c #9F5515",
"c 	c #BD711D",
"d 	c #C76F1E",
"e 	c #CB7624",
"f 	c #D2852D",
"g 	c #E49134",
"h 	c #E59C34",
"i 	c #E49F2F",
"j 	c #B8671A",
"k 	c #BD6517",
"l 	c #CB4F1B",
"m 	c #CF5824",
"n 	c #D47D2E",
"o 	c #EB722E",
"p 	c #EA6C30",
"q 	c #EE8637",
"r 	c #F19C3C",
"s 	c #F0A848",
"t 	c #F0A143",
"u 	c #F09C43",
"v 	c #99440D",
"w 	c #A64919",
"x 	c #AC5B1D",
"y 	c #B66113",
"z 	c #BE5613",
"A 	c #CC3D1D",
"B 	c #D04723",
"C 	c #D06C28",
"D 	c #DE9134",
"E 	c #E68333",
"F 	c #EB5B2B",
"G 	c #F15A2B",
"H 	c #F37335",
"I 	c #F18B3E",
"J 	c #F47A36",
"K 	c #9F3611",
"L 	c #A53917",
"M 	c #A84C17",
"N 	c #B15F1B",
"O 	c #CA401C",
"P 	c #D25C1E",
"Q 	c #D56F25",
"R 	c #E1752E",
"S 	c #EE5429",
"T 	c #EE9D3E",
"U 	c #F2A23F",
"V 	c #F66533",
"W 	c #B4744B",
"X 	c #9D3A0E",
"Y 	c #A42D13",
"Z 	c #AB2A18",
"` 	c #AC3D17",
" .	c #B55714",
"..	c #C04F15",
"+.	c #D2431F",
"@.	c #D04F1B",
"#.	c #E15C27",
"$.	c #EC4D27",
"%.	c #F04F28",
"&.	c #EE893A",
"*.	c #EB8C31",
"=.	c #EC9432",
"-.	c #F28937",
";.	c #F8552F",
">.	c #EACCC7",
",.	c #BA634E",
"'.	c #A62414",
").	c #A72C18",
"!.	c #AD3417",
"~.	c #B83C16",
"{.	c #C53A19",
"].	c #D33920",
"^.	c #DD4722",
"/.	c #E34A23",
"(.	c #F04E27",
"_.	c #F2632D",
":.	c #F16B2E",
"<.	c #F36D33",
"[.	c #F86A30",
"}.	c #F85730",
"|.	c #BD5B50",
"1.	c #A82718",
"2.	c #AD2D17",
"3.	c #BA3318",
"4.	c #CD371E",
"5.	c #D03720",
"6.	c #DD3D20",
"7.	c #E44422",
"8.	c #F05627",
"9.	c #F15529",
"0.	c #A72718",
"a.	c #D03F1E",
"b.	c #F85B30",
"c.	c #EC632D",
"d.	c #C34D18",
"e.	c #CC621C",
"f.	c #E87230",
"g.	c #ED682C",
"h.	c #9E3E13",
"i.	c #B54913",
"j.	c #D37028",
"k.	c #DB4D22",
"l.	c #99510F",
"m.	c #DA6027",
"n.	c #E95925",
"o.	c #D8611C",
"p.	c #D57820",
"q.	c #E58F2D",
"r.	c #ECA53C",
"s.	c #D2892E",
"t.	c #EFB03F",
"      . + @ @ # $ % & * = - - - ; > , ' ) ! ! ~ { ] { ~ ^ / / ( ",
"      . + @ @ # $ % & * = - - - ; > , ' ) ) ! ~ ~ _ ] ~ ~ / ( ( ",
"      . + @ @ # $ % & * = - - - ; > > ) ' : ) ! ) ! ! ~ ~ / / ( ",
"      . + @ @ # $ % & * = < < - ; > > , [ ' ) ) ! ! ! ~ ~ / ( ( ",
"      . + @ @ # $ % & * = - - - ; > > ' ' ' ' : ) ! _ ~ / / / ( ",
"      . + @ } # $ % & * = - - - ; > > ' ' ' [ ' ) ! ] ~ ~ / / ( ",
"      . | @ @ # $ % & * = - - - ; > > ' > [ [ ' ) ! { ~ ~ / / ( ",
"      . | 1 1 # $ % & * = = = ; ; ; , , [ [ [ ' ) ! _ { / / / ( ",
"      2 3 4 5 1 6 7 & 8 8 9 = - ; > , ' ' [ [ 0 _ ~ ~ ~ ^ / / ~ ",
"      2 3 a a b 6 7 c c d e f - ; > g g h i 0 0 _ { { ~ ~ / ~ ~ ",
"      2 3 a a b 6 7 j k l m n - > g o p q r _ _ { { { ~ / s t u ",
"      2 3 a v w x y y z A B C f D E F G H I t ] { _ { ~ ~ s u J ",
"      2 3 v K L M N y z O O P Q R p S S G p I T 0 0 { ~ ~ U J V ",
"      2 W X Y Z ` M  ...A +.@.P #.F S $.%.G H &.*.=.r U r -.V ;.",
"      >.,.Y '.Y ).!.~.{.A ].A B ^./.$.%.(.S _._.:.:.<.[.:.:.G }.",
"      >.|.'.'.Y 1.2.3.{.4.5.].].6.7.$.%.(.(.8.8.8.8.9.}.9.G }.}.",
"      >.|.'.'.0.1.2.3.{.4.5.5.].6.7.$.9.$.9.9.S 8.9.8.8.8.G ;.}.",
"      >.|.'.'.0.1.2.3.{.a.a.5.].6.7.%.S S S 9.8.9.8.G 8.G G b._.",
"      >.|.'.'.0.1.2.3.{.l @.a.a.6./.F c.c.F 9.8.9.(.S S G G [.[.",
"      >.,.Y Y Y 1.2.~.d.e.P B ].6.7.#.p f.o g.G 8.9.8.G 8.G :.J ",
"      2 W X v h.Y 2.i.e.e j.k.6.6.7.$.g.E g g E c.9.S S 8._.J -.",
"      2 3 4 l.5 L `  .c = n m.k.^.^.n.o g ) : =.o _.G G _.H I t ",
"      2 3 4 b 1 w } j c = < n Q P o.p.q.) _ _ r.-.H }.}.<.u s / ",
"      2 3 5 @ x @ N c 8 = - - = j.p.q.' ) _ ! ! u I H V u u / ( ",
"      2 + 1 @ x # % & * = - - - s.s.> ) ) ! _ ~ ] U r U ] ~ / ( ",
"      . + @ @ # $ % & * = < - - > > > > ) ! ] _ ] { { ~ ^ / / / ",
"      . + @ @ # $ % & * = - < - ; > > ! ! ! ! ~ { { { ~ ^ / ( ( ",
"      . + w # # $ % & * = - - - ; > > > ) ! _ ~ { ~ ~ ~ ^ / / ( ",
"      . + @ @ # $ % & * = - - - ; > > ' ) ! ! t.{ ~ ~ ~ ^ / ( ( ",
"      . + @ @ # $ % & * = - - - ; ; > ) t ! ! ~ { { { ~ ~ / / ( ",
"      . | @ @ # $ % & * = - < - ; > > ) ) ! { { { ~ { ~ { / / ( ",
"      . | @ # # $ % & * = - - - ; > , ' ) ! ! ~ { { { ~ ~ / ( ( "};
