/* XPM */
static char * blockB_xpm[] = {
"32 32 103 2",
"  	c #FF00FF",
". 	c #DC7D54",
"+ 	c #CF4D17",
"@ 	c #D24F17",
"# 	c #D04F18",
"$ 	c #CE501A",
"% 	c #C94218",
"& 	c #C63C16",
"* 	c #C83F18",
"= 	c #B92A10",
"- 	c #B11D06",
"; 	c #A50D01",
"> 	c #BF4E42",
", 	c #DB7647",
"' 	c #D75D1E",
") 	c #D85E1C",
"! 	c #D76020",
"~ 	c #D96321",
"{ 	c #D25620",
"] 	c #BA250C",
"^ 	c #AC1503",
"/ 	c #B13A32",
"( 	c #D67154",
"_ 	c #DA692F",
": 	c #DD6A26",
"< 	c #E5812F",
"[ 	c #E98831",
"} 	c #E98731",
"| 	c #E68431",
"1 	c #E2792C",
"2 	c #DF7429",
"3 	c #961513",
"4 	c #803A3A",
"5 	c #764E4E",
"6 	c #C03110",
"7 	c #CA4416",
"8 	c #DD7C2E",
"9 	c #CE7A2F",
"0 	c #CE7C30",
"a 	c #DE7027",
"b 	c #BA4C1B",
"c 	c #A82A10",
"d 	c #840301",
"e 	c #590708",
"f 	c #430C0C",
"g 	c #BB290D",
"h 	c #C64219",
"i 	c #8B4821",
"j 	c #85391B",
"k 	c #BD551E",
"l 	c #D85F21",
"m 	c #D45B20",
"n 	c #D15219",
"o 	c #CE4C18",
"p 	c #B03915",
"q 	c #7D2813",
"r 	c #72140D",
"s 	c #930604",
"t 	c #8A0302",
"u 	c #5C0C0C",
"v 	c #B5220C",
"w 	c #CC752D",
"x 	c #7B2612",
"y 	c #B44115",
"z 	c #C02F10",
"A 	c #771D10",
"B 	c #461010",
"C 	c #C73F18",
"D 	c #D76E27",
"E 	c #C64A17",
"F 	c #A11D0C",
"G 	c #A80903",
"H 	c #AF230D",
"I 	c #BF3211",
"J 	c #B6290C",
"K 	c #630B0A",
"L 	c #B32207",
"M 	c #B41E0C",
"N 	c #C64012",
"O 	c #550C0C",
"P 	c #C3350F",
"Q 	c #C12F0F",
"R 	c #AF1904",
"S 	c #A8290F",
"T 	c #A22310",
"U 	c #9E1A0C",
"V 	c #9A1607",
"W 	c #74180E",
"X 	c #9C1807",
"Y 	c #9F0B00",
"Z 	c #870D04",
"` 	c #8C0B03",
" .	c #790402",
"..	c #720404",
"+.	c #760805",
"@.	c #6C0505",
"#.	c #A14242",
"$.	c #903334",
"%.	c #6E1818",
"&.	c #630707",
"*.	c #641B1B",
"=.	c #713D3D",
"-.	c #4D0909",
"    . + + + @ + + + # $ # + + + % & & & & & & * * & = - ; >     ",
"    , ' ) ) ) ) ! ~ ) ~ ! ~ ! ! ' { { { { { { $ $ % & ] ^ /     ",
"( , _ : < [ [ [ [ } } } [ [ [ [ | | | | | | 1 2 _ ~ # & ^ 3 4 5 ",
"6 7 : 8 9 0 | [ [ [ [ [ [ [ | | | | | | | | 1 a ~ { b c ; d e f ",
"g h 1 0 i j k ~ ~ ) ~ ~ ! l m { { { { { { n o % % p q r s t u f ",
"v h 1 w j x y @ # + n + o o % & & * & & & & 6 z z c A r s t u B ",
"v C ~ D k y E @ # # # o 7 % % h * * * & 6 6 6 z z = c F G t u B ",
"H I ' ~ ' @ @ n # # # o % * & % % * & & 6 6 6 z 6 6 6 ] G t u B ",
"^ J o ~ ' @ n @ $ n 7 7 % & % * C & & 6 6 z 6 z 6 6 6 ] G t K B ",
"; v o l n n # # + 7 7 % * % % * & & I z 6 6 z 6 6 z z ] G t u B ",
"; L o ' n n n o o % % % % * & & & z 6 z z 6 6 z z 6 = M G t u B ",
"; L o ' n # o o % * * h * % & & 6 = z I 6 z z 6 z = = v G t u B ",
"; L o ! n # 7 7 h * % * % & & I 6 6 6 z z z z z = = = M G t u B ",
"; L 7 ' n 7 % * * * * * & & 6 6 6 6 z 6 z z I = = = = M G t u B ",
"^ L N n o 7 h * % * % & 6 6 6 6 6 z 6 z 6 z = = = = = M G t u B ",
"; L N + 7 h % % * * & & 6 6 6 6 z 6 z 6 6 = = H = = = H G t O B ",
"; L N + 7 * * * * & & 6 6 z 6 z 6 z 6 = = = = = = = = M G t u B ",
"; - N n 7 % * * & & P 6 6 6 z 6 z 6 6 = = H = = = H = M G t u B ",
"; L N o 7 % * * 6 6 6 = z 6 z z z 6 = = = = = = = = = M 3 t u B ",
"; - & o % % * & 6 6 6 Q 6 z 6 6 z z = = = H = = = = = M G t u B ",
"; - 6 7 * & 6 6 6 6 6 6 6 6 6 6 = = = = = = H = = = = M G t u B ",
"^ - 6 % & & 6 6 6 6 P 6 6 6 z = = = H = = = = = = = = M G t u B ",
"; - 6 h & Q 6 Q 6 = = 6 6 = = = = = = = H = = = = = = M G t u B ",
"^ R 6 & & Q 6 6 6 P 6 6 6 = = = v = = = = = M = H = = M G t u B ",
"; R g 6 6 6 6 6 P Q 6 g = = = = = = = = = = = v = = = M G t u B ",
"; ^ v J S S J g g ] g g g v v v v H M v v v v v M H T U G t u B ",
"^ ^ ^ V W W X - - R R ^ ^ ^ R ^ R ^ R ^ ^ R ^ ^ M 3 W r s t u B ",
"Y Y Y Z K K ` ; Y Y Y ; Y Y Y Y Y Y Y Y Y Y Y ; s s K K d d O B ",
"d d  . ... .d t t t t t t t t t t t t t t t t t t d  ...+.@.O f ",
"#.$.%.&.@........... .................................@.&.*.=.5 ",
"    =.O O O O O O O O O O O O u O O O O u O O O O O O O -.=.    ",
"    5 f f B B f B B B B B f B B B B B B B B B B B B B f f 5     "};
