/* XPM */
static char *result[] = {
/* columns rows colors chars-per-pixel */
"32 32 198 2 ",
"   c #F0C050",
".  c #F0C150",
"X  c #F0B34C",
"o  c #F0B74D",
"O  c #F0BE4F",
"+  c #F0C251",
"@  c #F0BF50",
"#  c #F0BB4F",
"$  c #F0B94E",
"%  c #F09544",
"&  c #F0A147",
"*  c #F0B74E",
"=  c #F0C351",
"-  c #F0BC4F",
";  c #F0AF4C",
":  c #F0A94A",
">  c #F27A3B",
",  c #F2853F",
"<  c #F29C45",
"1  c #F1AB49",
"2  c #F0B24B",
"3  c #F0B94D",
"4  c #F1B14A",
"5  c #F2A547",
"6  c #F29543",
"7  c #F28D42",
"8  c #F66233",
"9  c #F66634",
"0  c #F66C36",
"q  c #F57B3B",
"w  c #F19241",
"e  c #F0A748",
"r  c #F0BA4E",
"t  c #F0BD50",
"y  c #F0B04C",
"u  c #F1A046",
"i  c #F58D3C",
"p  c #F67C37",
"a  c #F66F36",
"s  c #F66836",
"d  c #F85730",
"f  c #F8562F",
"g  c #F8552F",
"h  c #F76032",
"j  c #F37638",
"k  c #F28B3F",
"l  c #F29E45",
"z  c #F1AB4A",
"x  c #F0B14C",
"c  c #F0B64D",
"v  c #F0BB4E",
"b  c #F0BF4F",
"n  c #F0C151",
"m  c #F0B14B",
"M  c #F1AE49",
"N  c #F2A447",
"B  c #F29644",
"V  c #F3843D",
"C  c #F77134",
"Z  c #F8632F",
"A  c #F85A2F",
"S  c #F85A30",
"D  c #F76133",
"F  c #F66835",
"G  c #F66D37",
"H  c #F57A3B",
"J  c #F18D41",
"K  c #F09F46",
"L  c #F0AF49",
"P  c #F0BA4C",
"I  c #F0C04F",
"U  c #F0AE49",
"Y  c #F19041",
"T  c #F5843B",
"R  c #F67837",
"E  c #F66E36",
"W  c #F76634",
"Q  c #F85F31",
"!  c #F85B2F",
"~  c #F85830",
"^  c #F75E32",
"/  c #F37139",
"(  c #F2833D",
")  c #F29341",
"_  c #F29E44",
"`  c #F2A848",
"'  c #F2AA48",
"]  c #F2A748",
"[  c #F37539",
"{  c #F76832",
"}  c #F85F2F",
"|  c #F8592F",
" . c #F85630",
".. c #F85930",
"X. c #F76033",
"o. c #F66534",
"O. c #F66B35",
"+. c #F67037",
"@. c #F67438",
"#. c #F67B38",
"$. c #F67138",
"%. c #F85C30",
"&. c #F76934",
"*. c #F86131",
"=. c #F86031",
"-. c #F66936",
";. c #F29C43",
":. c #F38F3E",
">. c #F77534",
",. c #F77234",
"<. c #F3853E",
"1. c #F28F43",
"2. c #F0B74B",
"3. c #F1AB46",
"4. c #F4913D",
"5. c #F76534",
"6. c #F85D30",
"7. c #F76233",
"8. c #F66C34",
"9. c #F67C36",
"0. c #F48E3D",
"q. c #F1A146",
"w. c #F0AB4B",
"e. c #F0BA4D",
"r. c #F1B24A",
"t. c #F2A647",
"y. c #F8582F",
"u. c #F85E2F",
"i. c #F76932",
"p. c #F37938",
"a. c #F28C3F",
"s. c #F2A345",
"d. c #F0BA4F",
"f. c #F67E37",
"g. c #F67236",
"h. c #F66A35",
"j. c #F85E30",
"k. c #F85C2F",
"l. c #F85D2F",
"z. c #F85B30",
"x. c #F66A36",
"c. c #F67136",
"v. c #F67937",
"b. c #F5853B",
"n. c #F19541",
"m. c #F1B04A",
"M. c #F2A947",
"N. c #F29F44",
"B. c #F37639",
"V. c #F76C32",
"C. c #F8682F",
"Z. c #F8672F",
"A. c #F8662F",
"S. c #F3853D",
"D. c #F29242",
"F. c #F29842",
"G. c #F29F43",
"H. c #F2A747",
"J. c #F0B34B",
"K. c #F0B84D",
"L. c #F0BE50",
"P. c #F09E46",
"I. c #F19141",
"U. c #F5883B",
"Y. c #F68437",
"T. c #F68438",
"R. c #F68238",
"E. c #F67F38",
"W. c #F68137",
"Q. c #F0AE4B",
"!. c #F0B94C",
"~. c #F2AD48",
"^. c #F2AB48",
"/. c #F2AC48",
"(. c #F1B74E",
"). c #F0BD4F",
"_. c #EFC04F",
"`. c #EEBB4A",
"'. c #EFBA49",
"]. c #F0BC4B",
"[. c #F0BE4D",
"{. c #EBAE3D",
"}. c #EBAA3A",
"|. c #EFB141",
" X c #F0B847",
".X c #F0BD4D",
"XX c #EEB848",
"oX c #EAA737",
"OX c #E9A131",
"+X c #ECA737",
"@X c #F0BB4B",
"#X c #E89F2F",
"$X c #EFB949",
"%X c #EFBA4A",
"&X c #EBAE3E",
"*X c #F0BE4E",
"=X c #EEBA4A",
"-X c white",
/* pixels */
"                                                                ",
"                                                                ",
"                                                                ",
"                                                                ",
"                                                                ",
". .                                                             ",
". .                                                         . . ",
"X o O + . .                                           . . @ # $ ",
"% & * = + .                                         . . + - ; : ",
"> , < 1 2 3 @ + . .                         . . .   - o 4 5 6 7 ",
"8 9 0 q w e r = + . .                     . . + + t y u i p a s ",
"d f g h j k l z x c v b . + n . . + + . b v c m M N B V C Z A f ",
"d d f S D F G H J K L P I = + + + = = I P U K Y T R E W Q ! ~ d ",
"~ ~ ~ ~ d f g ^ / ( ) _ N ` ' ' ` ] ] N _ ) ( [ { } |  .d ~ ~ ~ ",
"~ ~ ~ ~ d d f ..X.o.O.E +.@.#.#.@.$.$.+.E O.o.D %.| ~ d d ~ ~ ~ ",
"d d d ~ ~ ~ ~ ~ d d f f g | } } | g g f f f d d d ~ ~ ~ ~ d d d ",
"f  .d ~ ~ ~ ~ ~ d d d d  .~ S S ~  . .d d d d d ~ ~ ~ ~ ~ d d f ",
"E &.*.! ~ d d ~ ~ ~ ~ ~ ~ ~ ~ ~ ~ ~ ~ ~ ~ ~ ~ ~ ~ ~ d ~ ! =.W -.",
";.:.>.Z A  .d ~ ~ ~ ~ ~ ~ ~ ~ ~ ~ ~ ~ ~ ~ ~ ~ ~ ~ d  .A Z ,.<.1.",
"2.3.4.p a 5.Q ! ~ d d d ~ ~ ~ ~ ~ ~ ~ d d d d d | 6.7.8.9.0.q.w.",
"O e.r.t.B V C Z A f  .d d d d d ~ ~ ~ d d f f y.u.i.p.a.s.4 o d.",
"  . + t y u i f.g.h.o.D j.k.l.%.z.! k.=.W x.0 c.v.b.n.e $ + + . ",
"  . . @ - c m.M.N.) ( B.V.C.C.Z.Z Z A.C S.D.F.G.H.M J.K.L.. .   ",
"        . . + b P U P.I.U.Y.T.R.E.f.W.i q.Q.J.!.b + + .         ",
"          . .   b v c m M ~.~.~.^.^./.m.(.# ).b . . . .         ",
"                  . . . + + + + + + + _.`.'.].[.b               ",
"                    . . . . . . . + + `.{.}.|. X.X              ",
"                                    n XXoXOX+X|.@X              ",
"                                    n XXoX#XOX}.$Xn             ",
"                                    n %X&XoXoX&X%Xn             ",
"                                      *X%XXXXX=X*X              ",
"                                        n n n n                 "
};
