/* XPM */
static char * terreB4_xpm[] = {
"32 32 94 2",
"  	c #F0C050",
". 	c #F0B54C",
"+ 	c #F0BB4E",
"@ 	c #F0BF4F",
"# 	c #F0BF50",
"$ 	c #F19E45",
"% 	c #F1A346",
"& 	c #F0AF49",
"* 	c #EEBA4C",
"= 	c #F0C352",
"- 	c #F0C150",
"; 	c #F1C251",
"> 	c #F0AB4B",
", 	c #F4833B",
"' 	c #F29442",
") 	c #EBB84A",
"! 	c #F0C151",
"~ 	c #F0BD50",
"{ 	c #EFBD4D",
"] 	c #EFB445",
"^ 	c #F2B14A",
"/ 	c #F28C42",
"( 	c #F76534",
"_ 	c #F66B35",
": 	c #F47539",
"< 	c #F8562F",
"[ 	c #F75F33",
"} 	c #F5903C",
"| 	c #F0AE4B",
"1 	c #F0BA4C",
"2 	c #F2A947",
"3 	c #F48C3D",
"4 	c #F85730",
"5 	c #F85930",
"6 	c #F77235",
"7 	c #F68337",
"8 	c #F0A549",
"9 	c #EAB648",
"0 	c #F67B37",
"a 	c #F85B2F",
"b 	c #F8642F",
"c 	c #F57C38",
"d 	c #F86031",
"e 	c #F0A94A",
"f 	c #F2AA48",
"g 	c #ECB145",
"h 	c #F0B04C",
"i 	c #F2AD48",
"j 	c #F8682F",
"k 	c #F1C352",
"l 	c #E4AC44",
"m 	c #E7B144",
"n 	c #EAB141",
"o 	c #C57D2C",
"p 	c #D08C28",
"q 	c #D4922C",
"r 	c #DA952C",
"s 	c #DE9A2F",
"t 	c #DDA033",
"u 	c #E3A53A",
"v 	c #E8AC42",
"w 	c #EAB446",
"x 	c #F1B948",
"y 	c #DFA338",
"z 	c #DD9D33",
"A 	c #CF8B2A",
"B 	c #C9822C",
"C 	c #B5641B",
"D 	c #BA6A1B",
"E 	c #C2771C",
"F 	c #D3861E",
"G 	c #D28A24",
"H 	c #E29F36",
"I 	c #E7A234",
"J 	c #EAAA3B",
"K 	c #CC8522",
"L 	c #BF721C",
"M 	c #C57B1D",
"N 	c #CC811D",
"O 	c #DD9326",
"P 	c #DA8C22",
"Q 	c #CA8E58",
"R 	c #CC9358",
"S 	c #D59F57",
"T 	c #D6A058",
"U 	c #DBA257",
"V 	c #D8A45B",
"W 	c #E1B164",
"X 	c #E2A85A",
"Y 	c #D39D58",
"Z 	c #EEDBCA",
"` 	c #F4E3CC",
" .	c #F0DFCA",
"..	c #FF00FF",
"                                                                ",
"                                                                ",
"                                                                ",
"                                                                ",
"                                                                ",
"                                                                ",
"                                                                ",
". + + @                                                   # + + ",
"$ % & * #         =                 - -   ;   ;           @ & > ",
", , ' % > ) *       ! ~           { - -     ;   @ @ . ] ^ > ' / ",
"( ( _ : / $ & * # # ! ! # #         - -         + ^ % ' , : _ _ ",
"< < < [ : , } % | . { * @ @         ;     1 ^ 2 $ ' 3 : _ [ < < ",
"< < 4 5 [ _ 6 7 ' $ 8 > 9 .       - - - + 2 3 0 6 _ ( [ a a 4 4 ",
"5 5 5 5 4 < b ( : c / ' ' $ 2 2 ^ 2 2 2 % 3 6 b 4 4 a 4 a < 5 4 ",
"5 5 5 5 4 4 5 [ ( ( ( ( _ : : 7 0 0 6 6 _ _ d a 5 4 4 4 5 5 4 5 ",
"4 4 4 4 5 5 5 4 4 4 4 4 5 5 5 ( d [ 4 4 < 4 4 5 5 5 5 5 4 4 4 4 ",
"< 5 4 5 5 5 4 5 4 4 4 4 4 5 5 5 [ a 4 4 4 4 4 5 4 5 5 5 5 5 4 4 ",
"_ ( d a 4 4 4 < 5 4 5 5 5 5 5 4 a < 4 4 5 5 4 5 5 4 5 5 5 d ( _ ",
"/ , 6 b a 4 < a 5 5 5 4 5 5 a 4 5 4 5 5 5 4 5 5 5 4 4 5 d 6 / / ",
"> % } 0 _ ( [ [ 4 4 4 4 4 5 5 5 5 5 5 4 4 4 4 4 5 [ ( _ c 3 $ e ",
"@ # f f ' , 6 d a 4 < 4 5 5 5 < 4 4 a < 4 4 4 4 d _ , ' 2 g + # ",
"# # # # h % } c 6 _ _ ( d a a [ [ a a [ d ( _ _ c , % h ~ ! # # ",
"    # #   . i 2 % ' ' , 6 b j b j j j j : c / ' % ^ .       # # ",
"; # ; ;   k   # + ^ > % } 7 7 7 7 7 7 3 ' $ 8 |         k       ",
"; ; ; ;     =   ! ~ - * & > & i i i i | | ^ . @ # k # = # # = # ",
"l l l l g g m g n n 9 9 * @ @   - ! - - ! @ # + + ] 9 9 9 l l l ",
"o o o o p p q p r s t u v g w 1 -   - - x ] v v u u y z q A B o ",
"C C C D E E E o F F G q z H I J n 9 w n J I H z q p A K o L D C ",
"C C C C C D D D E M N N G G s t t t t s O P G N N M L D D D C C ",
"Q Q Q Q Q Q Q R S T U T T V V W W W W W X U T S Y R R Q Q Q Q Q ",
"Z Z Z Z Z Z ` Z Z ` Z ` ` ` ` ` ` ` ` ` ` `  . .Z Z Z Z Z Z Z Z ",
"................................................................"};
