/* XPM */
static char *result[] = {
/* columns rows colors chars-per-pixel */
"32 32 174 2 ",
"   c #F0C050",
".  c #F0C150",
"X  c #F0B54C",
"o  c #F0B74D",
"O  c #F0BB4E",
"+  c #F0BE4F",
"@  c #F0BF50",
"#  c #F0BB4F",
"$  c #F0B94E",
"%  c #F09C44",
"&  c #F0A346",
"*  c #F0AF49",
"=  c #F0B94C",
"-  c #F0BF4F",
";  c #F0C251",
":  c #F0BC4F",
">  c #F0AF4C",
",  c #F0A94A",
"<  c #F2813C",
"1  c #F2873D",
"2  c #F29440",
"3  c #F1A145",
"4  c #F0AD4A",
"5  c #F0B64D",
"6  c #F0BC4E",
"7  c #F0B34B",
"8  c #F1AE49",
"9  c #F2A347",
"0  c #F29543",
"q  c #F28D42",
"w  c #F66534",
"e  c #F66634",
"r  c #F66A35",
"t  c #F57739",
"y  c #F18C41",
"u  c #F09F46",
"i  c #F0AE49",
"p  c #F0B049",
"a  c #F19541",
"s  c #F5853B",
"d  c #F67837",
"f  c #F66D36",
"g  c #F66836",
"h  c #F85730",
"j  c #F8562F",
"k  c #F8552F",
"l  c #F75E32",
"z  c #F37139",
"x  c #F2843D",
"c  c #F29640",
"v  c #F1A445",
"b  c #F0AF4A",
"n  c #F0B54D",
"m  c #F0B84E",
"M  c #F0BA4E",
"N  c #F0C151",
"B  c #F0BA4D",
"V  c #F1B14A",
"C  c #F2A947",
"Z  c #F29F44",
"A  c #F29441",
"S  c #F2883D",
"D  c #F37939",
"F  c #F76A32",
"G  c #F85E2F",
"H  c #F8592F",
"J  c #F85931",
"K  c #F75F33",
"L  c #F66834",
"P  c #F67435",
"I  c #F58139",
"U  c #F19041",
"Y  c #F09C46",
"T  c #F0A549",
"R  c #F0AD4B",
"E  c #F0B34A",
"W  c #F0C351",
"Q  c #F0BA4C",
"!  c #F1AA46",
"~  c #F5903C",
"^  c #F67D37",
"/  c #F67236",
"(  c #F66B35",
")  c #F66734",
"_  c #F76233",
"`  c #F85D30",
"'  c #F85830",
"]  c #F85F2F",
"[  c #F76832",
"{  c #F37539",
"}  c #F2803E",
"|  c #F28941",
" . c #F29142",
".. c #F29742",
"X. c #F2A747",
"o. c #F2AB48",
"O. c #F2AA48",
"+. c #F2A848",
"@. c #F2A547",
"#. c #F38E3D",
"$. c #F77534",
"%. c #F8632F",
"&. c #F85A2F",
"*. c #F85630",
"=. c #F85A30",
"-. c #F85D31",
";. c #F76133",
":. c #F66434",
">. c #F66735",
",. c #F66A36",
"<. c #F66C36",
"1. c #F67136",
"2. c #F67A37",
"3. c #F67E38",
"4. c #F67B38",
"5. c #F67438",
"6. c #F67037",
"7. c #F66E36",
"8. c #F76934",
"9. c #F86131",
"0. c #F85B2F",
"q. c #F85B30",
"w. c #F66936",
"e. c #F76634",
"r. c #F86031",
"t. c #F28F43",
"y. c #F3853E",
"u. c #F77234",
"i. c #F0AB4B",
"p. c #F1A146",
"a. c #F48E3D",
"s. c #F66F36",
"d. c #F76534",
"f. c #F85F31",
"g. c #F85E31",
"h. c #F0BA4F",
"j. c #F2A647",
"k. c #F29644",
"l. c #F3843D",
"z. c #F77134",
"x. c #F8582F",
"c. c #F76C34",
"v. c #F3833D",
"b. c #F0BD50",
"n. c #F0B04C",
"m. c #F1A046",
"M. c #F58D3C",
"N. c #F67E37",
"B. c #F85C2F",
"V. c #F85D2F",
"C. c #F85E30",
"Z. c #F5883C",
"A. c #F19F46",
"S. c #F1B04A",
"D. c #F2A847",
"F. c #F29F43",
"G. c #F3853D",
"H. c #F8672F",
"J. c #F8682F",
"K. c #F76D32",
"L. c #F37639",
"P. c #F2803D",
"I. c #F29544",
"U. c #F2A447",
"Y. c #F1AF4A",
"T. c #F68337",
"R. c #F68438",
"E. c #F5883B",
"W. c #F19241",
"Q. c #F09B46",
"!. c #F0BD4E",
"~. c #F2AD48",
"^. c #F0B24B",
"/. c white",
/* pixels */
"                                                                ",
"                                                                ",
"                                                                ",
"                                                                ",
"                                                                ",
". .                                                             ",
". . .                                                       . . ",
"X o O +   .                                         . . . @ # $ ",
"% & * = - . .                                     . . ; ; : > , ",
"< 1 2 3 4 5 O +   . .                     . .   - 6 o 7 8 9 0 q ",
"w e r t y u i = - . . .                   . ; - = p & a s d f g ",
"h j k l z x c v b n m M 6 +   N N N ; . - B V C Z A S D F G H j ",
"h h h J K L P I U Y T R E = - ; ; ; W   Q ! ~ ^ / ( ) _ ` H ' h ",
"' ' ' ' h H ] [ { } |  ...Z X.o.o.O.+.@.Z #.$.%.&.j *.h h ' ' ' ",
"' ' ' ' h ' =.-.;.:.>.,.<.1.2.3.3.4.5.6.7.8.9.0.' h h h ' ' ' ' ",
"h h h ' ' ' ' h h h j j j H ] %.%.] H k j *.h ' ' ' ' ' ' h h h ",
"j h h ' ' ' ' ' h h h h h ' =.q.q.=.h *.h h h ' ' ' ' ' ' h h j ",
"w.e.r.0.' h h ' ' ' ' ' ' ' ' ' ' ' ' ' ' ' ' ' ' h h ' 0.r.e.w.",
"t.y.u.%.&.*.h ' ' ' ' ' ' ' ' ' ' ' ' ' ' ' ' ' ' h *.&.%.u.y.t.",
"i.p.a.^ s.d.f.0.' h h h h ' ' ' ' ' ' ' h h h ' H g.d.s.^ a.p.i.",
"h.o V j.k.l.z.%.&.j j h h h h h h h h h h h j x.G c.v.k.j.V o h.",
". . ; b.n.m.M.N./ <.,.e.r.B.B.` ` V.B.C.;.:.>.f d Z.A.n.b.; . . ",
"  . . @ : 5 S.D.F... .G.z.H.J.J.J.J.J.K.L.P.| I.U.Y.5 :   . .   ",
"        . . ; - = 7 R m.M.T.T.R.R.R.T.E.W.Q.T n.: ; . .         ",
"          . .   + !.# 5 S.~.~.~.~.~.~.8 ^.n m # @ . .           ",
"                    . . ; ; ; ; ; ; ; ; . . . .                 ",
"                      . . . . . . . . . . . .                   ",
"                                                                ",
"                                                                ",
"                                                                ",
"                                                                ",
"                                                                "
};
