/* XPM */
static char * piece4_xpm[] = {
"32 32 169 2",
"  	c #FF00FF",
". 	c #F4E8C5",
"+ 	c #DCB74A",
"@ 	c #CC9B0B",
"# 	c #D19F0C",
"$ 	c #C99407",
"% 	c #B37D00",
"& 	c #AC7500",
"* 	c #C3993F",
"= 	c #EEE2C8",
"- 	c #F7EFD8",
"; 	c #EDDA9E",
"> 	c #E0BD4C",
", 	c #DAAF23",
"' 	c #D4A823",
") 	c #C7981C",
"! 	c #C29214",
"~ 	c #C1942C",
"{ 	c #DBC592",
"] 	c #F3EAD4",
"^ 	c #E3C878",
"/ 	c #E7C850",
"( 	c #EED154",
"_ 	c #EACB52",
": 	c #E3BE39",
"< 	c #CD9F1B",
"[ 	c #B9902D",
"} 	c #C9AF71",
"| 	c #EFE8D7",
"1 	c #ECD796",
"2 	c #E0B41B",
"3 	c #F3D245",
"4 	c #F9DE5C",
"5 	c #F7DF67",
"6 	c #F3D75C",
"7 	c #CEA019",
"8 	c #D2BE91",
"9 	c #E3C775",
"0 	c #DDB636",
"a 	c #E8BE22",
"b 	c #F1C71B",
"c 	c #F7D12B",
"d 	c #FAD633",
"e 	c #F9D941",
"f 	c #F9DF60",
"g 	c #E4C241",
"h 	c #B58B2B",
"i 	c #C8AD6E",
"j 	c #E3B412",
"k 	c #EFC92A",
"l 	c #F4CB22",
"m 	c #F4CD2A",
"n 	c #E3B924",
"o 	c #D6C291",
"p 	c #ECE5D5",
"q 	c #F7D849",
"r 	c #F3D349",
"s 	c #DDAD11",
"t 	c #E1B929",
"u 	c #F1D456",
"v 	c #B9850D",
"w 	c #F5EBCB",
"x 	c #E1C157",
"y 	c #F9DA4B",
"z 	c #E2B721",
"A 	c #D4A30B",
"B 	c #ECCA45",
"C 	c #FAD83C",
"D 	c #F9D42D",
"E 	c #F9D223",
"F 	c #DAA70F",
"G 	c #C08C03",
"H 	c #BC933B",
"I 	c #EADEC4",
"J 	c #FCF6DA",
"K 	c #F2DB7C",
"L 	c #F0CE3F",
"M 	c #DEB21C",
"N 	c #B98302",
"O 	c #CD9A05",
"P 	c #F0E2AC",
"Q 	c #FAE05F",
"R 	c #F9D73D",
"S 	c #EABE18",
"T 	c #D6BA6C",
"U 	c #D5B145",
"V 	c #ECD15E",
"W 	c #F9E168",
"X 	c #BD8C11",
"Y 	c #E4BA19",
"Z 	c #B68806",
"` 	c #A0720B",
" .	c #9D792A",
"..	c #B69F6E",
"+.	c #E6E1D3",
"@.	c #ECE0BF",
"#.	c #C6A137",
"$.	c #C49305",
"%.	c #E7C63C",
"&.	c #FBE367",
"*.	c #E7CB5F",
"=.	c #C1911C",
"-.	c #BC8C02",
";.	c #936500",
">.	c #815600",
",.	c #9B7E3C",
"'.	c #E0D6C1",
").	c #EEC21A",
"!.	c #F6DA57",
"~.	c #FAE984",
"{.	c #E7D17C",
"].	c #ECBF17",
"^.	c #E5B915",
"/.	c #EDE2C2",
"(.	c #C7A239",
"_.	c #E2B40F",
":.	c #F8E991",
"<.	c #E7D48A",
"[.	c #B78808",
"}.	c #845C00",
"|.	c #9E803E",
"1.	c #C9A43D",
"2.	c #DAAA0D",
"3.	c #EDC116",
"4.	c #F3E28F",
"5.	c #C39A2A",
"6.	c #F4CA1C",
"7.	c #DED5C1",
"8.	c #BF9003",
"9.	c #D7A80F",
"0.	c #DEB738",
"a.	c #8B6300",
"b.	c #7A5500",
"c.	c #947C40",
"d.	c #F2E6C4",
"e.	c #DBB22A",
"f.	c #F0D663",
"g.	c #D2A210",
"h.	c #B58301",
"i.	c #DBB127",
"j.	c #E9C94F",
"k.	c #AB7B01",
"l.	c #7E5A00",
"m.	c #C5950A",
"n.	c #CF9F10",
"o.	c #A57400",
"p.	c #704E00",
"q.	c #937A3D",
"r.	c #D4A81F",
"s.	c #956900",
"t.	c #907739",
"u.	c #9C6E00",
"v.	c #755200",
"w.	c #6C4C00",
"x.	c #BC8D0B",
"y.	c #75580D",
"z.	c #876C29",
"A.	c #AE9B6E",
"B.	c #DFC891",
"C.	c #AE8103",
"D.	c #896F2D",
"E.	c #C1B491",
"F.	c #A46F00",
"G.	c #AB7A0B",
"H.	c #75570B",
"I.	c #B09E71",
"J.	c #AB862E",
"K.	c #E3DCC8",
"L.	c #AB8D40",
"                      . + @ # $ % & & * =                       ",
"                    - ; > , , ' ) ! % ~ { ]                     ",
"                  - ^ > / ( ( _ / : < ! [ } |                   ",
"                ] 1 : 2 3 4 4 4 5 6 : 7 % [ 8 |                 ",
"              - 9 0 a b c d d e f 5 6 g 7 ! h i |               ",
"            - 1 : j k c l b b m 4 5 4 3 n @ % h o p             ",
"          ] 9 0 a k q r a j s t u f e c l j $ v h i p           ",
"          w x 2 b d y r z A @ ' B y C D E b F G & H I           ",
"          J K L E E D k M $ N ! a C y y D b j O % H I           ",
"        | P K Q R c E l n < % G S d 4 4 e m S F N h 8 p         ",
"      w T U V W Q q c c r : X G Y d 4 5 4 q m j Z `  ...+.      ",
"      @.#.$.%.&.W Q D d 5 *.=.-.j m q 4 5 4 d Y Z ;.>.,.'.      ",
"      @.#.$.).e Q !.D e ~.{.~ N A ].c e f 4 d ^.Z ;.>.,.'.      ",
"      /.(.$._.c q q m R :.<.~ N # ^.b D y y d ^.[.;.}.|.'.      ",
"      /.1.$.2.3.c c Y %.4.<.[ N # ^.b E D D E Y Z ;.>.,.'.      ",
"      /.1.-.A _.3.3._.: 4.<.5.N # j b 6.6.6.E S [.;.>.,.7.      ",
"      /.(.8.A _.j j 9.0.4.<.~ N A _.^.^.^.3.6.Y [.a.b.,.7.      ",
"      /.1.$.A _.2.9.# 0 K {.~ N # _._.2.2.s b Y [.;.b.c.7.      ",
"      d.+ O 2._.s A # e.f.*.=.N # s F # g.9.j 9.h.;.>.,.7.      ",
"      . + A 2.2.@ @ @ i.u j.=.% # A g.# g.g.9.O k.;.l.c.7.      ",
"      . + A 2.2.m.$.@ e.u _ =.% G $ n.n.n.@ m.Z o.a.p.q.7.      ",
"      d.U O A O -.-.$.r.B g ! % % -.@ g.n.@ Z k.s.>.p.t.7.      ",
"      /.1.8.8.8.-.Z -.@ M M $.h.N -.@ g.7 @ h.u.l.v.w.t.7.      ",
"      ] T 5.[.N h.N h.-.@ @ -.-.-.$.@ g.@ x.o.}.v.y.z.A.+.      ",
"        ] B.~ % N N h.h.-.-.-.x.m.@ A @ $.C.a.v.w.D.E.+.        ",
"          I H & % h.% % -.-.-.$.@ n.@ m.Z o.l.w.w.q.7.          ",
"          I H F.& % h.-.m.@ @ m.8.x.-.Z C.u.l.w.w.t.7.          ",
"          p i h G.& h.[.m.@ m.m.Z h.h.k.u.a.v.H.z.A.+.          ",
"            p o h F.& % % N Z % k.o.o.u.}.v.w.z.E.+.            ",
"              | } h G.o.& o.F.u.s.s.s.a.v.y.D.I.+.              ",
"                ] o J.s.s.s.a.a.l.b.b.v.H.D.E.+.                ",
"                  K.L.a.;.a.}.b.v.p.p.p.w.c.7.                  "};
