/* XPM */
static char * piece2_xpm[] = {
"32 32 156 2",
"  	c #FF00FF",
". 	c #F7EFD9",
"+ 	c #F9E78D",
"@ 	c #F9E269",
"# 	c #EDCE53",
"$ 	c #D4A31E",
"% 	c #C38C05",
"& 	c #CA9306",
"* 	c #DBB64A",
"= 	c #F5EBCA",
"- 	c #F9F5E2",
"; 	c #F7ECB7",
"> 	c #F7DF73",
", 	c #F6D958",
"' 	c #F8DC56",
") 	c #EFCC44",
"! 	c #DCAD1D",
"~ 	c #D4A20D",
"{ 	c #D8A70B",
"] 	c #E0BA3E",
"^ 	c #EDD99A",
"/ 	c #F8ECA9",
"( 	c #F7E07B",
"_ 	c #F4CB2B",
": 	c #F7D130",
"< 	c #F9D22D",
"[ 	c #EDC223",
"} 	c #EEC21A",
"| 	c #DFB93C",
"1 	c #E4C97A",
"2 	c #F7F1D2",
"3 	c #F5D140",
"4 	c #F2C624",
"5 	c #EEC217",
"6 	c #F6CB1D",
"7 	c #F8D01F",
"8 	c #F8D020",
"9 	c #DDAA09",
"0 	c #DDB439",
"a 	c #ECD797",
"b 	c #F3D459",
"c 	c #F2C41A",
"d 	c #F8CF1F",
"e 	c #F1C116",
"f 	c #EBBB16",
"g 	c #E4B51D",
"h 	c #E4C877",
"i 	c #F5E5A7",
"j 	c #EEC749",
"k 	c #E4B414",
"l 	c #E6B915",
"m 	c #DDB545",
"n 	c #F5E8C6",
"o 	c #F6DD6E",
"p 	c #F2C932",
"q 	c #F0BF15",
"r 	c #DBAB12",
"s 	c #D29E0E",
"t 	c #EBBC18",
"u 	c #CC9A0D",
"v 	c #BE8905",
"w 	c #C4920A",
"x 	c #D7A812",
"y 	c #DFB113",
"z 	c #E6D095",
"A 	c #F2EAD5",
"B 	c #BC8C09",
"C 	c #AB7A02",
"D 	c #CA9E2F",
"E 	c #D2B26E",
"F 	c #F1E6D1",
"G 	c #F8F3D9",
"H 	c #EFD155",
"I 	c #F2C728",
"J 	c #B28206",
"K 	c #AA7400",
"L 	c #E1AF0F",
"M 	c #BB8404",
"N 	c #BC943B",
"O 	c #EADDC1",
"P 	c #F9E88E",
"Q 	c #F7D84F",
"R 	c #AC7909",
"S 	c #EBC33F",
"T 	c #B5890D",
"U 	c #E4BD27",
"V 	c #C1953B",
"W 	c #FBF3D5",
"X 	c #F6DB7A",
"Y 	c #D8AD25",
"Z 	c #B58A16",
"` 	c #E4C444",
" .	c #F9D94A",
"..	c #FAEEC5",
"+.	c #E3C652",
"@.	c #EEC52B",
"#.	c #C79C3F",
"$.	c #C88F06",
"%.	c #A57B05",
"&.	c #C38F09",
"*.	c #B58B1A",
"=.	c #E0B728",
"-.	c #D1A642",
";.	c #EDE1C3",
">.	c #B37B01",
",.	c #966B00",
"'.	c #D5A511",
").	c #CF9806",
"!.	c #D5AB44",
"~.	c #B6943F",
"{.	c #8C6400",
"].	c #D5A521",
"^.	c #C99309",
"/.	c #F1E4C3",
"(.	c #E2D9C1",
"_.	c #A4873D",
":.	c #845E00",
"<.	c #DDD5C2",
"[.	c #937C40",
"}.	c #795600",
"|.	c #C28D11",
"1.	c #745200",
"2.	c #876200",
"3.	c #A57301",
"4.	c #C88F08",
"5.	c #9A6D00",
"6.	c #B4870C",
"7.	c #B87F00",
"8.	c #907739",
"9.	c #6D4C00",
"0.	c #7F5A00",
"a.	c #E0D9C8",
"b.	c #AE9B6E",
"c.	c #896F2D",
"d.	c #76580D",
"e.	c #C3942E",
"f.	c #E6E1D3",
"g.	c #C1B491",
"h.	c #704E00",
"i.	c #DFC792",
"j.	c #DED8C8",
"k.	c #927A3C",
"l.	c #A16E00",
"m.	c #876C29",
"n.	c #76570B",
"o.	c #B28829",
"p.	c #C8AD6E",
"q.	c #ECE5D5",
"r.	c #916700",
"s.	c #D6C190",
"t.	c #B09E71",
"u.	c #9B700C",
"v.	c #AD872C",
"w.	c #CAB071",
"x.	c #95772E",
"y.	c #CDBC92",
"                      . + @ @ # $ % & * =                       ",
"                    - ; > , ' ) ! ~ { ] ^ .                     ",
"                  . / ( ) _ : < [ } } [ | 1 .                   ",
"                  2 ( 3 4 5 6 7 7 6 8 } 9 0 a 2                 ",
"                  = b c 6 6 d 8 6 6 c e f g 0 h .               ",
"                - i j e 6 6 8 6 f k l f c f ~ m n               ",
"              - / o p q e c 8 } r s ~ k c 5 { * n               ",
"            - ; > 3 4 e e 6 6 t u v w x } } y 0 z A             ",
"          . / @ ) 4 } e 6 6 c k B C % s t e f y D E F           ",
"          G + H I 5 e 6 d d c r J K w r f e 6 L M N O           ",
"          . P Q I e c 8 8 d c r J R x e q c 6 k % N O           ",
"        2 i o S [ c 6 8 6 6 } ~ J T U < 4 c d l v V O           ",
"      W X S Y ! t c d 8 c t ! u C Z `  .I c d l % V O           ",
"      ..j 9 % w k c d c c f x w C Z +., @.f 6 l % #.O           ",
"      n m $.%.J r e c c c f x &.C *.+.H =.k f k & -.O           ",
"      ;.#.>.,.%.r } t t f k '.w %.*.+.H Y ~ k L ).!.;           ",
"      O ~.,.{.%.r q ! x x x '.w C Z +.H ].^.~ ~ & !./.          ",
"      (._.:.{.%.'.k '.u u s s w C Z +.H ].^.u ^.& !./.          ",
"      <.[.}.:.%.u '.u ^.w u s |.%.*.+.H ].$.$.$.$.m /.          ",
"      <.[.1.2.3.B ^.^.4.4.^.^.&.%.Z ` ) $ $.$.% % #./.          ",
"      <.[.1.:.5.R v &.4.4.&.M >.3.6.U @.'.^.% % 7.#.;           ",
"      <.8.9.0.{.3.C % ^.4.% >.K 3.6.y k u % % % >.V (.          ",
"      <.8.9.1.0.{.3.v 4.4.&.>.K K M s '.% M % % >.V O           ",
"      a.b.c.d.1.:.5.>.&.4.4.7.>.>.7.&.B >.C M |.e.E F           ",
"        f.g.c.9.h.2.3.M % ^.% % >.>.>.>.3.K >.e.i.F             ",
"          j.k.9.9.0.5.C v % % % M >.>.>.K 3.l.N O               ",
"          <.8.9.9.}.{.3.>.>.7.7.% % % M >.K l.N O               ",
"          f.b.m.n.1.0.{.l.K K C J % v M >.R o.p.q.              ",
"            f.g.m.9.1.0.r.5.5.5.K R R K l.o.s.q.                ",
"              f.t.c.d.1.:.2.2.2.r.r.r.u.v.w.A                   ",
"                q.g.c.h.1.}.}.}.}.}.}.x.y.A                     ",
"                  j.[.9.9.9.h.h.9.9.9.[.j.                      "};
