/* XPM */
static char *result[] = {
/* columns rows colors chars-per-pixel */
"32 32 158 2 ",
"   c #6D4C00",
".  c #704E00",
"X  c #745200",
"o  c #795600",
"O  c #7F5A00",
"+  c #76570B",
"@  c #76580D",
"#  c #845E00",
"$  c #876200",
"%  c #8C6400",
"&  c #916700",
"*  c #966B00",
"=  c #9A6D00",
"-  c #9B700C",
";  c #A16E00",
":  c #A57301",
">  c #AA7400",
",  c #A57B05",
"<  c #AB7A02",
"1  c #AC7909",
"2  c #B37B01",
"3  c #B87F00",
"4  c #876C29",
"5  c #896F2D",
"6  c #95772E",
"7  c #907739",
"8  c #927A3C",
"9  c #937C40",
"0  c #B28206",
"q  c #BB8404",
"w  c #BE8905",
"e  c #B4870C",
"r  c #B5890D",
"t  c #BC8C09",
"y  c #B58A16",
"u  c #B58B1A",
"i  c #AD872C",
"p  c #B28829",
"a  c #A4873D",
"s  c #B6943F",
"d  c #BC943B",
"f  c #C38C05",
"g  c #C88F06",
"h  c #C38F09",
"j  c #C88F08",
"k  c #CA9306",
"l  c #CF9806",
"z  c #C4920A",
"x  c #C99309",
"c  c #CC9A0D",
"v  c #D29E0E",
"b  c #C28D11",
"n  c #D4A20D",
"m  c #D8A70B",
"M  c #DDAA09",
"N  c #D5A511",
"B  c #D7A812",
"V  c #DBAB12",
"C  c #D4A31E",
"Z  c #DCAD1D",
"A  c #DFB113",
"S  c #E1AF0F",
"D  c #E4B414",
"F  c #E6B915",
"G  c #EBBB16",
"H  c #E4B51D",
"J  c #EBBC18",
"K  c #F0BF15",
"L  c #C3942E",
"P  c #CA9E2F",
"I  c #C1953B",
"U  c #C79C3F",
"Y  c #D5A521",
"T  c #D8AD25",
"R  c #DDB439",
"E  c #DFB93C",
"W  c #E4BD27",
"Q  c #E0B728",
"!  c #E0BA3E",
"~  c #EEC217",
"^  c #EEC21A",
"/  c #F1C116",
"(  c #F2C41A",
")  c #F6CB1D",
"_  c #F8CF1F",
"`  c #F8D01F",
"'  c #EDC223",
"]  c #EEC52B",
"[  c #F2C624",
"{  c #F2C728",
"}  c #F4CB2B",
"|  c #F8D020",
" . c #F9D22D",
".. c #EBC33F",
"X. c #F2C932",
"o. c #F7D130",
"O. c #AE9B6E",
"+. c #B09E71",
"@. c #D1A642",
"#. c #D5AB44",
"$. c #DDB545",
"%. c #DBB64A",
"&. c #C8AD6E",
"*. c #D2B26E",
"=. c #CAB071",
"-. c #E4C444",
";. c #EFCC44",
":. c #EEC749",
">. c #F5D140",
",. c #F7D84F",
"<. c #F9D94A",
"1. c #E3C652",
"2. c #EDCE53",
"3. c #EFD155",
"4. c #F8DC56",
"5. c #F3D459",
"6. c #F6D958",
"7. c #F6DD6E",
"8. c #E4C877",
"9. c #E4C97A",
"0. c #F7DF73",
"q. c #F6DB7A",
"w. c #F9E269",
"e. c #F7E07B",
"r. c #C1B491",
"t. c #CDBC92",
"y. c #D6C190",
"u. c #DFC792",
"i. c #E6D095",
"p. c #ECD797",
"a. c #EDD99A",
"s. c #F9E78D",
"d. c #F9E88E",
"f. c #F5E5A7",
"g. c #F8ECA9",
"h. c #F7ECB7",
"j. c #DDD5C2",
"k. c #DED8C8",
"l. c #E2D9C1",
"z. c #EADDC1",
"x. c #E0D9C8",
"c. c #EDE1C3",
"v. c #F1E4C3",
"b. c #F5E8C6",
"n. c #FAEEC5",
"m. c #F5EBCA",
"M. c #E6E1D3",
"N. c #ECE5D5",
"B. c #F1E6D1",
"V. c #F2EAD5",
"C. c #F7EFD9",
"Z. c #F7F1D2",
"A. c #FBF3D5",
"S. c #F8F3D9",
"D. c #F9F5E2",
"F. c #F8F7F3",
"G. c #FCFAF5",
"H. c #FFFFFF",
/* pixels */
"H.H.H.H.H.H.H.H.H.H.H.C.s.w.w.2.C f k %.m.H.H.H.H.H.H.H.H.H.H.H.",
"H.H.H.H.H.H.H.H.H.G.D.h.0.6.4.;.Z n m ! a.C.G.H.H.H.H.H.H.H.H.H.",
"H.H.H.H.H.H.H.H.H.C.g.e.;.} o. .' ^ ^ ' E 9.C.H.H.H.H.H.H.H.H.H.",
"H.H.H.H.H.H.H.H.H.Z.e.>.[ ~ ) ` ` ) | ^ M R p.Z.G.H.H.H.H.H.H.H.",
"H.H.H.H.H.H.G.H.H.m.5.( ) ) _ | ) ) ( / G H R 8.C.H.H.H.H.H.H.H.",
"H.H.H.H.H.H.F.F.D.f.:./ ) ) | ) G D F G ( G n $.b.H.H.H.H.H.H.H.",
"H.H.H.H.H.H.H.D.g.7.X.K / ( | ^ V v n D ( ~ m %.b.H.H.H.H.H.H.H.",
"H.H.H.H.H.F.D.h.0.>.[ / / ) ) J c w z B ^ ^ A R i.V.G.H.H.H.H.H.",
"H.H.H.H.H.C.g.w.;.[ ^ / ) ) ( D t < f v J / G A P *.B.H.H.H.H.H.",
"H.H.H.H.H.S.s.3.{ ~ / ) _ _ ( V 0 > z V G / ) S q d z.H.H.H.H.H.",
"H.H.H.H.H.C.d.,.{ / ( | | _ ( V 0 1 B / K ( ) D f d z.H.H.H.H.H.",
"H.H.H.F.Z.f.7...' ( ) | ) ) ^ n 0 r W  .[ ( _ F w I z.H.H.H.H.H.",
"H.H.H.A.q...T Z J ( _ | ( J Z c < y -.<.{ ( _ F f I z.H.H.H.H.H.",
"H.H.H.n.:.M f z D ( _ ( ( G B z < y 1.6.] G ) F f U z.H.H.H.H.H.",
"H.H.H.b.$.g , 0 V / ( ( ( G B h < u 1.3.Q D G D k @.z.H.H.H.H.H.",
"H.H.H.c.U 2 * , V ^ J J G D N z , u 1.3.T n D S l #.h.H.H.H.H.H.",
"H.H.H.z.s * % , V K Z B B B N z < y 1.3.Y x n n k #.v.H.H.H.H.H.",
"H.H.H.l.a # % , N D N c c v v z < y 1.3.Y x c x k #.v.H.H.H.H.H.",
"H.H.H.j.9 o # , c N c x z c v b , u 1.3.Y g g g g $.v.H.H.H.H.H.",
"H.H.H.j.9 X $ : t x x j j x x h , y -.;.C g g f f U v.H.H.H.H.H.",
"H.H.H.j.9 X # = 1 w h j j h q 2 : e W ] N x f f 3 U h.H.H.H.H.H.",
"H.H.H.j.7   O % : < f x j f 2 > : e A D c f f f 2 I l.H.H.H.H.H.",
"H.H.H.j.7   X O % : w j j h 2 > > q v N f q f f 2 I z.H.H.H.H.H.",
"H.H.H.x.O.5 @ X # = 2 h j j 3 2 2 3 h t 2 < q b L *.B.H.H.H.H.H.",
"H.H.H.F.M.r.5   . $ : q f x f f 2 2 2 2 : > 2 L u.B.F.H.H.H.H.H.",
"H.H.H.H.H.k.8     O = < w f f f q 2 2 2 > : ; d z.H.H.H.H.H.H.H.",
"H.H.H.H.H.j.7     o % : 2 2 3 3 f f f q 2 > ; d z.H.H.H.H.H.H.H.",
"H.H.H.H.H.M.O.4 + X O % ; > > < 0 f w q 2 1 p &.N.H.H.H.H.H.H.H.",
"H.H.H.H.H.F.M.r.4   X O & = = = > 1 1 > ; p y.N.G.H.H.H.H.H.H.H.",
"H.H.H.H.H.H.H.M.+.5 @ X # $ $ $ & & & - i =.V.H.H.H.H.H.H.H.H.H.",
"H.H.H.H.H.H.H.G.N.r.5 . X o o o o o o 6 t.V.G.H.H.H.H.H.H.H.H.H.",
"H.H.H.H.H.H.H.H.H.k.9       . .       9 k.H.H.H.H.H.H.H.H.H.H.H."
};
