/* XPM */
static char *result[] = {
/* columns rows colors chars-per-pixel */
"32 32 250 2 ",
"   c white",
".  c #F7ECC5",
"X  c #E7C249",
"o  c #DFAD0A",
"O  c #DFAE0C",
"+  c #DFAF0F",
"@  c #E0AF0F",
"#  c #DBAA0C",
"$  c #D3A10A",
"%  c #DBB74A",
"&  c #F3E8C5",
"*  c #F9EEC6",
"=  c #ECC94C",
"-  c #E5B60D",
";  c #E5B60F",
":  c #E6B813",
">  c #E0B00F",
",  c #D4A30B",
"<  c #DBB64A",
"1  c #FCF2C8",
"2  c #F5D551",
"3  c #F2C615",
"4  c #F2C717",
"5  c #F2C81A",
"6  c #F3C81B",
"7  c #E9BD14",
"8  c #D7A70D",
"9  c #DAB649",
"0  c #F3E7C5",
"q  c #FDF5CD",
"w  c #FADF63",
"e  c #F8D42D",
"r  c #F8D42F",
"t  c #F9D532",
"y  c #F9D633",
"u  c #EFC726",
"i  c #DCAD12",
"p  c #DDB949",
"a  c #F4E8C5",
"s  c #FDF7D6",
"d  c #FAE57F",
"f  c #F8DC53",
"g  c #F8DC54",
"h  c #F9DD58",
"j  c #F9DE59",
"k  c #F1D042",
"l  c #E2B61B",
"z  c #E4BF48",
"x  c #F6EAC4",
"c  c #FDF8DB",
"v  c #FAE88D",
"b  c #F8DF65",
"n  c #F8E066",
"m  c #F8E16A",
"M  c #F8E16B",
"N  c #F3D450",
"B  c #E8BD21",
"V  c #EAC549",
"C  c #F8ECC5",
"Z  c #FDF7DA",
"A  c #FAE78C",
"S  c #F8DF64",
"D  c #F8E069",
"F  c #F8E169",
"G  c #F5D650",
"H  c #EFC324",
"J  c #F1CC4C",
"K  c #FAEEC6",
"L  c #FDF8DF",
"P  c #FAEA9A",
"I  c #F8E376",
"U  c #F8E377",
"Y  c #F8E47B",
"T  c #F8E57C",
"R  c #F6DA5F",
"E  c #F2C72A",
"W  c #F4CF4E",
"Q  c #FBEFC6",
"!  c #FDFAE8",
"~  c #FAF1B6",
"^  c #F8EC9C",
"/  c #F8EC9D",
"(  c #F8EDA1",
")  c #F8EDA2",
"_  c #F6E17B",
"`  c #F2C933",
"'  c #F4CE4D",
"]  c #FBEFC5",
"[  c #FDFCED",
"{  c #FAF4C5",
"}  c #F8F0B1",
"|  c #F8F0B2",
" . c #F8F1B5",
".. c #F8F2B6",
"X. c #F6E48A",
"o. c #F2CA38",
"O. c #F4CE4C",
"+. c #F2CB38",
"@. c #F5E07A",
"#. c #EFC632",
"$. c #F0CB4B",
"%. c #FAEEC5",
"&. c #F8E57B",
"*. c #F3D75D",
"=. c #E8BE25",
"-. c #F8ECC4",
";. c #FDF8DA",
":. c #FAE88C",
">. c #F8E064",
",. c #F8E065",
"<. c #F9E169",
"1. c #F9E26A",
"2. c #F2D44F",
"3. c #E5BA20",
"4. c #E7C248",
"5. c #F7EBC4",
"6. c #F9E065",
"7. c #F9E167",
"8. c #FAE26B",
"9. c #E6BB20",
"0. c #FCF5D5",
"q. c #F6DF7D",
"w. c #F2D34F",
"e. c #F0D150",
"r. c #EFD254",
"t. c #EFD255",
"y. c #E8C63E",
"u. c #DBAF18",
"i. c #E0BB45",
"p. c #F5E9C3",
"a. c #F9EFCB",
"s. c #EDCD5A",
"d. c #E3B821",
"f. c #DDB222",
"g. c #DAB126",
"h. c #DBB126",
"j. c #D4A71A",
"k. c #C69706",
"l. c #D0AC40",
"z. c #F0E4C2",
"x. c #F5EAC4",
"c. c #D19F04",
"v. c #CA9806",
"b. c #C8950A",
"n. c #C28F04",
"m. c #B88500",
"M. c #C7A13D",
"N. c #EDE1C1",
"B. c #F0E5C2",
"V. c #D1AC3F",
"C. c #BE8B00",
"Z. c #B98300",
"A. c #B78103",
"S. c #B57E00",
"D. c #B27A00",
"F. c #C59B3D",
"G. c #ECDFC1",
"H. c #B17D00",
"J. c #AD7700",
"K. c #AB7500",
"L. c #AC7500",
"P. c #AA7300",
"I. c #A77100",
"U. c #BD963E",
"Y. c #EADDC1",
"T. c #EDDFC1",
"R. c #AD7600",
"E. c #A67200",
"W. c #A47100",
"Q. c #A47200",
"!. c #9F6E00",
"~. c #986A00",
"^. c #B18F3E",
"/. c #E6DBC1",
"(. c #EBDEC1",
"). c #C0973E",
"_. c #A67100",
"`. c #9E6E00",
"'. c #9C6E00",
"]. c #966900",
"[. c #8D6300",
"{. c #A7893E",
"}. c #E3D9C1",
"|. c #E9DDC1",
" X c #BA943E",
".X c #9E6C00",
"XX c #966A00",
"oX c #936A00",
"OX c #946A00",
"+X c #8E6400",
"@X c #855B00",
"#X c #A1833E",
"$X c #E1D7C1",
"%X c #E8DDC1",
"&X c #B7933E",
"*X c #9A6B00",
"=X c #926800",
"-X c #906800",
";X c #896100",
":X c #7E5600",
">X c #9B7E3E",
",X c #DFD6C1",
"<X c #936800",
"1X c #916900",
"2X c #876000",
"3X c #775300",
"4X c #957B3E",
"5X c #DDD5C1",
"6X c #E7DCC1",
"7X c #B5913E",
"8X c #966800",
"9X c #8F6400",
"0X c #8C6400",
"qX c #8D6400",
"wX c #835D00",
"eX c #735100",
"rX c #927A3E",
"tX c #DCD4C1",
"yX c #E5DBC1",
"uX c #AE8F3E",
"iX c #8E6300",
"pX c #865D00",
"aX c #845C00",
"sX c #7D5600",
"dX c #714F00",
"fX c #DCD5C1",
"gX c #E3DAC1",
"hX c #A88A3E",
"jX c #815800",
"kX c #805800",
"lX c #7A5300",
"zX c #704E00",
"xX c #E1D8C1",
"cX c #A2833E",
"vX c #805700",
"bX c #7F5700",
"nX c #714E00",
"mX c #795200",
"MX c #7C5600",
"NX c #775200",
"BX c #704D00",
"VX c #724F00",
"CX c #745200",
"ZX c #6E4C00",
"AX c #6C4C00",
"SX c #6D4D00",
"DX c #6F5000",
"FX c #6E4D00",
"GX c #6D4C00",
"HX c #937A3E",
/* pixels */
"                      . X o O + @ # $ % &                       ",
"                      * = - ; : : > , < &                       ",
"                      1 2 3 4 5 6 7 8 9 0                       ",
"                      q w e r t y u i p a                       ",
"                      s d f g h j k l z x                       ",
"                      c v b n m M N B V C                       ",
"                      Z A S b D F G H J K                       ",
"                      L P I U Y T R E W Q                       ",
"                      ! ~ ^ / ( ) _ ` ' ]                       ",
"                      [ { } |  ...X.o.O.]                       ",
"                      [ { } |  ...X.+.O.]                       ",
"                      ! ~ ^ / ( ) @.#.$.%.                      ",
"                      L P I U &.T *.=.V -.                      ",
"                      ;.:.>.,.<.1.2.3.4.5.                      ",
"                      c v 6.7.1.8.N 9.4.5.                      ",
"                      0.q.w.e.r.t.y.u.i.p.                      ",
"                      a.s.d.f.g.h.j.k.l.z.                      ",
"                      x.i.c.v.b.b.n.m.M.N.                      ",
"                      B.V.C.Z.A.A.S.D.F.G.                      ",
"                      N.M.H.J.K.L.P.I.U.Y.                      ",
"                      T.F.R.E.W.Q.!.~.^./.                      ",
"                      (.)._.`.'.'.].[.{.}.                      ",
"                      |. X.XXXoXOX+X@X#X$X                      ",
"                      %X&X*X=X-X-X;X:X>X,X                      ",
"                      %X&X*X<X-X1X2X3X4X5X                      ",
"                      6X7X8X9X0XqXwXeXrXtX                      ",
"                      yXuXiXpXaXaXsXdXrXfX                      ",
"                      gXhXpXjXkXkXlXzXrXfX                      ",
"                      xXcXvXbXkXkXlXnXrXfX                      ",
"                      ,X>XmXlXMXMXNXBXrXfX                      ",
"                      5X4XzXVXCXCXdXZXrXfX                      ",
"                      fXrXAXSXDXDXFXGXHXfX                      "
};
