/* XPM */
static char *result[] = {
/* columns rows colors chars-per-pixel */
"32 32 175 2 ",
"   c #8C6400",
".  c #926700",
"X  c #956900",
"o  c #9B6D00",
"O  c #9F7400",
"+  c #A67400",
"@  c #A87600",
"#  c #AD7D01",
"$  c #A57509",
"%  c #A97E08",
"&  c #B67E02",
"*  c #AF830F",
"=  c #B58401",
"-  c #BA8401",
";  c #BD8A02",
":  c #A88529",
">  c #AC892F",
",  c #AB8C3D",
"<  c #B48E30",
"1  c #BE9732",
"2  c #B5913F",
"3  c #C38C03",
"4  c #C59405",
"5  c #C99605",
"6  c #CB9C06",
"7  c #C6950A",
"8  c #C9950B",
"9  c #CD9C0D",
"0  c #D09D07",
"q  c #D19D0B",
"w  c #C59514",
"e  c #C59914",
"r  c #CE9F11",
"t  c #CFA00D",
"y  c #D6A507",
"u  c #D4A40D",
"i  c #D9A70B",
"p  c #DBAA0C",
"a  c #CEA118",
"s  c #D2A210",
"d  c #D7A812",
"f  c #DBAB11",
"g  c #D3A21D",
"h  c #D5AA1F",
"j  c #D9AC1A",
"k  c #DFB316",
"l  c #E0AF0B",
"z  c #E3B20C",
"x  c #E2B312",
"c  c #E6B914",
"v  c #E9BA14",
"b  c #E6B71B",
"n  c #E7B81E",
"m  c #E8BD1D",
"M  c #C3962C",
"N  c #C79F30",
"B  c #C2973C",
"V  c #CAA12C",
"C  c #D9AF26",
"Z  c #DDB42B",
"A  c #CCA232",
"S  c #C7A23A",
"D  c #C8A43D",
"F  c #D7AE3B",
"G  c #DAB334",
"H  c #DEB738",
"J  c #E2B721",
"K  c #E9BF25",
"L  c #E3BC36",
"P  c #E7BF3B",
"I  c #EEC217",
"U  c #EEC31A",
"Y  c #F0C118",
"T  c #F4C81A",
"R  c #F5CA1C",
"E  c #F9D01F",
"W  c #EDC323",
"Q  c #ECC429",
"!  c #F1C924",
"~  c #F0C62B",
"^  c #F4CD2C",
"/  c #F9D223",
"(  c #F7D12B",
")  c #F9D32C",
"_  c #EAC435",
"`  c #E7C13D",
"'  c #F2CA34",
"]  c #F2CF3C",
"[  c #FAD735",
"{  c #F8D536",
"}  c #F7D43C",
"|  c #F8D73D",
" . c #AC8E40",
".. c #B69340",
"X. c #BA9440",
"o. c #BFA96F",
"O. c #C29840",
"+. c #D5AA44",
"@. c #DDB746",
"#. c #DDB848",
"$. c #E4BF48",
"%. c #D1B16F",
"&. c #D6BB6E",
"*. c #C0AA70",
"=. c #E4C144",
"-. c #E9C642",
";. c #ECCB43",
":. c #E6C24B",
">. c #E9C44B",
",. c #EFCA4E",
"<. c #F5D444",
"1. c #FADA43",
"2. c #F5D248",
"3. c #F9DA4A",
"4. c #ECCC50",
"5. c #F3CF51",
"6. c #EFD150",
"7. c #F4D552",
"8. c #F7DA55",
"9. c #F9DB54",
"0. c #F3D75A",
"q. c #F5DA5C",
"w. c #F9DD5A",
"e. c #EED362",
"r. c #F2D967",
"t. c #F7DD64",
"y. c #F8DE64",
"u. c #E4C979",
"i. c #EED97E",
"p. c #F2DE7F",
"a. c #F8E067",
"s. c #F6E06E",
"d. c #F9E26B",
"f. c #F8E373",
"g. c #F5E17F",
"h. c #F8E47B",
"j. c #D0BE90",
"k. c #D5C294",
"l. c #DEC691",
"z. c #DFCA94",
"x. c #EFDE8C",
"c. c #E1CC90",
"v. c #EAD495",
"b. c #ECD897",
"n. c #F2DD9F",
"m. c #F5E282",
"M. c #F8E683",
"N. c #FBE984",
"B. c #F2E28E",
"V. c #F8E88C",
"C. c #F8EA94",
"Z. c #F5E79B",
"A. c #F8EB9B",
"S. c #F8EEA5",
"D. c #F8EFAC",
"F. c #F8F0AF",
"G. c #F2E6B8",
"H. c #F8F1B2",
"J. c #F9F1BC",
"K. c #E5DBC3",
"L. c #EBDEC3",
"P. c #EEE3C5",
"I. c #F2E7C6",
"U. c #F4E9C6",
"Y. c #F8EEC6",
"T. c #F2E6C9",
"R. c #F6EBC8",
"E. c #F9F1CB",
"W. c #ECE6D5",
"Q. c #F1E7D2",
"!. c #F3EAD5",
"~. c #F7EFD8",
"^. c #F9F3D6",
"/. c #FCF9F4",
"(. c white",
/* pixels */
"(.(.(.(.(.(.(.(.(.(.(.T.+.3 3 3 3 3 3 +.T.(.(.(.(.(.(.(.(.(.(.(.",
"(.(.(.(.(.(.(./.~.R.R.b.G q r C g g g $.n.Y.T.T./.(.(.(.(.(.(.(.",
"(.(.(.(.(.(.(.~.u.#.#.` n n -.4.4.5.,.,.5.>.F &.!.(.(.(.(.(.(.(.",
"(.(.(.(.(./.~.b.H p b K _ 2.w.d.y.f.y.q.] c 5 N c.!./.(.(.(.(.(.",
"(.(.(.(.(.~.u.H U W ] q.g.m.s.d.f.y.d.a.w.] k u V &.!.(.(.(.(.(.",
"(.(.(./.~.b.H x ! 1.d.V.D.S.V.s.q.0.9.w.a.8.W i 5 V c.!./.(.(.(.",
"(.(.(.!.u.H m ! <.a.V.S.F.F.S.m.-.K ^ | w.0.~ c i u V &.Q.(.(.(.",
"(.(.(.U.@.p W 1.d.V.D.H.H.H.H.B.>.m Y ' t.t.' Y v p 3 S P.(.(.(.",
"(.(.(.U.$.k ] d.C.S.F.H.H.H.H.A.r.] m P m.N.| R R c ; S P.(.(.(.",
"(./.!.v.P W 7.h.C.S.D.F.S.D.J.F.M.7.J L x.C.9.[ E I 6 V z.!./.(.",
"(.W.%.V m ^ 8.f.f.V.S.S.N.C.^.E.V.6.j L x.S.f.3.( U d e M %.Q.(.",
"(.L.B 3 c [ w.y.w.s.A.A.d.h.^.^.M.;.j G i.C.y.3.( U k 5 & B L.(.",
"(.L.B ; x [ w.w.| 9.C.C.3.t.E.E.y.! f Z e.y.3.( R I x q = B L.(.",
"(.L.B ; c ) 3.3.( | M.h.} 7.Y.Y.9.v i C 2.3.( T m v x 6 & B L.(.",
"(.L.B 3 c / ) ) E { a.t.^ 5.U.E.9.I d j ^ ) ! v v z d 7 # X.L.(.",
"(.L.B 3 c / E R R ^ <.<.W ,.U.Y.9.I f d v E v c x p s 3 @ ..L.(.",
"(.L.B - v / E v v m W W c :.U.E.w.I j d m v v x i r 8 3 @ ..K.(.",
"(.L.O.3 x E v v x z v v z :.U.E.9.I u u x v x f s q 8 - + ..K.(.",
"(.L.O.3 x v v x l x x z p >.I.E.8.I 6 7 p x d s r r 8 - o  .K.(.",
"(.L.O.3 l v x f l f f p z =.G.J.9.v 4 ; q f u r r q 8 - o  .K.(.",
"(.L.O.& y x x p d s s i p ` Z.A.3.c 3 = e d r u r 9 4 & o  .K.(.",
"(.L.B & 0 x x x s r r u d L p.N.1.c 3 = 8 r s r r 9 ; $ X , K.(.",
"(.L.B & 8 f c c d r r q u Z r.a.[ m ; = 8 s r r s 8 ; $ . , K.(.",
"(.Q.%.M w q x c f s r s 9 h ` ;.Q f ; - 8 s d s 9 7 % $ $ o.W.(.",
"(./.!.l.M 3 i x z d s s r r e e w ; = ; 9 u p i 7 = o : j.W./.(.",
"(.(.(.Q.%.M r y p k d u s 6 4 - & = ; 4 9 d d t = % : o.W.(.(.(.",
"(.(.(./.Q.l.M 3 i z k p f u 6 8 7 7 7 s p d 6 = O : j.W./.(.(.(.",
"(.(.(.(.(.Q.%.M t y y p k x k j d s t 6 t 5 = % : o.W.(.(.(.(.(.",
"(.(.(.(.(./.!.c.V ; ; 6 p v U U c d 4 ; = @ X : j.W./.(.(.(.(.(.",
"(.(.(.(.(.(.(.!.&.S D A a u k k s 7 = * < .., *.W.(.(.(.(.(.(.(.",
"(.(.(.(.(.(.(./.W.P.P.z.1 = = * * O o > k.K.K.W./.(.(.(.(.(.(.(.",
"(.(.(.(.(.(.(.(.(.(.(.P.2 X X o       , K.(.(.(.(.(.(.(.(.(.(.(."
};
