/* XPM */
static char *result[] = {
/* columns rows colors chars-per-pixel */
"32 32 171 2 ",
"   c #6C4C00",
".  c #704E00",
"X  c #755200",
"o  c #7A5500",
"O  c #7E5A00",
"+  c #75570B",
"@  c #75580D",
"#  c #815600",
"$  c #845C00",
"%  c #8B6300",
"&  c #936500",
"*  c #956900",
"=  c #9C6E00",
"-  c #A46F00",
";  c #A57400",
":  c #AC7500",
">  c #AB7B01",
",  c #A0720B",
"<  c #AB7A0B",
"1  c #B37D00",
"2  c #876C29",
"3  c #896F2D",
"4  c #9D792A",
"5  c #907739",
"6  c #937A3D",
"7  c #9B7E3C",
"8  c #947C40",
"9  c #AE8103",
"0  c #B58301",
"q  c #B98302",
"w  c #B68806",
"e  c #BC8C02",
"r  c #B9850D",
"t  c #B78808",
"y  c #BC8D0B",
"u  c #BF9003",
"i  c #BD8C11",
"p  c #9E803E",
"a  c #AB862E",
"s  c #B58B2B",
"d  c #B9902D",
"f  c #BC933B",
"g  c #C08C03",
"h  c #C49305",
"j  c #C99407",
"k  c #CD9A05",
"l  c #C5950A",
"z  c #CC9B0B",
"x  c #D19F0C",
"c  c #C29214",
"v  c #CF9F10",
"b  c #C1911C",
"n  c #C7981C",
"m  c #CD9F1B",
"M  c #D4A30B",
"N  c #DAA70F",
"B  c #D7A80F",
"V  c #DAAA0D",
"C  c #CEA019",
"Z  c #D2A210",
"A  c #DDAD11",
"S  c #D4A81F",
"D  c #DEB21C",
"F  c #E2B40F",
"G  c #E3B412",
"H  c #E5B915",
"J  c #ECBF17",
"K  c #E0B41B",
"L  c #E4BA19",
"P  c #EABE18",
"I  c #C1942C",
"U  c #C39A2A",
"Y  c #C3993F",
"T  c #D4A823",
"R  c #DAAF23",
"E  c #DBB127",
"W  c #DBB22A",
"Q  c #C6A137",
"!  c #C7A239",
"~  c #C9A43D",
"^  c #DDB636",
"/  c #DEB738",
"(  c #E2B721",
")  c #E3B924",
"_  c #E8BE22",
"`  c #E1B929",
"'  c #E3BE39",
"]  c #EDC116",
"[  c #EEC21A",
"{  c #F1C71B",
"}  c #F4CA1C",
"|  c #EFC92A",
" . c #F4CB22",
".. c #F4CD2A",
"X. c #F9D223",
"o. c #F7D12B",
"O. c #F9D42D",
"+. c #E7C63C",
"@. c #F0CE3F",
"#. c #FAD633",
"$. c #F9D73D",
"%. c #FAD83C",
"&. c #AB8D40",
"*. c #AE9B6E",
"=. c #B69F6E",
"-. c #B09E71",
";. c #D5B145",
":. c #DCB74A",
">. c #E0BD4C",
",. c #C8AD6E",
"<. c #D6BA6C",
"1. c #C9AF71",
"2. c #E4C241",
"3. c #ECCA45",
"4. c #E9C94F",
"5. c #F3D245",
"6. c #F9D941",
"7. c #F3D349",
"8. c #F7D849",
"9. c #F9DA4B",
"0. c #E1C157",
"q. c #E7C850",
"w. c #EACB52",
"e. c #E7CB5F",
"r. c #EED154",
"t. c #ECD15E",
"y. c #F1D456",
"u. c #F6DA57",
"i. c #F3D75C",
"p. c #F9DE5C",
"a. c #FAE05F",
"s. c #F0D663",
"d. c #F7DF67",
"f. c #F9DF60",
"g. c #E3C775",
"h. c #E3C878",
"j. c #E7D17C",
"k. c #F2DB7C",
"l. c #FBE367",
"z. c #F9E168",
"x. c #C1B491",
"c. c #D2BE91",
"v. c #D6C291",
"b. c #DBC592",
"n. c #DFC891",
"m. c #E7D48A",
"M. c #ECD796",
"N. c #EDDA9E",
"B. c #FAE984",
"V. c #F3E28F",
"C. c #F8E991",
"Z. c #F0E2AC",
"A. c #ECE0BF",
"S. c #DED5C1",
"D. c #E0D6C1",
"F. c #EADEC4",
"G. c #E3DCC8",
"H. c #EDE2C2",
"J. c #EEE2C8",
"K. c #F2E6C4",
"L. c #F4E8C5",
"P. c #F5EBCB",
"I. c #E6E1D3",
"U. c #ECE5D5",
"Y. c #EFE8D7",
"T. c #F3EAD4",
"R. c #F7EFD8",
"E. c #FCF6DA",
"W. c #F8F7F3",
"Q. c #FBF9F4",
"!. c white",
/* pixels */
"!.!.!.!.!.!.!.!.!.!.!.L.:.z x j 1 : : Y J.!.!.!.!.!.!.!.!.!.!.!.",
"!.!.!.!.!.!.!.!.!.Q.R.N.>.R R T n c 1 I b.T.Q.!.!.!.!.!.!.!.!.!.",
"!.!.!.!.!.!.!.!.!.R.h.>.q.r.r.w.q.' m c d 1.Y.!.!.!.!.!.!.!.!.!.",
"!.!.!.!.!.!.!.Q.T.M.' K 5.p.p.p.d.i.' C 1 d c.Y.Q.!.!.!.!.!.!.!.",
"!.!.!.!.!.!.!.R.g.^ _ { o.#.#.6.f.d.i.2.C c s ,.Y.!.!.!.!.!.!.!.",
"!.!.!.!.!.Q.R.M.' G | o. .{ { ..p.d.p.5.) z 1 s v.U.W.!.!.!.!.!.",
"!.!.!.!.!.T.g.^ _ | 8.7._ G A ` y.f.6.o. .G j r s ,.U.!.!.!.!.!.",
"!.!.!.!.!.P.0.K { #.9.7.( M z T 3.9.%.O.X.{ N g : f F.!.!.!.!.!.",
"!.!.!.!.!.E.k.@.X.X.O.| D j q c _ %.9.9.O.{ G k 1 f F.!.!.!.!.!.",
"!.!.!.W.Y.Z.k.a.$.o.X. .) m 1 g P #.p.p.6...P N q s c.U.W.!.!.!.",
"!.!.!.P.<.;.t.z.a.8.o.o.7.' i g L #.p.d.p.8...G w , 4 =.I.!.!.!.",
"!.!.!.A.Q h +.l.z.a.O.#.d.e.b e G ..8.p.d.p.#.L w & # 7 D.!.!.!.",
"!.!.!.A.Q h [ 6.a.u.O.6.B.j.I q M J o.6.f.p.#.H w & # 7 D.!.!.!.",
"!.!.!.H.! h F o.8.8...$.C.m.I q x H { O.9.9.#.H t & $ p D.!.!.!.",
"!.!.!.H.~ h V ] o.o.L +.V.m.d q x H { X.O.O.X.L w & # 7 D.!.!.!.",
"!.!.!.H.~ e M F ] ] F ' V.m.U q x G { } } } X.P t & # 7 S.!.!.!.",
"!.!.!.H.! u M F G G B / V.m.I q M F H H H ] } L t % o 7 S.!.!.!.",
"!.!.!.H.~ h M F V B x ^ k.j.I q x F F V V A { L t & o 8 S.!.!.!.",
"!.!.!.K.:.k V F A M x W s.e.b q x A N x Z B G B 0 & # 7 S.!.!.!.",
"!.!.!.L.:.M V V z z z E y.4.b 1 x M Z x Z Z B k > & O 8 S.!.!.!.",
"!.!.!.L.:.M V V l h z W y.w.b 1 g j v v v z l w ; % . 6 S.!.!.!.",
"!.!.!.K.;.k M k e e h S 3.2.c 1 1 e z Z v z w > * # . 5 S.!.!.!.",
"!.!.!.H.~ u u u e w e z D D h 0 q e z Z C z 0 = O X   5 S.!.!.!.",
"!.!.!.T.<.U t q 0 q 0 e z z e e e h z Z z y ; $ X @ 2 *.I.!.!.!.",
"!.!.!.Q.T.n.I 1 q q 0 0 e e e y l z M z h 9 % X   3 x.I.W.!.!.!.",
"!.!.!.!.!.F.f : 1 0 1 1 e e e h z v z l w ; O     6 S.!.!.!.!.!.",
"!.!.!.!.!.F.f - : 1 0 e l z z l u y e w 9 = O     5 S.!.!.!.!.!.",
"!.!.!.!.!.U.,.s < : 0 t l z l l w 0 0 > = % X + 2 *.I.!.!.!.!.!.",
"!.!.!.!.!.W.U.v.s - : 1 1 q w 1 > ; ; = $ X   2 x.I.W.!.!.!.!.!.",
"!.!.!.!.!.!.!.Y.1.s < ; : ; - = * * * % X @ 3 -.I.!.!.!.!.!.!.!.",
"!.!.!.!.!.!.!.Q.T.v.a * * * % % O o o X + 3 x.I.Q.!.!.!.!.!.!.!.",
"!.!.!.!.!.!.!.!.!.G.&.% & % $ o X . . .   8 S.!.!.!.!.!.!.!.!.!."
};
