/* XPM */
static char *b86aee5622e346f8af98b6a349455fbfwPOc4mESpTjDAcNd[] = {
/* columns rows colors chars-per-pixel */
"32 32 122 2 ",
"   c #570F08",
".  c #5B1305",
"X  c #5B1308",
"o  c #631B03",
"O  c #621A08",
"+  c #691F08",
"@  c #6C2404",
"#  c #6F2708",
"$  c #742B05",
"%  c #722A08",
"&  c #7C3306",
"*  c #7B3408",
"=  c #853B07",
"-  c #883E06",
";  c #803708",
":  c #843B08",
">  c #8B3E08",
",  c #8D4206",
"<  c #874008",
"1  c #8C4208",
"2  c #914606",
"3  c #944A06",
"4  c #9B4E06",
"5  c #924608",
"6  c #954908",
"7  c #9B4D08",
"8  c #9C5106",
"9  c #9B5109",
"0  c #A45505",
"q  c #A85705",
"w  c #A65802",
"e  c #AD5D02",
"r  c #A25208",
"t  c #AC5D09",
"y  c #B05F00",
"u  c #AE6002",
"i  c #AE630C",
"p  c #B26201",
"a  c #B86701",
"s  c #B66803",
"d  c #BB6C01",
"f  c #B96E08",
"g  c #BC720B",
"h  c #B16811",
"j  c #BC7514",
"k  c #BD7A1A",
"l  c #C37301",
"z  c #C97700",
"x  c #CB7C01",
"c  c #C17609",
"v  c #C47A0D",
"b  c #CA7E08",
"n  c #C47D12",
"m  c #C27E1A",
"M  c #CE850F",
"N  c #D28707",
"B  c #D4880A",
"V  c #C68016",
"C  c #CC8614",
"Z  c #CB8815",
"A  c #C7831B",
"S  c #C8851E",
"D  c #CD8B1B",
"F  c #D28C12",
"G  c #D08A18",
"H  c #CE911F",
"J  c #D59115",
"K  c #D99416",
"L  c #D4931C",
"P  c #D8971F",
"I  c #D69C1E",
"U  c #CE952C",
"Y  c #D19727",
"T  c #D79E23",
"R  c #D89D23",
"E  c #D39A2B",
"W  c #D39F37",
"Q  c #D9A127",
"!  c #D9A22A",
"~  c #DDAA2E",
"^  c #D4A137",
"/  c #DCA633",
"(  c #DFAD33",
")  c #D5A43E",
"_  c #DDAC3E",
"`  c #E0AF37",
"'  c #E0B038",
"]  c #D9A640",
"[  c #DBAB42",
"{  c #DCAD4A",
"}  c #DFB244",
"|  c #DFB049",
" . c #DAAF50",
".. c #DCB253",
"X. c #E1B444",
"o. c #E0B34A",
"O. c #E1B553",
"+. c #E5BC55",
"@. c #E0B65B",
"#. c #E3BC5C",
"$. c #E5BE62",
"%. c #E6C267",
"&. c #E8C664",
"*. c #E8C764",
"=. c #E6C369",
"-. c #E8C66B",
";. c #E9C76D",
":. c #EDD174",
">. c #E6C886",
",. c #EED28D",
"<. c #EFD38F",
"1. c #EDD8A3",
"2. c #F1DBA9",
"3. c #F1DCAA",
"4. c #F1DCAB",
"5. c #F1E1C0",
"6. c #F2E4C2",
"7. c #F1E4C9",
"8. c #F2E7CC",
"9. c #F3E8CC",
"0. c #F3EBDA",
"q. c #F7F6F6",
/* pixels */
"' ` ` ( ( ( ( ~ ! T T T T T K K R P N z a e e e r 7 4 r r 7 2 - ",
"` X.#.%.&.%.%.%.@.@.O.{ [ ! J P / / P C n j j j h t i t 0 4 > = ",
"( #.1.9.8.8.9.8.8.5.2.,.-.[ C G O.&.o._ ) ) ) ^ Y D m v p r - * ",
"( %.9.q.0.7.7.8.8.5.4.<.;.[ n n o.#.{ ) ) ) ) ^ Y G F b a 4 & % ",
"( =.9.0.>...@.@.#...@.o.X.E g g G L m j j j j j g f f p t 2 $ o ",
"~ $.6.5.O.R R T T T T T I Z s p z z a e e e y e y y y q 8 > @ . ",
"! O.2.3.O.R T T T T T I F c 0 8 d z a y p e y y p e q r 6 ; o . ",
"T o.,.,.o.T ! ! ! T T F M a 3 3 d z a p p p p y y q 0 4 , & O   ",
"T [ -.;.X.Q Q Q Q I J b s 8 5 3 a l a p u u p u q 0 r 7 1 * O   ",
"R ! [ [ Y D D H Y Z g p r 3 < 3 w u e w w w w 0 7 7 7 6 1 * O   ",
"K J C n g f f f g u 4 , < < < 1 2 3 3 , - - < 2 1 > 1 < : % X X ",
"B F Z A j j j j s w , * 2 9 8 8 3 3 2 , * * 3 8 4 4 4 , : % X   ",
"z D { #.{ ^ ) U v e , 2 u d d d a u w 8 < 2 p d d d a e 2 * X   ",
"a S #.:.#.{ X.E v u 3 4 d N x z l d p w 2 8 d x N x d u 2 * O   ",
"y m ..&.X.! P M f w 2 3 u a a a a p p w 2 2 u a a a a e < % X X ",
"y k  .#./ J x l a w 2 2 w u u u u p p w 2 2 w u p u u 8 - % X   ",
"e k  .+.P N d p p w 2 2 w y e p p p p w 2 3 w p y e q 7 ; # O   ",
"y j ] _ C l a u e w 2 2 w p p e p e q w 2 2 w y y q r 6 ; # O   ",
"y f P P c p u e q 7 , 2 w p u p p e q 8 2 2 w u q 0 r 6 = # O   ",
"e s g g u w w w 7 6 > < 8 w w w w w 7 6 < < 8 w 8 4 7 5 & + X   ",
"0 r 9 3 2 2 2 2 , < * ; < , , , < 2 < < * : , 2 5 1 , = @ o X   ",
"7 7 9 9 4 3 3 3 3 6 , , 3 < * ; 2 4 4 2 , < , 2 2 2 1 = @ o X . ",
"1 9 h v f u s p a p p u w 8 < 2 p d d s p u e w w w 7 5 & @ .   ",
"< 9 v B z d d d d d d d a w 2 8 d x d d d d p u e q 0 7 ; # O   ",
"< 8 c N d p p a p p a p p q 2 3 p l d p p p p y q 0 0 6 ; # O   ",
": 4 d z a u u u y y p y e w 2 6 p l p y p y e q r r 7 6 ; % O   ",
"< 3 a d p u p p y p p y q 8 1 4 p l p p p e 0 r r 7 6 < ; # X   ",
"< 3 u s p e e e e e e q r 2 < 2 e a y e e e 0 r 7 6 < ; $ + O   ",
"> 5 r e q 0 q 0 q r q r 6 - & > 9 t q q 0 r r 7 6 < : $ @ o .   ",
"= = > 2 5 > > > > > > > ; * # % : > > > > > 5 > ; * % @ o .   . ",
"& $ @ @ @ @ + + + + + + O O O O + + + + + + + + + O O . X     . ",
"* $ o o o . X                                             X     "
};
