/* XPM */
static char * herbeD_xpm[] = {
"32 32 190 2",
"  	c #67E000",
". 	c #6CDB00",
"+ 	c #79D500",
"@ 	c #82D400",
"# 	c #7BCC00",
"$ 	c #80CF00",
"% 	c #6CC400",
"& 	c #5CBE00",
"* 	c #88CF40",
"= 	c #DFF2C8",
"- 	c #FF00FF",
"; 	c #73E300",
"> 	c #6FE300",
", 	c #7BD400",
"' 	c #74CD00",
") 	c #65C703",
"! 	c #7CCD2E",
"~ 	c #AAE292",
"{ 	c #D5F2D7",
"] 	c #8AEB02",
"^ 	c #93ED00",
"/ 	c #84EA00",
"( 	c #7FE500",
"_ 	c #81E500",
": 	c #88E300",
"< 	c #74DE00",
"[ 	c #69D700",
"} 	c #48C42C",
"| 	c #6FD373",
"1 	c #94F104",
"2 	c #98F307",
"3 	c #87F606",
"4 	c #2FBC00",
"5 	c #3DC12D",
"6 	c #96DE92",
"7 	c #C8ECC8",
"8 	c #8BF604",
"9 	c #92F614",
"0 	c #91F618",
"a 	c #95F82A",
"b 	c #89F819",
"c 	c #8DF416",
"d 	c #79F602",
"e 	c #46BC04",
"f 	c #3DC340",
"g 	c #6AF400",
"h 	c #7AF80B",
"i 	c #91F81F",
"j 	c #9CF832",
"k 	c #74F905",
"l 	c #54F700",
"m 	c #55F803",
"n 	c #12B300",
"o 	c #00B300",
"p 	c #4DF901",
"q 	c #64F80B",
"r 	c #86F828",
"s 	c #ACF848",
"t 	c #B4F854",
"u 	c #B6F859",
"v 	c #4AF604",
"w 	c #23F500",
"x 	c #2AF500",
"y 	c #00AC00",
"z 	c #37F707",
"A 	c #A7F83D",
"B 	c #BCF861",
"C 	c #0CEE00",
"D 	c #13F401",
"E 	c #5AD800",
"F 	c #52C400",
"G 	c #3DF802",
"H 	c #6EF806",
"I 	c #B0F84D",
"J 	c #01F300",
"K 	c #39DE00",
"L 	c #17D600",
"M 	c #11C500",
"N 	c #00BB00",
"O 	c #0AAD01",
"P 	c #16F800",
"Q 	c #29F805",
"R 	c #00EB00",
"S 	c #0BF200",
"T 	c #1AE300",
"U 	c #00E300",
"V 	c #00D300",
"W 	c #00C300",
"X 	c #04F800",
"Y 	c #11EB00",
"Z 	c #55E200",
"` 	c #00DB00",
" .	c #00A300",
"..	c #5EF811",
"+.	c #75F81E",
"@.	c #3EF703",
"#.	c #71EB00",
"$.	c #00CB00",
"%.	c #009B00",
"&.	c #1CF703",
"*.	c #0CE700",
"=.	c #21E200",
"-.	c #23D900",
";.	c #009500",
">.	c #018D00",
",.	c #018300",
"'.	c #0D910D",
").	c #2EA72E",
"!.	c #40B240",
"~.	c #047D00",
"{.	c #2C9B2B",
"].	c #92CC92",
"^.	c #328A06",
"/.	c #249704",
"(.	c #2C8404",
"_.	c #277C04",
":.	c #218500",
"<.	c #1D8502",
"[.	c #0D8500",
"}.	c #117F00",
"|.	c #0B7900",
"1.	c #71BD71",
"2.	c #D7ECD7",
"3.	c #A37B17",
"4.	c #77840E",
"5.	c #576B00",
"6.	c #876A0B",
"7.	c #845C0B",
"8.	c #6F5E09",
"9.	c #696001",
"0.	c #676100",
"a.	c #258902",
"b.	c #30912D",
"c.	c #D86E19",
"d.	c #AE7715",
"e.	c #58840D",
"f.	c #4B7A04",
"g.	c #B3630F",
"h.	c #BB6413",
"i.	c #B55C12",
"j.	c #AB541A",
"k.	c #9A4D0E",
"l.	c #964E0C",
"m.	c #944D06",
"n.	c #2F6E00",
"o.	c #5E9242",
"p.	c #D0DEC7",
"q.	c #6F730C",
"r.	c #BD7320",
"s.	c #BB6C1B",
"t.	c #C0751D",
"u.	c #A44E14",
"v.	c #9B4F11",
"w.	c #795907",
"x.	c #B37B4C",
"y.	c #C7791C",
"z.	c #D6771B",
"A.	c #D97A1D",
"B.	c #9C7814",
"C.	c #C37B20",
"D.	c #B96615",
"E.	c #A45215",
"F.	c #97500F",
"G.	c #E5D6C6",
"H.	c #D7811E",
"I.	c #A3801A",
"J.	c #BB761D",
"K.	c #CB8524",
"L.	c #AF6021",
"M.	c #9B5112",
"N.	c #BB7F53",
"O.	c #EAD7C9",
"P.	c #DE9125",
"Q.	c #DD9228",
"R.	c #DE8D24",
"S.	c #D38422",
"T.	c #B6651E",
"U.	c #B15D1D",
"V.	c #BE8157",
"W.	c #E9A73B",
"X.	c #E6A53B",
"Y.	c #E39C33",
"Z.	c #D6942D",
"`.	c #D18C29",
" +	c #E9AA41",
".+	c #E29D2E",
"++	c #DC9D33",
"@+	c #A95719",
"#+	c #E1A034",
"$+	c #C97C20",
"                          .   . + @ # @ $ @ $ # % & & * = - - - ",
"; ; ; ; ; > > > > > > > > > > ; , @ @ @ , , + ' ) ) ) ! ~ { - - ",
"] ^ ] ] / ( _ ( ( / _ _ ( ( ( _ : : : < < . . . [ [ ' ) } | { - ",
"1 1 1 2 ] ] ] ] ] ] ] ] ] ] 3 ( / ] ] ] ; > > > > ; @ ) 4 5 6 7 ",
"3 8 9 0 a b c c b b c c 8 / d d d 8 1 ] / ( _ ( _ : @ % e e 5 f ",
"g h i a j j j j j j a i 3 k l m k 8 2 2 ^ ] ] ] ] : @ $ % e n o ",
"p q r s t u u u u t s a q v w x g 8 9 9 ^ ^ ] : : : @ $ ' e n y ",
"z v r A t B B B B u A r v w C D l k b 9 9 ^ ^ ] ] _ [ E F 4 n o ",
"x G H a A I I s I A i H v D J D x p h 3 9 9 1 ^ ] ; K L L M N O ",
"P Q m k a A s A A a h m Q D R J S x l k c 9 2 1 ]   T U V W o y ",
"X P G q b j s s j b q G D J R U R Y x v k 8 2 ^ ( Z T ` V W y  .",
"X X w G ..+.r r +...@.w S R U U ` ` C x l g #.> Z K L V $.o y %.",
"R R C D &.Q z z Q &.D C R ` ` V V V *.*.T =.-.-.L L $.$.N y  .;.",
"U R R J J X S D X J J R ` ` V $.V V ` ` U ` ` $.$.$.$.N o  .%.%.",
"U U R J J X J J J J R U ` V $.$.$.$.$.` ` ` V $.$.$.W N y  .%.;.",
"` ` U R J X J J J R R ` V $.W W W W $.$.V ` V $.W W N o  .%.%.%.",
"V ` U R R J J J R R U U V W N o o N N $.$.$.$.W N o y  .%.%.;.%.",
"$.V ` U R J R R R U ` V $.N o y y o N N W W N o y  .%.;.%.;.;.;.",
"W $.V ` U R R U U ` V W N y  .%. .y y o o o y y  .%.;.>.>.;.;.;.",
"N N W V U U R U U V $.N o  .%.;.;.%.y y y  .%.;.;.>.,.,.,.'.).!.",
" .o W $.$.` U U ` V N o  .%.>.>.>.;.%. .%.%.;.>.,.~.~.~.~.{.].7 ",
"^./.O N W $.$.$.W N y %./.(.(._._._.:.:.:.<.[.[.}.|.|.}.{.1.2.- ",
"3.4./. .y y o y  . .%.<.5.6.6.7.8.8.9.0.0.5.(.a.(.<.|.b.].2.- - ",
"c.d.e./.'.%.%.%.;.;.a.f.6.g.h.i.j.k.l.m.m.7.0.e.f.f.n.o.p.- - - ",
"c.c.d.q.a.;.>.>.>.<.4.3.r.s.t.i.j.u.u.u.u.v.7.w.7.w.w.x.p.- - - ",
"y.z.A.d.e.(.(.(.a.e.B.C.C.r.D.g.i.j.j.j.j.j.E.F.v.v.v.x.G.- - - ",
"A.H.H.y.d.B.3.3.I.I.J.K.K.r.J.s.i.i.L.L.j.u.M.F.F.v.u.N.O.- - - ",
"P.Q.P.R.A.A.z.z.S.H.K.K.K.K.K.J.s.D.s.T.U.E.M.F.F.v.E.V.O.- - - ",
"W.W.X.Y.R.R.R.R.P.Q.Z.`.Z.`.K.C.t.J.t.r.T.L.M.F.v.v.E.N.O.- - - ",
" + + +X.Y..+.+.+.+++++++++Z.`.K.y.C.C.C.r.L.@+M.M.v.M.N.O.- - - ",
" + + +X.X.X.W.W.X.X.++++++++Z.`.K.C.r.C.r.r.L.M.v.F.l.x.G.- - - ",
" + + + + + + + + +X.X.++#+#+++Z.K.$+C.r.r.r.L.@+M.l.m.x.G.- - - "};
