/* XPM */
static char * herbeG_xpm[] = {
"32 32 191 2",
"  	c #FF00FF",
". 	c #DFF2C8",
"+ 	c #88CF40",
"@ 	c #5CBE00",
"# 	c #6CC400",
"$ 	c #7BCC00",
"% 	c #82D400",
"& 	c #7BD400",
"* 	c #80CF00",
"= 	c #6CDB00",
"- 	c #67E000",
"; 	c #D5F2D7",
"> 	c #AAE292",
", 	c #7CCD2E",
"' 	c #52C400",
") 	c #65C703",
"! 	c #74CD00",
"~ 	c #74DE00",
"{ 	c #73E300",
"] 	c #6FE300",
"^ 	c #6FD373",
"/ 	c #48C42C",
"( 	c #69D700",
"_ 	c #88E300",
": 	c #81E500",
"< 	c #84EA00",
"[ 	c #7FE500",
"} 	c #8AEB02",
"| 	c #94F104",
"1 	c #C8ECC8",
"2 	c #96DE92",
"3 	c #3DC12D",
"4 	c #2FBC00",
"5 	c #8DF416",
"6 	c #98F307",
"7 	c #3DC340",
"8 	c #46BC04",
"9 	c #93ED00",
"0 	c #8BF604",
"a 	c #87F606",
"b 	c #74F905",
"c 	c #79F602",
"d 	c #91F618",
"e 	c #00AC00",
"f 	c #12B300",
"g 	c #54F700",
"h 	c #6EF806",
"i 	c #95F82A",
"j 	c #9CF82E",
"k 	c #A7F83D",
"l 	c #9CF832",
"m 	c #89F819",
"n 	c #92F614",
"o 	c #37F707",
"p 	c #23F500",
"q 	c #3EF703",
"r 	c #64F80B",
"s 	c #86F828",
"t 	c #A9F83E",
"u 	c #B4F854",
"v 	c #B6F859",
"w 	c #ACF848",
"x 	c #4DF901",
"y 	c #00B300",
"z 	c #5AD800",
"A 	c #13F401",
"B 	c #0CEE00",
"C 	c #55F803",
"D 	c #BCF861",
"E 	c #4AF604",
"F 	c #3DF802",
"G 	c #0AAD01",
"H 	c #11C500",
"I 	c #17D600",
"J 	c #39DE00",
"K 	c #2AF500",
"L 	c #0BF200",
"M 	c #16F800",
"N 	c #91F81F",
"O 	c #B0F84D",
"P 	c #29F805",
"Q 	c #00CB00",
"R 	c #00D300",
"S 	c #00DB00",
"T 	c #1AE300",
"U 	c #00EB00",
"V 	c #01F300",
"W 	c #7AF80B",
"X 	c #00A300",
"Y 	c #00C300",
"Z 	c #55E200",
"` 	c #11EB00",
" .	c #00E300",
"..	c #04F800",
"+.	c #009B00",
"@.	c #00BB00",
"#.	c #71EB00",
"$.	c #6AF300",
"%.	c #5EF811",
"&.	c #75F81E",
"*.	c #23D900",
"=.	c #21E200",
"-.	c #0CE700",
";.	c #1CF703",
">.	c #009500",
",.	c #018D00",
"'.	c #40B240",
").	c #2EA72E",
"!.	c #0D910D",
"~.	c #018300",
"{.	c #92CC92",
"].	c #2C9B2B",
"^.	c #047D00",
"/.	c #D7ECD7",
"(.	c #71BD71",
"_.	c #0B7900",
":.	c #168605",
"<.	c #0D8500",
"[.	c #1D8502",
"}.	c #218500",
"|.	c #277C04",
"1.	c #2C8304",
"2.	c #249704",
"3.	c #328A06",
"4.	c #30912D",
"5.	c #258902",
"6.	c #576B00",
"7.	c #686001",
"8.	c #6F5E09",
"9.	c #845C0B",
"0.	c #876A0B",
"a.	c #77840E",
"b.	c #A37B17",
"c.	c #D0DEC7",
"d.	c #5E9242",
"e.	c #2F6E00",
"f.	c #4B7A04",
"g.	c #577A06",
"h.	c #934D06",
"i.	c #9A4D0E",
"j.	c #A44E14",
"k.	c #B55C12",
"l.	c #BB6413",
"m.	c #B3630F",
"n.	c #58830D",
"o.	c #AE7714",
"p.	c #D86E18",
"q.	c #E5D6C6",
"r.	c #978247",
"s.	c #795907",
"t.	c #9B5112",
"u.	c #9B4F11",
"v.	c #AB531A",
"w.	c #BB6C1B",
"x.	c #BB761D",
"y.	c #9C7814",
"z.	c #6F730C",
"A.	c #C7791C",
"B.	c #B37B4C",
"C.	c #C37B20",
"D.	c #D97A1D",
"E.	c #D6771B",
"F.	c #EAD7C9",
"G.	c #BB7F53",
"H.	c #A95719",
"I.	c #B15D1C",
"J.	c #B5651D",
"K.	c #C0751D",
"L.	c #C97C20",
"M.	c #BD7320",
"N.	c #A3801A",
"O.	c #D7811E",
"P.	c #BE8157",
"Q.	c #A45215",
"R.	c #97500F",
"S.	c #AF6021",
"T.	c #CB8523",
"U.	c #D18C29",
"V.	c #DE8D24",
"W.	c #DD9228",
"X.	c #D6942D",
"Y.	c #DE9125",
"Z.	c #E09229",
"`.	c #E39C33",
" +	c #E6A53B",
".+	c #E9A73B",
"++	c #DC9D33",
"@+	c #E29D2E",
"#+	c #E1A034",
"$+	c #E9AA41",
"%+	c #964E0C",
"      . + @ @ # $ % & * * * % & = = - - - - - - - - = - - - - - ",
"    ; > , ' ) # ! & & & % % % ~ ~ { ] ] ] ] ] ] ] ] ] ] { { { { ",
"  ; ^ / ) ! ( ( = = = ~ % _ _ _ : < [ [ [ [ : : : [ [ : } } | } ",
"1 2 3 4 ) & { ] ] ] ] { < } < < < < < } } } } } 5 } } } | 6 | | ",
"7 3 8 @ ! % : < [ [ [ < 9 0 a a b c a a 5 5 5 5 5 5 5 5 d 5 0 0 ",
"e f 8 # $ % _ } _ } } 9 9 | a b g g h a i i j k l l l j j m b h ",
"e f 8 # $ % _ } } } 9 | n n 0 h o p q r s t u v v v v u w s r x ",
"y f 4 ' z ( [ } } } | 6 n 5 b g A B p C s k u v D D D v t s E F ",
"y G H I I J { } | | n n n b x K L L M E h N k O O O O k i h F P ",
"e y Q R S T - } 9 6 n m b g K L U V L K g W i k k w k i b g P M ",
"X e Y Q S T Z < 9 | 0 b x K `  .U U V A F r s k k k j m r F M ..",
"+.X @.Q S I J z ] #.$.g K `  .S  . .U L p F %.&.s s &.%.q p ....",
"+.X e @.Q Q I I *.*.=.T -. .S R R S S U B A ;.P o o P ;.A B U U ",
">.+.X y Y Q Q R R R S S S S R Q Q R R  .U V V V ;.L ....V U U  .",
"+.+.X e @.Y Q Q Q R S  .S R Q Q Q Q R S  .U V V V V ..V U U  . .",
">.+.+.X y @.@.Y Q R S R Q Q Y Y Y Y Q R S U U U V V ..V U  . .S ",
"+.+.+.+.X e y @.Y Y Q Q Y Y @.y y @.Y R S U U U V V V V U  .S R ",
">.>.>.>.+.+.e e y @.Y Y @.@.e e e e @.Q R S  . .U U V U  .S R Q ",
">.>.,.,.,.>.+.+.X e y y y y e X +.X y @.Q R  . .U U U  .S R Q Y ",
"'.).!.~.~.~.,.>.>.X X e e e +.>.>.+.X y @.Q R S  . . .S R Q @.y ",
"1 {.].~.^.^.^.^.,.>.+.X X +.>.,.,.>.+.X y @.Q S  . .S R Q @.e e ",
"  /.(.]._._._.:.<.<.[.}.}.}.|.|.|.|.1.2.X e @.Q Q Q Y Y @.G 2.3.",
"    /.{.4._.}.5.5.3.6.7.7.7.8.9.0.0.0.6.[.>.X X y e e e e 2.a.b.",
"      c.d.e.f.g.f.7.9.h.h.h.i.j.k.l.m.0.f.5.>.>.+.+.+.!.2.n.o.p.",
"      q.r.s.s.9.9.9.t.j.u.j.j.v.k.l.w.x.y.a.[.>.,.,.,.5.z.o.A.p.",
"      q.B.i.i.u.u.u.v.v.v.v.v.v.l.w.x.C.C.y.n.1.1.1.3.g.o.D.E.E.",
"      F.G.t.u.i.t.u.j.H.I.J.k.k.w.K.C.C.L.M.N.y.y.y.y.o.A.O.D.O.",
"      F.P.Q.R.i.R.t.Q.S.J.w.J.K.x.A.T.T.U.U.T.O.D.D.p.D.V.W.W.W.",
"      F.P.Q.u.R.R.t.S.w.M.M.M.M.A.T.U.X.X.X.V.Y.V.V.V.Z.`. +.+.+",
"      q.G.Q.R.R.t.t.S.M.C.M.M.T.T.U.X.++++++++@+@+@+@+#+.+$+$+.+",
"      q.B.R.R.t.H.S.w.x.M.T.C.T.U.X.++++++#+ + +.+ +.+.+.+$+$+$+",
"      q.B.%+R.t.t.S.M.T.M.M.L.T.X.++#+++#+#+ +$+$+$+$+$+$+$+$+$+"};
