/* XPM */
static char * SRH_xpm[] = {
"32 32 116 2",
"  	c #720000",
". 	c #910000",
"+ 	c #A20000",
"@ 	c #AC0000",
"# 	c #B30902",
"$ 	c #BB130A",
"% 	c #C61F12",
"& 	c #CA301F",
"* 	c #CB3A28",
"= 	c #D0453A",
"- 	c #CE2417",
"; 	c #CE0A03",
"> 	c #CA0400",
", 	c #BC0100",
"' 	c #9E0000",
") 	c #8E0000",
"! 	c #7C0000",
"~ 	c #6A0000",
"{ 	c #630000",
"] 	c #5C0000",
"^ 	c #B10000",
"/ 	c #E51104",
"( 	c #F32D14",
"_ 	c #F95431",
": 	c #F77F53",
"< 	c #F7AE84",
"[ 	c #FFD5B2",
"} 	c #F7BFA1",
"| 	c #FE8D62",
"1 	c #F64F2F",
"2 	c #F61A08",
"3 	c #E6140A",
"4 	c #DD1108",
"5 	c #C50802",
"6 	c #C10200",
"7 	c #DE0400",
"8 	c #FF1E09",
"9 	c #FF4B2A",
"0 	c #FF8B5C",
"a 	c #FFD3AD",
"b 	c #FFF9E2",
"c 	c #FFFBE7",
"d 	c #FFF3D9",
"e 	c #FFCB9A",
"f 	c #FF9A64",
"g 	c #FF7948",
"h 	c #FF6D41",
"i 	c #FF5A34",
"j 	c #FF4927",
"k 	c #FB361A",
"l 	c #F71303",
"m 	c #810000",
"n 	c #FFFFEF",
"o 	c #FFF7DF",
"p 	c #FFAC76",
"q 	c #FF8754",
"r 	c #FF7546",
"s 	c #FF623A",
"t 	c #F43C20",
"u 	c #FF2109",
"v 	c #FE1404",
"w 	c #FFA46A",
"x 	c #FFD2A5",
"y 	c #E70100",
"z 	c #FFD09F",
"A 	c #FFD8B2",
"B 	c #FFFDE9",
"C 	c #FF3C1E",
"D 	c #D51407",
"E 	c #DC3920",
"F 	c #D76948",
"G 	c #D7A187",
"H 	c #DCC4B5",
"I 	c #D7C0B2",
"J 	c #D7B9A9",
"K 	c #DCAB8E",
"L 	c #D88159",
"M 	c #D6633D",
"N 	c #DC5B35",
"O 	c #D84B2C",
"P 	c #D63820",
"Q 	c #DC2F17",
"R 	c #D91907",
"S 	c #DB0F03",
"T 	c #8B0241",
"U 	c #6E0A06",
"V 	c #70110C",
"W 	c #701713",
"X 	c #6C1514",
"Y 	c #721C1D",
"Z 	c #720A06",
"` 	c #83003F",
" .	c #FF00FF",
"..	c #BB0A05",
"+.	c #EE0900",
"@.	c #F40900",
"#.	c #F3210E",
"$.	c #F65B37",
"%.	c #F46741",
"&.	c #F4361C",
"*.	c #D40000",
"=.	c #FF6A3D",
"-.	c #FFAE78",
";.	c #FFBB92",
">.	c #FFDCB8",
",.	c #FF2610",
"'.	c #FF2812",
").	c #E90300",
"!.	c #FF1A05",
"~.	c #FF4625",
"{.	c #FFC996",
"].	c #FF7847",
"^.	c #762324",
"/.	c #782627",
"(.	c #FFC795",
"_.	c #782728",
"  . + @ # $ % & * * = = - ; ; > > , ' ' ' ) ) ) ! !       ~ { ] ",
"! ' ^ > / ( _ : < [ [ } | 1 ( ( 2 3 4 ; 5 > 6 @ @ ' . ) ! ~ { ] ",
"! . + ^ 7 8 9 0 a b c d e f g h i j k 2 2 l 7 , @ + . m   { { ] ",
"! . + ^ 7 l 9 | [ c n o e p q r s 9 t u 8 v 7 , @ + . m   { { ] ",
"! . + ^ 7 v 9 | [ c n o e w q r s 9 t u u v 7 , ^ + . m   { { ] ",
"m ) + ^ 7 2 9 | [ c n o x w q r s 9 t u 8 v y , ^ + ) m   { { ] ",
"! . ' ^ y v 9 | [ c n o z w q r s 9 t u 8 v 7 , ^ + . m   { { ] ",
"! . ' ^ 7 2 9 | [ c n b e p q r s 9 t u 8 v 7 , ^ + ) m   { { ] ",
"! ) ' ^ 7 l 9 | A B n b x p q r s 9 C u 8 v 7 , ^ + . m   { { ] ",
"~ m . + , D E F G H I J K L M N O P Q R D S 6 + ' . m   ~ { { ] ",
"T U { { ~   U V W X Y Y X V V U U Z U     U ~ ~ ~ { { { ] ] ] ` ",
" .X ] ~ ~ !                   ~         ! ~ ~ ~ ~ ~ { { { ] ]  .",
" .Y ~ ) + 6 , ..5 $ $ $ ......, , , ^ , @ + ) ! ! ~ { { { ] ]  .",
" .Y ~ . , +.@.#.t $.%.%.1 &.2 l @.+.y *., ^ ' ) m   { { ] ] ]  .",
" .Y ~ ) 6 @.v C =.0 -.;.0 i C 8 v @.y *., @ + ) m   ~ { { ] ]  .",
" .Y ~ ) 6 @.8 j r w e >.p h j ,.v @.y *., ^ + . !   ~ { ] ] ]  .",
" .Y { ) , +.8 j g w x >.-.r 9 '.v @.).*., ^ + ) m   ~ { { ] ]  .",
" .Y ~ ) 6 @.!.j r w z >.-.r 9 '.v @.).*., ^ + ) m ~ ~ ~ { ] ]  .",
" .Y ~ ) 6 @.!.~.r w e >.-.r 9 ,.v @.).*., @ + ) m   ~ { ] ] ]  .",
" .Y ~ ) , @.8 j r w e >.-.r 9 '.v @.).*., ^ + ) m   { { { ] ]  .",
" .Y { ) 6 @.8 9 r w {.>.-.].9 '.v @.).*., ^ + ) m   ~ ~ { ] ]  .",
" .Y ~ ) 6 +.!.~.r w e >.-.r 9 '.v @.).*., ^ + ) m ~ ~ { ] ] ]  .",
" .Y ~ ) 6 @.8 ~.r w e >.-.r 9 '.v @.).*., ^ + ) m   ~ { { ] ]  .",
" .^.~ ) , @.!.~.].w {.A -.].9 '.v @.).*., ^ + ) m ~ { { { ] ]  .",
" ./.~ ) , +.!.~.r w (.A -.].9 '.v @.).*., ^ + . m   ~ { { ] ]  .",
" ._.~ ) , +.!.~.r w (.a -.g 9 '.v @.).*., ^ + . m   ~ { ] ] ]  .",
" ./.{ ) , +.!.~.r w {.A -.].9 '.v @.).*., ^ + ) !   ~ { { ] ]  .",
" ./.~ ) , +.!.~.r w {.A -.].9 '.v @.).*., ^ + . m   ~ { { ] ]  .",
" ./.~ ) , +.!.~.r w (.a -.g 9 '.v @.).7 6 ^ + . m   ~ { { ] ]  .",
" .^.~ ) , +.!.~.r w (.A -.g 9 '.v @.y *., ^ + . m ~ ~ { ] ] ]  .",
" ._.~ ) , +.!.~.r w {.A -.].9 '.v @.y *., ^ + . m   ~ { { ] ]  .",
" ._.~ ) , +.!.~.r w (.a -.g 9 ,.v @.y *., ^ + . !   ~ { { ] ]  ."};
