/* XPM */
static char * SVH_xpm[] = {
"33 33 123 2",
"  	c #1B5912",
". 	c #1D6214",
"+ 	c #237317",
"@ 	c #1F6614",
"# 	c #257618",
"$ 	c #2B831A",
"% 	c #2D821A",
"& 	c #2D8B1C",
"* 	c #2E921D",
"= 	c #287818",
"- 	c #1F5F13",
"; 	c #195110",
"> 	c #195411",
", 	c #164A0F",
"' 	c #13410D",
") 	c #14420D",
"! 	c #1F6013",
"~ 	c #297D19",
"{ 	c #3CAD23",
"] 	c #54CA2F",
"^ 	c #72DC4D",
"/ 	c #AAE888",
"( 	c #E6F8CD",
"_ 	c #FBFEE7",
": 	c #EDFAD7",
"< 	c #C2EEA4",
"[ 	c #9CE477",
"} 	c #84DE5E",
"| 	c #77DC51",
"1 	c #67D242",
"2 	c #5BCB37",
"3 	c #4EC42C",
"4 	c #47C029",
"5 	c #46BE28",
"6 	c #206915",
"7 	c #206715",
"8 	c #39A822",
"9 	c #E9F8D1",
"0 	c #FFFFED",
"a 	c #F2FBDC",
"b 	c #CDF1B1",
"c 	c #8FE16B",
"d 	c #7FDE5A",
"e 	c #70D84A",
"f 	c #64D53D",
"g 	c #49CA2A",
"h 	c #3DB023",
"i 	c #32981E",
"j 	c #226F16",
"k 	c #1C5E13",
"l 	c #308A1C",
"m 	c #AEE98C",
"n 	c #55CC2E",
"o 	c #4EC92B",
"p 	c #31961E",
"q 	c #2D871B",
"r 	c #1C5414",
"s 	c #205518",
"t 	c #3AA722",
"u 	c #51C72E",
"v 	c #2C881B",
"w 	c #2A801A",
"x 	c #247417",
"y 	c #216C15",
"z 	c #206113",
"A 	c #174D10",
"B 	c #2E8D1C",
"C 	c #257718",
"D 	c #1A5811",
"E 	c #2B7F19",
"F 	c #83DD5C",
"G 	c #174C0F",
"H 	c #1A5210",
"I 	c #26571D",
"J 	c #295820",
"K 	c #15460E",
"L 	c #14430D",
"M 	c #195210",
"N 	c #195010",
"O 	c #174B0F",
"P 	c #FF00FF",
"Q 	c #267D19",
"R 	c #3DB123",
"S 	c #71D24D",
"T 	c #79D656",
"U 	c #6DD34A",
"V 	c #41BC26",
"W 	c #37A521",
"X 	c #339B1F",
"Y 	c #1B5A12",
"Z 	c #3FB524",
"` 	c #6BD641",
" .	c #8CE266",
"..	c #ACEC87",
"+.	c #C6F2A8",
"@.	c #B5EB96",
"#.	c #6AD43F",
"$.	c #50CD2E",
"%.	c #44C327",
"&.	c #40B625",
"*.	c #35A020",
"=.	c #1F6715",
"-.	c #11410D",
";.	c #1D5D13",
">.	c #98E574",
",.	c #E0F8C4",
"'.	c #D6F6B9",
").	c #99E374",
"!.	c #5ED438",
"~.	c #217016",
"{.	c #C4EEA7",
"].	c #E2F8C8",
"^.	c #D8F7BB",
"/.	c #A4E882",
"(.	c #349E20",
"_.	c #79DE55",
":.	c #5FD539",
"<.	c #4CC92B",
"[.	c #16490F",
"}.	c #73DC4E",
"|.	c #3BAA22",
"1.	c #1C5D13",
"2.	c #287B19",
"  . + @ + + # $ % & * * * * & % % % = + # @ - .       ; >   , ' ) ",
"! @ # ~ & { ] ^ / ( _ _ : < [ } | 1 2 3 4 5 { * & % # 6 !   > , ) ",
"! 7 + ~ & 8 3 | / 9 0 0 a b / c d e f ] g g h i $ ~ + j k   ; , ) ",
"! 7 + ~ l 8 ] | m 9 0 0 a b / c d e f n g o h p & q = 6 r > ; , ) ",
"s 7 + ~ l t u | m 9 0 0 a b / c d e f n g g h i v w x y z   > A ) ",
"@ 7 + ~ l t o | m 9 0 0 a b / c d e f n g o h p B w C y z > ; , ) ",
"z 6 + ~ & t u | m 9 0 0 a b / c d e f n g o h i B w x y z   ; , ) ",
"- 6 + ~ l t u | / 9 0 0 a b / c d e f n g o h p v w C y s > ; , ) ",
"D . x E & t u | m 9 0 0 a b / c F e f ] g o { i B w x @ r D ; G ' ",
"H G , , G , ; r s I J I I I I s H s r ; ; ; ; ; ; ; , G G G , K ' ",
", K L , G ; M M N ; ; ; ; ; G ; ; ; O ; ; ; ; G H D M ; ; , ) ) ' ",
"P L G k + $ & v q q & q q q & & q & & & $ = + @ z - D ; ; O ) ) P ",
"P L , ! Q i R 4 u 2 S T U 2 u 4 V h W X i & E + @ ! Y H H G ) ) P ",
"P L , ! Q X Z o `  ...+.@.F #.$.%.&.8 *.p & E + =.! D D H O ) ) P ",
"P -., ;.Q X Z $.^ >.< ,.'.).e !.g &.8 *.p & $ x ~.! D D ; G ) ) P ",
"P -., ;.Q X Z o ^ ).{.].^./.| f o &.8 *.p B $ C @ ! D H ; G ) ) P ",
"P ' A k Q (.Z $.^ >.{.].^./._.:.o &.8 *.i & % = 6 ;.D D H G L L P ",
"P ' K k Q (.Z $.^ >.{.].^./._.:.g &.8 *.p & ~ + + ;.D D H M L L P ",
"P ' K   Q (.&.$.^ >.{.].^./._.:.o &.8 *.i & % x =.r s D ; , L L P ",
"P ' A ;.# (.&.$.^ >.+.].^./._.:.g &.8 *.p q $ x j k Y Y ; , L L P ",
"P ' A   Q (.R $.^ >.{.].^./._.:.o &.8 *.i & % x @ ! ! M ; G L L P ",
"P ' A k = (.Z <.^ >.{.].^./._.:.o &.8 *.i & % x =.!     H G L L P ",
"P -.K   Q (.Z $.^ >.{.].^./._.:.g &.W *.i & % x =.. ;.H ; , L L P ",
"P ' A k Q (.Z <.^ >.{.].^./._.!.o &.8 *.p & E x =.! D D ; [.L L P ",
"P -.K   Q (.{ o }.>.< ].^./._.!.o &.|.*.i & ~ + @ ! D D ; G L L P ",
"P ' A 1.Q (.V $.}.>.< ].^./._.:.g Z t (.i l % = =.! ! D ; G L L P ",
"P ' , - ~ (.Z o }.>.{.].^./._.:.o Z |.(.p & ~ # =.! D D ; G L L P ",
"P ' ,   2.(.&.$.}.>.{.].^./._.f o &.|.(.i & $ = ~.. D D ; , L L P ",
"P ' A 1.# (.R <.}.>.< ].'./._.!.g &.8 *.p & % x @ k D D ; G L L P ",
"P ' K 1.Q (.&.$.}.>.{.].'./._.f o Z |.*.i & ~ x y k . D H G L L P ",
"P ' K   Q (.Z $.}.>.+.].^./._.!.g Z t X p & $ # y . D D ; , L L P ",
"P ' A - Q (.Z $.}.>.< ,.^./._.!.o Z { *.i & ~ x + r   H ; , L L P ",
"P ' A   Q (.R $.^ >.{.].^./._.!.<.Z 8 (.(.& ~ # @ .   > > ; ' ' P "};
