/* XPM */
static char *_8fb095455314311c1692c83ddcf3cfcaEvpIOYro62uHvxK[] = {
/* columns rows colors chars-per-pixel */
"32 32 102 2 ",
"   c #B5641B",
".  c #BA6A1B",
"X  c #BF721C",
"o  c #C2771C",
"O  c #C57B1D",
"+  c #F8562F",
"@  c #F85B2F",
"#  c #F85730",
"$  c #F75F33",
"%  c #F85930",
"&  c #C57D2C",
"*  c #F8642F",
"=  c #F8682F",
"-  c #F76534",
";  c #F86031",
":  c #F66B35",
">  c #F77235",
",  c #F67B37",
"<  c #F47539",
"1  c #F57C38",
"2  c #CC811D",
"3  c #D3861E",
"4  c #CC8522",
"5  c #C8822C",
"6  c #CF8B2A",
"7  c #D28A24",
"8  c #DA8C22",
"9  c #D08C28",
"0  c #DD9326",
"q  c #D4922C",
"w  c #DA952B",
"e  c #DE9A2F",
"r  c #DD9D33",
"t  c #F68337",
"y  c #F4833C",
"u  c #F48C3C",
"i  c #E29F36",
"p  c #F5903C",
"a  c #DFA338",
"s  c #E2A234",
"d  c #E3A53A",
"f  c #E7A93D",
"g  c #EBAB3B",
"h  c #CA8E58",
"j  c #CC9358",
"k  c #D59F57",
"l  c #D39D58",
"z  c #F28C42",
"x  c #F29442",
"c  c #F19E45",
"v  c #DBA257",
"b  c #D6A058",
"n  c #D8A35A",
"m  c #E4AD44",
"M  c #E8AC42",
"N  c #F1A346",
"B  c #F2A947",
"V  c #F0A549",
"C  c #F2A848",
"Z  c #F2AA48",
"A  c #F0AB4B",
"S  c #F2AD48",
"D  c #F0AF49",
"F  c #F1AF49",
"G  c #F0AF4A",
"H  c #F0AF4C",
"J  c #E7B144",
"K  c #E8B345",
"L  c #EAB244",
"P  c #EAB546",
"I  c #EDB545",
"U  c #EFB445",
"Y  c #EAB648",
"T  c #EBB84A",
"R  c #EEBA4C",
"E  c #EFBC4D",
"W  c #F1B04A",
"Q  c #F0B34A",
"!  c #F0B04C",
"~  c #F0B54C",
"^  c #F0B54D",
"/  c #F0B948",
"(  c #F1B948",
")  c #F0BB4E",
"_  c #F0BF4F",
"`  c #E2A85A",
"'  c #F0BD50",
"]  c #F0BF50",
"[  c #DEAD61",
"{  c #E3B365",
"}  c #EBBB6D",
"|  c #F0C050",
" . c #F0C151",
".. c #F1C151",
"X. c #F1C251",
"o. c #F0C351",
"O. c #F1C252",
"+. c #EEDBCA",
"@. c #F0DFCA",
"#. c #F4E3CC",
"$. c #F9E9D1",
"%. c white",
/* pixels */
"| | | | | | | | | | | | | | | | | | | | | | | | | | | | | | | | ",
"| | | | | | | | | | | | | | | | | | | | | | | | | | | | | | | | ",
"| | | | | | | | | | | | | | | | | | | | | | | | | | | | | | | | ",
"| | | | | | | | | | | | | | | | | | | | | | | | | | | | | | | | ",
"| | | | | | | | | | | | | | | | | | | | | | | | | | | | | | | | ",
"| | | | | | | | | | | | | | | | | | | | | | | | | | | | | | | | ",
"| | | | | | | | | | | | | | | | | | | | | | | | | | | | | ' | | ",
"~ ) ) _ | | | | | | | | | | | | | | | | | | | | | | | | | _ ) _ ",
"c N D R ' | | | | ] O.O.| | | | | | E ..| _ ..X.| | | | | ' ! A ",
"y y p N A T R ' | O.O.] | | | | | | .._ _ X.| | _ _ R U ! N x z ",
"- - : < z N D T ] ] E O._ ' | | | | ........| | ) D N x y < : : ",
"# # # $ < y p N A R R E _ | | ' | | ......R Q B c x u < : ; + + ",
"# # # % $ : > t x c V A T R _ _ | | o.| ) B p , > - - ; @ + % # ",
"% % % # # # * - < 1 z z x c B A S B B B N p > * $ # % # @ @ # % ",
"% % # % # % % $ - - - : : > 1 1 1 1 > > : - ; @ @ # # # % # % % ",
"# # # % % # % # # # # + # # $ * * $ + % + # # % % # # % % # # # ",
"+ # % @ % # + @ # # # # % % % % @ % % # # # # % # % % % # % # # ",
"- - ; @ # # # $ # % % # % % % % % % # % % % # % % # # # % ; - : ",
"x z > ; @ # % % % % % % % % % + # % % % # # # # # # # $ $ > y z ",
"C c p , : - ; % % # # # % % % + % % # % # # # # % $ - : 1 u V H ",
"' ~ W C x y > $ @ % # % + @ + + # # @ + + @ # # ; - z x B Q ~ ' ",
"' | | | D C u , > - - - ; $ @ $ ; % @ @ $ - : : , y c ! ' | | | ",
"| | | ' | ~ Q N N x x y > = = * = = = : < 1 z x V D R ' | | | | ",
"O.O.O.O.| | | _ ) ~ H N u t t t t t t u x c V U ' | X.X.| | | | ",
"O.O.O.O.O.O.O.] | _ ) ~ Q D Q D S S A U Q ! R | | O.| | | | | X.",
"m M m J L J J Y Y T R R ..' | | E O.O.O.' ) _ R R U Y Y P J m m ",
"& 5 9 7 9 0 w r r d M L U / | | o.o.X.O.( U M M d a d r q 6 5 & ",
"    O O O O O 3 7 q r s s g U ( U P U g g s i r q 9 6 4 & X     ",
"        . o o O 2 2 4 9 w s f f d r a e 0 8 7 2 2 O o . . .     ",
"h h h h h j l k b k b b [ { } } { { { n ` v v l l j h h j h h h ",
"@.@.+.+.+.@.@.@.#.@.#.+.#.$.$.$.$.#.$.#.#.#.#.+.+.+.+.+.+.+.+.+.",
"%.%.%.%.%.%.%.%.%.%.%.%.%.%.%.%.%.%.%.%.%.%.%.%.%.%.%.%.%.%.%.%."
};
