/* XPM */
static char *result[] = {
/* columns rows colors chars-per-pixel */
"32 32 198 2 ",
"   c #F0C050",
".  c #F0C150",
"X  c #F0C151",
"o  c #F1C151",
"O  c #EFBE4E",
"+  c #ECB94A",
"@  c #EAB648",
"#  c #ECB84A",
"$  c #EFBC4D",
"%  c #F0BF4F",
"&  c #E2A93E",
"*  c #DDA137",
"=  c #E2A73C",
"-  c #ECB445",
";  c #F0BC4C",
":  c #D6952E",
">  c #DD9E35",
",  c #EAB042",
"<  c #F1BA4A",
"1  c #F0BE4E",
"2  c #DD9F35",
"3  c #F0B54C",
"4  c #F0B74D",
"5  c #F0BB4E",
"6  c #F0BE4F",
"7  c #E2A63A",
"8  c #ECB345",
"9  c #F0BF50",
"0  c #F0BB4F",
"q  c #F0B94E",
"w  c #F09C44",
"e  c #F0A346",
"r  c #F0AF49",
"t  c #F0B94C",
"y  c #EFBB4B",
"u  c #F0C251",
"i  c #F0BC4F",
"p  c #F0AF4C",
"a  c #F0A94A",
"s  c #F2813C",
"d  c #F2873D",
"f  c #F29440",
"g  c #F1A145",
"h  c #F0AD4A",
"j  c #F0B64D",
"k  c #F1BB4A",
"l  c #F0BD4C",
"z  c #F0C04F",
"x  c #F0BC4E",
"c  c #F0B34B",
"v  c #F1AE49",
"b  c #F2A347",
"n  c #F29543",
"m  c #F28D42",
"M  c #F66534",
"N  c #F66634",
"B  c #F66A35",
"V  c #F57739",
"C  c #F18C41",
"Z  c #F09F46",
"A  c #F0AE49",
"S  c #F0BF4E",
"D  c #F0C250",
"F  c #F0B049",
"G  c #F19541",
"H  c #F5853B",
"J  c #F67837",
"K  c #F66D36",
"L  c #F66836",
"P  c #F85730",
"I  c #F8562F",
"U  c #F8552F",
"Y  c #F75E32",
"T  c #F37139",
"R  c #F2843D",
"E  c #F29640",
"W  c #F1A445",
"Q  c #F0AF4A",
"!  c #F0B54D",
"~  c #F0B84E",
"^  c #F0BA4E",
"/  c #F0BA4D",
"(  c #F1B14A",
")  c #F2A947",
"_  c #F29F44",
"`  c #F29441",
"'  c #F2883D",
"]  c #F37939",
"[  c #F76A32",
"{  c #F85E2F",
"}  c #F8592F",
"|  c #F85931",
" . c #F75F33",
".. c #F66834",
"X. c #F67435",
"o. c #F58139",
"O. c #F19041",
"+. c #F09C46",
"@. c #F0A549",
"#. c #F0AD4B",
"$. c #F0B34A",
"%. c #F0C351",
"&. c #F1AA46",
"*. c #F5903C",
"=. c #F67D37",
"-. c #F67236",
";. c #F66B35",
":. c #F66734",
">. c #F76233",
",. c #F85D30",
"<. c #F85830",
"1. c #F85F2F",
"2. c #F76832",
"3. c #F37539",
"4. c #F2803E",
"5. c #F28941",
"6. c #F29142",
"7. c #F29742",
"8. c #F2A747",
"9. c #F2AB48",
"0. c #F2AA48",
"q. c #F2A848",
"w. c #F2A547",
"e. c #F38E3D",
"r. c #F77534",
"t. c #F8632F",
"y. c #F85A2F",
"u. c #F85630",
"i. c #F85A30",
"p. c #F85D31",
"a. c #F76133",
"s. c #F66434",
"d. c #F66735",
"f. c #F66A36",
"g. c #F66C36",
"h. c #F67136",
"j. c #F67A37",
"k. c #F67E38",
"l. c #F67B38",
"z. c #F67438",
"x. c #F67037",
"c. c #F66E36",
"v. c #F76934",
"b. c #F86131",
"n. c #F85B2F",
"m. c #F85B30",
"M. c #F66936",
"N. c #F76634",
"B. c #F86031",
"V. c #F28F43",
"C. c #F3853E",
"Z. c #F77234",
"A. c #F0AB4B",
"S. c #F1A146",
"D. c #F48E3D",
"F. c #F66F36",
"G. c #F76534",
"H. c #F85F31",
"J. c #F85E31",
"K. c #F0BA4F",
"L. c #F2A647",
"P. c #F29644",
"I. c #F3843D",
"U. c #F77134",
"Y. c #F8582F",
"T. c #F76C34",
"R. c #F3833D",
"E. c #F0BD50",
"W. c #F0B04C",
"Q. c #F1A046",
"!. c #F58D3C",
"~. c #F67E37",
"^. c #F85C2F",
"/. c #F85D2F",
"(. c #F85E30",
"). c #F5883C",
"_. c #F19F46",
"`. c #F1B04A",
"'. c #F2A847",
"]. c #F29F43",
"[. c #F3853D",
"{. c #F8672F",
"}. c #F8682F",
"|. c #F76D32",
" X c #F37639",
".X c #F2803D",
"XX c #F29544",
"oX c #F2A447",
"OX c #F1AF4A",
"+X c #F68337",
"@X c #F68438",
"#X c #F5883B",
"$X c #F19241",
"%X c #F09B46",
"&X c #F0BD4E",
"*X c #F2AD48",
"=X c #F0B24B",
"-X c white",
/* pixels */
"                                                                ",
"                                      . .                       ",
"                                    X o o X                     ",
"                                  O + @ @ # $ %                 ",
"                                X + & * * = - ; %               ",
". .                           . o @ * : : > , < 1               ",
". . .                         . o @ * : : 2 , < 1           . . ",
"3 4 5 6   .                     X # = > 2 7 8 ; %   . . . 9 0 q ",
"w e r t % . .                     $ - , , 8 y %   . . u u i p a ",
"s d f g h j 5 6   . .             % ; k k l z . % x 4 c v b n m ",
"M N B V C Z A t % . . .             % S S z D z t F e G H J K L ",
"P I U Y T R E W Q ! ~ ^ x 6   X . X u . % / ( ) _ ` ' ] [ { } I ",
"P P P |  ...X.o.O.+.@.#.$.t % u u u %.  / &.*.=.-.;.:.>.,.} <.P ",
"<.<.<.<.P } 1.2.3.4.5.6.7._ 8.9.9.0.q.w._ e.r.t.y.I u.P P <.<.<.",
"<.<.<.<.P <.i.p.a.s.d.f.g.h.j.k.k.l.z.x.c.v.b.n.<.P P P <.<.<.<.",
"P P P <.<.<.<.P P P I I I } 1.t.t.1.} U I u.P <.<.<.<.<.<.P P P ",
"I P P <.<.<.<.<.P P P P P <.i.m.m.i.P u.P P P <.<.<.<.<.<.P P I ",
"M.N.B.n.<.P P <.<.<.<.<.<.<.<.<.<.<.<.<.<.<.<.<.<.P P <.n.B.N.M.",
"V.C.Z.t.y.u.P <.<.<.<.<.<.<.<.<.<.<.<.<.<.<.<.<.<.P u.y.t.Z.C.V.",
"A.S.D.=.F.G.H.n.<.P P P P <.<.<.<.<.<.<.P P P <.} J.G.F.=.D.S.A.",
"K.4 ( L.P.I.U.t.y.I I P P P P P P P P P P P I Y.{ T.R.P.L.( 4 K.",
". . u E.W.Q.!.~.-.g.f.N.B.^.^.,.,./.^.(.a.s.d.K J )._.W.E.u . . ",
"  . . 9 i j `.'.].7.6.[.U.{.}.}.}.}.}.|. X.X5.XXoXOXj i   . .   ",
"        . . u % t c #.Q.!.+X+X@X@X@X+X#X$X%X@.W.i u . .         ",
"          . .   6 &X0 j `.*X*X*X*X*X*Xv =X! ~ 0 9 . .           ",
"                    . . u u u u u u u u . . . .                 ",
"                      . . . . . . . . . . . .                   ",
"                                                                ",
"                                                                ",
"                                                                ",
"                                                                ",
"                                                                "
};
