/* XPM */
static char *result[] = {
/* columns rows colors chars-per-pixel */
"32 32 195 2 ",
"   c #F0C050",
".  c #F0BF4F",
"X  c #F0BD4D",
"o  c #F0C151",
"O  c #F0B646",
"+  c #F0C150",
"@  c #EFBE4E",
"#  c #EEBA4A",
"$  c #EEB949",
"%  c #EFBB4B",
"&  c #EBAD3D",
"*  c #EBAA3A",
"=  c #EEB040",
"-  c #F0B747",
";  c #F0B54C",
":  c #F0B74D",
">  c #F0BB4E",
",  c #F0BE4F",
"<  c #EBA535",
"1  c #EEAC3C",
"2  c #F0B444",
"3  c #F0BC4C",
"4  c #F0BF50",
"5  c #F0BB4F",
"6  c #F0B94E",
"7  c #F09C44",
"8  c #F0A346",
"9  c #F0AF49",
"0  c #F0B94C",
"q  c #F0C251",
"w  c #EFAE3E",
"e  c #F0B343",
"r  c #F0BC4F",
"t  c #F0AF4C",
"y  c #F0A94A",
"u  c #F2813C",
"i  c #F2873D",
"p  c #F29440",
"a  c #F1A145",
"s  c #F0AD4A",
"d  c #F0B64D",
"f  c #F0BB4C",
"g  c #F0B544",
"h  c #F0BC4E",
"j  c #F0B34B",
"k  c #F1AE49",
"l  c #F2A347",
"z  c #F29543",
"x  c #F28D42",
"c  c #F66534",
"v  c #F66634",
"b  c #F66A35",
"n  c #F57739",
"m  c #F18C41",
"M  c #F09F46",
"N  c #F0B84B",
"B  c #F0BE4D",
"V  c #F0BD4C",
"C  c #F0C04F",
"Z  c #F0B049",
"A  c #F19541",
"S  c #F5853B",
"D  c #F67837",
"F  c #F66D36",
"G  c #F66836",
"H  c #F85730",
"J  c #F8562F",
"K  c #F8552F",
"L  c #F75E32",
"P  c #F37139",
"I  c #F2843D",
"U  c #F29640",
"Y  c #F1A445",
"T  c #F0AF4A",
"R  c #F0B54E",
"E  c #F0B84E",
"W  c #F0BD4E",
"Q  c #F0BA4D",
"!  c #F1B14A",
"~  c #F2A947",
"^  c #F29F44",
"/  c #F29441",
"(  c #F2883D",
")  c #F37939",
"_  c #F76A32",
"`  c #F85E2F",
"'  c #F8592F",
"]  c #F85931",
"[  c #F75F33",
"{  c #F66834",
"}  c #F67435",
"|  c #F58139",
" . c #F19041",
".. c #F09C46",
"X. c #F0A549",
"o. c #F0AD4B",
"O. c #F0B34A",
"+. c #F0C351",
"@. c #F0BA4C",
"#. c #F1AA46",
"$. c #F5903C",
"%. c #F67D37",
"&. c #F67236",
"*. c #F66B35",
"=. c #F66734",
"-. c #F76233",
";. c #F85D30",
":. c #F85830",
">. c #F85F2F",
",. c #F76832",
"<. c #F37539",
"1. c #F2803E",
"2. c #F28941",
"3. c #F29142",
"4. c #F29742",
"5. c #F2A747",
"6. c #F2AB48",
"7. c #F2AA48",
"8. c #F2A848",
"9. c #F2A547",
"0. c #F38E3D",
"q. c #F77534",
"w. c #F8632F",
"e. c #F85A2F",
"r. c #F85630",
"t. c #F85A30",
"y. c #F85D31",
"u. c #F76133",
"i. c #F66434",
"p. c #F66735",
"a. c #F66A36",
"s. c #F66C36",
"d. c #F67136",
"f. c #F67A37",
"g. c #F67E38",
"h. c #F67B38",
"j. c #F67438",
"k. c #F67037",
"l. c #F66E36",
"z. c #F76934",
"x. c #F86131",
"c. c #F85B2F",
"v. c #F85B30",
"b. c #F66936",
"n. c #F76634",
"m. c #F86031",
"M. c #F28F43",
"N. c #F3853E",
"B. c #F77234",
"V. c #F0AB4B",
"C. c #F1A146",
"Z. c #F48E3D",
"A. c #F66F36",
"S. c #F76534",
"D. c #F85F31",
"F. c #F85E31",
"G. c #F0BA4F",
"H. c #F2A647",
"J. c #F29644",
"K. c #F3843D",
"L. c #F77134",
"P. c #F8582F",
"I. c #F76C34",
"U. c #F3833D",
"Y. c #F0BD50",
"T. c #F0B04C",
"R. c #F1A046",
"E. c #F58D3C",
"W. c #F67E37",
"Q. c #F85C2F",
"!. c #F85D2F",
"~. c #F85E30",
"^. c #F5883C",
"/. c #F19F46",
"(. c #F1B04A",
"). c #F2A847",
"_. c #F29F43",
"`. c #F3853D",
"'. c #F8672F",
"]. c #F8682F",
"[. c #F76D32",
"{. c #F37639",
"}. c #F2803D",
"|. c #F29544",
" X c #F2A447",
".X c #F1AF4A",
"XX c #F68337",
"oX c #F68438",
"OX c #F5883B",
"+X c #F19241",
"@X c #F09B46",
"#X c #F2AD48",
"$X c #F0B24B",
"%X c #F0B54D",
"&X c white",
/* pixels */
"                                                                ",
"                                                                ",
"                                                                ",
"                                              . X X .           ",
"                o o                           X O O X           ",
"+ +           @ # $ % X .                     X O O X           ",
"+ + +       o # & * = - X                     . X X .       + + ",
"; : > ,   o o $ * < 1 2 3                         + + + + 4 5 6 ",
"7 8 9 0 . q o % = 1 w e 3                         + + q q r t y ",
"u i p a s d > f - g 2 - X                 + +   . h : j k l z x ",
"c v b n m M 9 N 3 B V B C                 + q . 0 Z 8 A S D F G ",
"H J K L P I U Y T R E 5 W ,   o o o q + . Q ! ~ ^ / ( ) _ ` ' J ",
"H H H ] [ { } |  ...X.o.O.0 . q q q +.  @.#.$.%.&.*.=.-.;.' :.H ",
":.:.:.:.H ' >.,.<.1.2.3.4.^ 5.6.6.7.8.9.^ 0.q.w.e.J r.H H :.:.:.",
":.:.:.:.H :.t.y.u.i.p.a.s.d.f.g.g.h.j.k.l.z.x.c.:.H H H :.:.:.:.",
"H H H :.:.:.:.H H H J J J ' >.w.w.>.' K J r.H :.:.:.:.:.:.H H H ",
"J H H :.:.:.:.:.H H H H H :.t.v.v.t.H r.H H H :.:.:.:.:.:.H H J ",
"b.n.m.c.:.H H :.:.:.:.:.:.:.:.:.:.:.:.:.:.:.:.:.:.H H :.c.m.n.b.",
"M.N.B.w.e.r.H :.:.:.:.:.:.:.:.:.:.:.:.:.:.:.:.:.:.H r.e.w.B.N.M.",
"V.C.Z.%.A.S.D.c.:.H H H H :.:.:.:.:.:.:.H H H :.' F.S.A.%.Z.C.V.",
"G.: ! H.J.K.L.w.e.J J H H H H H H H H H H H J P.` I.U.J.H.! : G.",
"+ + q Y.T.R.E.W.&.s.a.n.m.Q.Q.;.;.!.Q.~.u.i.p.F D ^./.T.Y.q + + ",
"  + + 4 r d (.)._.4.3.`.L.'.].].].].].[.{.}.2.|. X.Xd r   + +   ",
"        + + q . 0 j o.R.E.XXXXoXoXoXXXOX+X@XX.T.r q + +         ",
"          + +   , W 5 d (.#X#X#X#X#X#Xk $X%XE 5 4 + +           ",
"                    + + q q q q q q q q + + + +                 ",
"                      + + + + + + + + + + + +                   ",
"                                                                ",
"                                                                ",
"                                                                ",
"                                                                ",
"                                                                "
};
