/* XPM */
static char *_9ccf04838274977b69a8396ef7b54faKpD8w27k5BT0JOXF[] = {
/* columns rows colors chars-per-pixel */
"32 32 106 2 ",
"   c #B5641B",
".  c #BA6A1B",
"X  c #BF721C",
"o  c #C2771C",
"O  c #C57B1D",
"+  c #F8562F",
"@  c #F85B2F",
"#  c #F85730",
"$  c #F75F33",
"%  c #F85930",
"&  c #C57D2C",
"*  c #F8642F",
"=  c #F8682F",
"-  c #F76534",
";  c #F86031",
":  c #F66B35",
">  c #F77235",
",  c #F67B37",
"<  c #F47539",
"1  c #F57C38",
"2  c #CC811D",
"3  c #D3861E",
"4  c #CC8522",
"5  c #C8822C",
"6  c #CF8B2A",
"7  c #D28A24",
"8  c #DA8C22",
"9  c #D08C28",
"0  c #DD9326",
"q  c #D4922C",
"w  c #DA952B",
"e  c #DE9A2F",
"r  c #DD9C34",
"t  c #F68337",
"y  c #F4833B",
"u  c #F48C3C",
"i  c #E29F36",
"p  c #F5903C",
"a  c #DFA338",
"s  c #E2A235",
"d  c #E3A63A",
"f  c #E7A93D",
"g  c #EBAB3B",
"h  c #CA8E58",
"j  c #CC9358",
"k  c #D59F57",
"l  c #D39D58",
"z  c #F28C42",
"x  c #F29442",
"c  c #F19E45",
"v  c #DBA257",
"b  c #D6A058",
"n  c #D8A35A",
"m  c #E3AC44",
"M  c #E8AC42",
"N  c #F1A346",
"B  c #F2A947",
"V  c #F0A549",
"C  c #F2AA48",
"Z  c #F0AB4B",
"A  c #F2AD48",
"S  c #F1AE49",
"D  c #F0AF49",
"F  c #F0AF4B",
"G  c #F0AF4C",
"H  c #E7B144",
"J  c #EAB141",
"K  c #EAB244",
"L  c #ECB145",
"P  c #EBB647",
"I  c #EDB545",
"U  c #EFB445",
"Y  c #EAB648",
"T  c #EBB749",
"R  c #EBB94A",
"E  c #EDB949",
"W  c #EEBA4C",
"Q  c #EEBB4C",
"!  c #F1B14A",
"~  c #F0B04C",
"^  c #F0B04D",
"/  c #F1B24C",
"(  c #F0B54C",
")  c #F0B74D",
"_  c #F0B948",
"`  c #F1B948",
"'  c #F0BA4C",
"]  c #F0BB4E",
"[  c #F0BE4D",
"{  c #F0BF4F",
"}  c #E1A85A",
"|  c #F0BC50",
" . c #F0BF50",
".. c #E5B567",
"X. c #EBBB6D",
"o. c #F0C04E",
"O. c #F0C050",
"+. c #F0C151",
"@. c #F1C151",
"#. c #F0C351",
"$. c #F1C252",
"%. c #EEDBCA",
"&. c #F0DFCA",
"*. c #F3E3CB",
"=. c #F9E9D1",
"-. c white",
/* pixels */
"O.O.O.O.O.O.O.O.O.O.O.O.O.O.O.O.O.O.O.O.O.O.O.O.O.O.O.O.O.O.O.O.",
"O.O.O.O.O.O.O.O.O.O.O.O.O.O.O.O.O.O.O.O.O.O.O.O.O.O.O.O.O.O.O.O.",
"O.O.O.O.O.O.O.O.O.O.O.O.O.O.O.O.O.O.O.O.O.O.O.O.O.O.O.O.O.O.O.O.",
"O.O.O.O.O.O.O.O.O.O.O.O.O.O.O.O.O.O.O.O.O.O.O.O.O.O.O.O.O.O.O.O.",
"O.O.O.O.O.O.O.O.O.O.O.O.O.O.O.O.O.O.O.O.O.O.O.O.O.O.O.O.O.O.O.O.",
"O.O.O.O.O.O.O.O.O.O.O.O.O.O.O.O.O.O.O.O.O.O.O.O.O.O.O.O.O.O.O.O.",
"O.O.O.O.O.O.O.O.O.O.O.O.O.O.O.O.O.O.O.O.O.O.O.O.O.O.O.O.O.O.O.O.",
"( ] ] { O.O.O.O.O.O.O.O.O.O.O.O.O.O.O.O.O.O.O.O.O.O.O.O.O. .] ] ",
"c N D W  .O.O.O.O.O.O.O.O.O.O.O.O.O.O.O.O.O.O.O.O.O.{ O.O. .G B ",
"y y x N Z W ]  .O.O.O.O.O.O.O.O.O.O.O.O.O.O.O.o.{ { ] U ~ B x z ",
"- - : < z c L E {  .O.O. . .O.O.O.O.O.O.O.O.o.o.] D N x y < : : ",
"+ + + $ < y x N D ] ( { {  .O.O.O.O.O.o.o.o.! A c x u < : $ # # ",
"+ + # % $ : > t z c V Z T W o.o.O.O.$.O.] B u , > : - $ @ + % % ",
"% % % # # # @ : < y z z x c B Z S C C S N u > * # @ + # + # % % ",
"% % % % # % # $ ; - - : : > 1 , , , < : : : ; + % % # # # % % % ",
"# # # % % # # # # # # # # % $ ; * $ % # + % % % % % % % % # % % ",
"+ + % % # % % % # # # # @ $ + $ $ % # # # # # % # % % % # % # # ",
": : $ @ % # # # % # % % + + + % + @ % # % % # % % # # # % ; - : ",
"z y > * @ # @ + % # # % % % % % % % % # % # % # # # # $ ; > y z ",
"D N u , : - ; $ % # # # # % % + # # % % # # # # % $ - : , u N G ",
"| ( / C x y > ; @ # + # + + % + # # % % # # # # $ : y x C ! (  .",
" . . . .G N u , > : : - * @ + $ $ @ @ ; ; - : : , u c G  .O.O. .",
" .{  . .O.] A B N x x y , * = = = = = = < 1 z x N S { | O.O.O.O.",
"$.$.$.$.O.O.O.O.] ~ G c u t t t t t t u x c V ~  . .$.$.O.O.O.O.",
"$. .O.O.O.#.#. . .Q  .( ! D ! D A A D D ~ W  .O. .$.O.#.#.#.#.Q ",
"m M M M K H K T T R W W {  .o.$.{ { { { W W T W ] U H H m m m m ",
"& 5 9 9 6 q w e r d M J D ` o.o.O.o.( U L M a a s r q 6 5 & & & ",
"  . & o o o 3 3 7 q r a d g U ` U J g s i r q 9 6 4 & X .       ",
"      . . . O 2 2 2 4 7 w s f f d r 0 8 7 2 2 X o . . .         ",
"h h h h h j l v b k b n n ..X.X...} } v b k l j h h h h h h h h ",
"&.%.%.%.%.%.&.&.*.&.&.*.=.=.=.=.=.*.*.*.*.%.*.%.%.%.%.%.%.%.%.%.",
"-.-.-.-.-.-.-.-.-.-.-.-.-.-.-.-.-.-.-.-.-.-.-.-.-.-.-.-.-.-.-.-."
};
