/* XPM */
static char * mario_xpm[] = {
"32 32 167 2",
"  	c #FF00FF",
". 	c #CB0D4C",
"+ 	c #CA0A09",
"@ 	c #D20104",
"# 	c #BB0000",
"$ 	c #B50000",
"% 	c #B80E07",
"& 	c #DC0283",
"* 	c #D70218",
"= 	c #CB0000",
"- 	c #AF231B",
"; 	c #CC126D",
"> 	c #D5003A",
", 	c #CB271C",
"' 	c #CC746B",
") 	c #BB4633",
"! 	c #B9073B",
"~ 	c #C30001",
"{ 	c #BD2626",
"] 	c #D49F99",
"^ 	c #C24A54",
"/ 	c #700D2B",
"( 	c #A70000",
"_ 	c #B71615",
": 	c #C23635",
"< 	c #D34B6F",
"[ 	c #6F080C",
"} 	c #9A0100",
"| 	c #AC0000",
"1 	c #90080B",
"2 	c #990705",
"3 	c #AB0F19",
"4 	c #DB4235",
"5 	c #CA3728",
"6 	c #B00956",
"7 	c #953728",
"8 	c #C87759",
"9 	c #C96F4D",
"0 	c #902718",
"a 	c #CE9068",
"b 	c #F9AC85",
"c 	c #D39672",
"d 	c #BC8161",
"e 	c #B77B56",
"f 	c #E5847A",
"g 	c #EDAC83",
"h 	c #E2966A",
"i 	c #CA653A",
"j 	c #974D2C",
"k 	c #67370B",
"l 	c #96593C",
"m 	c #D78B68",
"n 	c #FFB787",
"o 	c #835F57",
"p 	c #523D48",
"q 	c #CC8D65",
"r 	c #EB925F",
"s 	c #F4A97B",
"t 	c #A8784B",
"u 	c #894B38",
"v 	c #A97656",
"w 	c #4C2E30",
"x 	c #543A3A",
"y 	c #E9A378",
"z 	c #F8B579",
"A 	c #552C12",
"B 	c #B68152",
"C 	c #E49876",
"D 	c #C28050",
"E 	c #9D5A16",
"F 	c #2E241D",
"G 	c #704B45",
"H 	c #DC9968",
"I 	c #4F2D0B",
"J 	c #532E0D",
"K 	c #6D462D",
"L 	c #A16B50",
"M 	c #C78664",
"N 	c #2A1818",
"O 	c #1C1813",
"P 	c #3A3126",
"Q 	c #1F3513",
"R 	c #291600",
"S 	c #4B2C14",
"T 	c #835A3B",
"U 	c #764B3A",
"V 	c #130F0D",
"W 	c #564231",
"X 	c #985663",
"Y 	c #3F0C22",
"Z 	c #430D28",
"` 	c #A66849",
" .	c #880289",
"..	c #54218E",
"+.	c #242D4F",
"@.	c #952363",
"#.	c #996747",
"$.	c #860C9A",
"%.	c #3F1F4A",
"&.	c #9F2926",
"*.	c #B48886",
"=.	c #71335C",
"-.	c #946652",
";.	c #8F5643",
">.	c #1D1944",
",.	c #480C12",
"'.	c #E76464",
").	c #F29190",
"!.	c #FED6D5",
"~.	c #EAE8E7",
"{.	c #A26E87",
"].	c #947061",
"^.	c #282361",
"/.	c #733034",
"(.	c #B77875",
"_.	c #F6EBEC",
":.	c #FAF8F6",
"<.	c #FCFEFC",
"[.	c #F1F0EE",
"}.	c #E4E3DE",
"|.	c #C6C2BC",
"1.	c #B09992",
"2.	c #B2ADAC",
"3.	c #3C2A52",
"4.	c #B5A69D",
"5.	c #DCDBD5",
"6.	c #CCCBC7",
"7.	c #8E8CA0",
"8.	c #6E21AB",
"9.	c #0A3781",
"0.	c #1D4292",
"a.	c #788196",
"b.	c #BDBBB4",
"c.	c #8D8D94",
"d.	c #1045AE",
"e.	c #305BB2",
"f.	c #6E7FA6",
"g.	c #AAA7A3",
"h.	c #938F87",
"i.	c #676977",
"j.	c #6A2297",
"k.	c #19386C",
"l.	c #254695",
"m.	c #405D95",
"n.	c #9C938A",
"o.	c #727C8F",
"p.	c #515667",
"q.	c #3D425D",
"r.	c #872B90",
"s.	c #524147",
"t.	c #2B4687",
"u.	c #364471",
"v.	c #092657",
"w.	c #13295B",
"x.	c #663815",
"y.	c #7F6567",
"z.	c #38344B",
"A.	c #54455B",
"B.	c #8A4C28",
"C.	c #A65922",
"D.	c #985420",
"E.	c #AA6335",
"F.	c #7A4219",
"G.	c #914E1D",
"H.	c #87491A",
"I.	c #3F281B",
"J.	c #622C14",
"                                                                ",
"                                                                ",
"                          . + @ # $ % # # # # &                 ",
"                        * * @ = # # # # # # + - ;               ",
"                      > = = + # # # # # # , ' ) ;               ",
"              ! $ # # ~ ~ ~ # # # # # $ % { ] ^ .               ",
"            / ( # # # # # # $ $ # # # $ $ _ : { { <             ",
"            [ } # | | | | ( ( % $ $ $ ~ # ~ + + % % !           ",
"              1 2 3 { - ( } 1 2 { 4 4 4 5 5 , % 3 . 6           ",
"                [ 7 8 9 0 3 1 [ a b b b c d e 7 6               ",
"                  f g h i 9 j k l m n n o p q a f               ",
"                  8 g b r s t k u m g v w x y n n z z           ",
"                  A B y C g D E 9 s q F F G C z s h H           ",
"                p I J K L a h h s z M N O P w v q t t           ",
"                Q R R S T t m C y y q U F V V W X               ",
"                Y Z N w T l ` e e d M M W O N P                 ",
"                   ...+.@.3 3 7 l #.t #.o U U                   ",
"                  $.%./ &.: ' *.=.u -.;.                        ",
"                  >.,.&.'.).!.~.{.{.*.].                        ",
"                  ^./.(._._.:.<.[.[.}.|.                        ",
"                  %.G 1.~.<.<.[.<.<.}.2.                        ",
"                $.3.X 4.5.[.[.}.}.}.6.7.                        ",
"              8.9.0.a.b.6.}.5.6.b.|.b.c.                        ",
"              ..9.d.e.f.g.|.|.b.4.1.h.i.                        ",
"              j.k.l.d.m.n.2.g.a.o.i.p.q.                        ",
"              r.s.p t.t.d n.d p.u.k.v.w.                        ",
"                W x.u.t.l.y.l l G z.v.w.                        ",
"                k x.U A.p.B.E C.C.K z.w.W D.E.                  ",
"                I x.F.B.D.G.H.F.B.G.K +.x H.j                   ",
"                J J x.F.H.F.x.J x.k A I.S J J.                  ",
"                                                                ",
"                                                                "};
