/* XPM */
static char *_5a1a4b94350474be2c4788cb34c4fe2P3B5lCPQgLo8P4lP[] = {
/* columns rows colors chars-per-pixel */
"32 32 216 2 ",
"   c #130F0D",
".  c #1C1813",
"X  c #291600",
"o  c #2A1818",
"O  c #1F3513",
"+  c #2E241D",
"@  c #3F281B",
"#  c #3F0C22",
"$  c #3A3126",
"%  c #480C12",
"&  c #6F080C",
"*  c #4F2D0B",
"=  c #532E0D",
"-  c #4B2C14",
";  c #552C12",
":  c #67370B",
">  c #622C14",
",  c #663815",
"<  c #430D28",
"1  c #700D2B",
"2  c #4C2E30",
"3  c #543A3A",
"4  c #733034",
"5  c #7A4219",
"6  c #564231",
"7  c #6D462D",
"8  c #764B3A",
"9  c #1D1944",
"0  c #3F1F4A",
"q  c #092657",
"w  c #13295B",
"e  c #242D4F",
"r  c #38344B",
"t  c #3C2A52",
"y  c #19386C",
"u  c #282361",
"i  c #523D48",
"p  c #71335C",
"a  c #5D2063",
"s  c #3D425D",
"d  c #364471",
"f  c #524147",
"g  c #54455B",
"h  c #704B45",
"j  c #515667",
"k  c #7F6567",
"l  c #676977",
"z  c #9A0100",
"x  c #990705",
"c  c #90080B",
"v  c #A70000",
"b  c #AC0000",
"n  c #B50000",
"m  c #BB0000",
"M  c #B80E07",
"N  c #AB0F19",
"B  c #B71615",
"V  c #902718",
"C  c #AF231B",
"Z  c #B9073B",
"A  c #9F2926",
"S  c #953728",
"D  c #BD2626",
"F  c #C30001",
"G  c #CB0000",
"H  c #CA0A09",
"J  c #D20104",
"K  c #D70218",
"L  c #CB271C",
"P  c #D5003A",
"I  c #CA3728",
"U  c #C23635",
"Y  c #87491A",
"T  c #914E1D",
"R  c #9D5A16",
"E  c #8A4C28",
"W  c #974D2C",
"Q  c #985420",
"!  c #894B38",
"~  c #835A3B",
"^  c #96593C",
"/  c #A65922",
"(  c #BB4633",
")  c #AA6335",
"_  c #DB4235",
"`  c #CA653A",
"'  c #9C005E",
"]  c #B00956",
"[  c #86116A",
"{  c #952363",
"}  c #9A2972",
"|  c #CB0D4C",
" . c #D60065",
".. c #CC126D",
"X. c #DD007B",
"o. c #E9007B",
"O. c #D23D62",
"+. c #8F5643",
"@. c #835F57",
"#. c #996747",
"$. c #946652",
"%. c #A66849",
"&. c #A8784B",
"*. c #A16B50",
"=. c #A97656",
"-. c #B77B56",
";. c #985663",
":. c #947061",
">. c #B77875",
",. c #C24A54",
"<. c #C96F4D",
"1. c #C87759",
"2. c #D34B6F",
"3. c #CC746B",
"4. c #E76464",
"5. c #B68152",
"6. c #BC8161",
"7. c #C28050",
"8. c #EB925F",
"9. c #C78664",
"0. c #CC8D65",
"q. c #D78B68",
"w. c #CE9068",
"e. c #DC9968",
"r. c #D39672",
"t. c #E2966A",
"y. c #E5847A",
"u. c #E49876",
"i. c #E9A378",
"p. c #F4A97B",
"a. c #F8B579",
"s. c #0A3781",
"d. c #54218E",
"f. c #6A2297",
"g. c #6E21AB",
"h. c #1D4292",
"j. c #2B4687",
"k. c #254695",
"l. c #1045AE",
"z. c #305BB2",
"x. c #405D95",
"c. c #727C8F",
"v. c #6E7FA6",
"b. c #971789",
"n. c #860C9A",
"m. c #A31384",
"M. c #A81985",
"N. c #A71488",
"B. c #B41F89",
"V. c #B0119D",
"C. c #872B90",
"Z. c #BB2389",
"A. c #9413AD",
"S. c #B41BB2",
"D. c #DC0283",
"F. c #D4039B",
"G. c #E3058F",
"H. c #C73A9D",
"J. c #D400B9",
"K. c #CA13B1",
"L. c #DB1BB4",
"P. c #EA06A6",
"I. c #F003B6",
"U. c #D732A7",
"Y. c #CF2AB4",
"T. c #E623B6",
"R. c #A26E87",
"E. c #C74698",
"W. c #E85AA6",
"Q. c #F96BB1",
"!. c #AE0BC6",
"~. c #BD07C2",
"^. c #BF26C3",
"/. c #CE05CF",
"(. c #DF04D7",
"). c #F116CD",
"_. c #E200D4",
"`. c #F500D9",
"'. c #D231D1",
"]. c #EE26CF",
"[. c #DB06EA",
"{. c #EA02E9",
"}. c #F408E7",
"|. c #F601F4",
" X c #FB03F4",
".X c #FD0BF2",
"XX c #F603FA",
"oX c #FF00FF",
"OX c #F24CD7",
"+X c #788196",
"@X c #938F87",
"#X c #9C938A",
"$X c #8D8D94",
"%X c #B48886",
"&X c #B09992",
"*X c #B5A69D",
"=X c #8E8CA0",
"-X c #AAA7A3",
";X c #B2ADAC",
":X c #BDBBB4",
">X c #D49F99",
",X c #F29190",
"<X c #EDAC83",
"1X c #F9AC85",
"2X c #FFB787",
"3X c #FF85AB",
"4X c #C6C2BC",
"5X c #CCCBC7",
"6X c #DCDBD5",
"7X c #FED6D5",
"8X c #E4E3DE",
"9X c #EAE8E7",
"0X c #F6EBEC",
"qX c #F1F0EE",
"wX c #FAF8F6",
"eX c #FCFEFC",
/* pixels */
"oXoXoXoXoXoXoXoXoXoXoXoXoXoXoXoXoXoXoXoXoXoXoXoXoXoXoXoXoXoXoXoX",
"oXoXoXoXoXoXoXoXoXoXoXoXXXP.o.o.X.X.X.X.X.X.D.`.oXoXoXoXoXoXoXoX",
"oXoXoXoXoXoXoXoXoXoXoX XI.| H J m n M m m m m D.}.oXoXoXoXoXoXoX",
"oXoXoXoXoXoXoXoXoX XoXP.K K J G m m m m m m H C ..oXoXoXoXoXoXoX",
"oXoXoXoXoXoXoXG. . . .P G G H m m m m m m L 3.( ..oXoXoXoXoXoXoX",
"oXoXoXoXoX|.J.Z n m m F F F m m m m m n M D >X,.| ).XXoXoXoXoXoX",
"oXoXoXoXoXJ.1 v m m m m m m n n m m m n n B U D D 2.).oXoXoXoXoX",
"oXoXoXoXoXJ.& z m b b b b v v M n n n F m F H H M M Z F.oXoXoXoX",
"oXoXoXoXoX_.' c x N D C v z c x D _ _ _ I I L M N | ] F. XoXoXoX",
"oXoXoXoXoXoX}.' & S 1.<.V N c & w.1X1X1Xr.6.-.S ] }..X.XoXoXoXoX",
"oXoXoXoXoXoXoX_.U.y.<Xt.` <.W : ^ q.2X2X@.i 0.w.y.3X3XOXoXoXoXoX",
"oXoXoXoXoXoXoXXX].1.<X1X8.p.&.: ! q.<X=.2 3 i.2X2Xa.a.Q.oXoXoXoX",
"oXoXoXoXoXoXXXXXV.; 5.i.u.<X7.R <.p.0.+ + h u.a.p.t.e.W.oXoXoXoX",
"oXoXoXoXoXoXXX^.i * = 7 *.w.t.t.p.a.9.o . $ 2 =.0.&.&.E.oXoXoXoX",
"oXoXoXoXoXoX|.a O X X - ~ &.q.u.i.i.0.8 +     6 ;.H.H.'.oXoXoXoX",
"oXoXoXoXoXoX|.[ # < o 2 ~ ^ %.-.-.6.9.9.6 . o $ b. XoXoXoXoXoXoX",
"oXoXoXoXoXoXXX{._./.d.e { N N S ^ #.&.#.@.8 8 S.}.XXoXoXoXoXoXoX",
"oXoXoXoXoXoXoXoX{.n.0 1 A U 3.%Xp ! $.+.2.U.Y.}.oXoXoXoXoXoXoXoX",
"oXoXoXoXoXoXoXoX!.9 % A 4.,X7X9XR.R.%X:.'.XXoXoXoXoXoXoXoXoXoXoX",
"oXoXoXoXoXoXoXoX!.u 4 >.0X0XwXeXqXqX8X4XOXoXoXoXoXoXoXoXoXoXoXoX",
"oXoXoXoXoXoXoXoX~.0 h &X9XeXeXqXeXeX8X;X'.XXoXoXoXoXoXoXoXoXoXoX",
"oXoXoXoXoXoXoX[.n.t ;.*X6XqXqX8X8X8X5X=X'.oXoXoXoXoXoXoXoXoXoXoX",
"oXoXoXoXoXoXXXg.s.h.+X:X5X8X6X5X:X4X:X$X'.XXoXoXoXoXoXoXoXoXoXoX",
"oXoXoXoXoXoXXXd.s.l.z.v.-X4X4X:X*X&X@Xl ^.XXoXoXoXoXoXoXoXoXoXoX",
"oXoXoXoXoXoXXXf.y k.l.x.#X;X-X+Xc.l j s S.oXoXoXoXoXoXoXoXoXoXoX",
"oXoXoXoXoXoXXXC.f i j.j.6.#X6.j d y q w A. X.X XoXoXoXoXoXoXoXoX",
"oXoXoXoXoXoXXX} 6 , d j.k.k ^ ^ h r q w p O.2.).oXoXoXoXoXoXoXoX",
"oXoXoXoXoXoX X{ : , 8 g j E R / / 7 r w 6 Q ) T.oXoXoXoXoXoXoXoX",
"oXoXoXoXoXoX|.{ * , 5 E Q T Y 5 E T 7 e 3 Y W L.oXoXoXoXoXoXoXoX",
"oXoXoXoXoXoX|.{ = = , 5 Y 5 , = , : ; @ - = > K.oXoXoXoXoXoXoXoX",
"oXoXoXoXoXoXXXK.M.m.M.B.Z.B.M.m.M.N.b.} m.b.N.(.oXoXoXoXoXoXoXoX",
"oXoXoXoXoXoXoXoXoXoXoXoXoXoXoXoXoXoXoXoXoXoXoXoXoXoXoXoXoXoXoXoX"
};
