/* XPM */
static char *_c0f91d6e2334cf3db898d98bdebc06fwf3BzRL4OVwTBAct[] = {
/* columns rows colors chars-per-pixel */
"32 32 212 2 ",
"   c #450102",
".  c #4D0102",
"X  c #590103",
"o  c #6C0500",
"O  c #740700",
"+  c #76041D",
"@  c #442C00",
"#  c #703730",
"$  c #594C00",
"%  c #654B04",
"&  c #784A01",
"*  c #6C5406",
"=  c #745A05",
"-  c #685417",
";  c #7C6203",
":  c #7B620E",
">  c #686312",
",  c #5A5030",
"<  c #73472B",
"1  c #7D7025",
"2  c #6C6335",
"3  c #625657",
"4  c #67655D",
"5  c #7F755E",
"6  c #794670",
"7  c #830901",
"8  c #8E0900",
"9  c #920B00",
"0  c #950807",
"q  c #9B0E00",
"w  c #951B00",
"e  c #A40D00",
"r  c #AA0D00",
"t  c #BE0D01",
"y  c #A71000",
"u  c #AE1000",
"i  c #B71000",
"p  c #B81918",
"a  c #902406",
"s  c #A82C00",
"d  c #BC2309",
"f  c #B33E0F",
"g  c #9A0522",
"h  c #A20E20",
"j  c #863836",
"k  c #C91509",
"l  c #D5180C",
"z  c #E61B13",
"x  c #C82E05",
"c  c #CB2518",
"v  c #DA2116",
"b  c #D5302A",
"n  c #E72E27",
"m  c #F1362C",
"M  c #90510A",
"N  c #B45200",
"B  c #886A03",
"V  c #956E0F",
"C  c #8D7407",
"Z  c #967803",
"A  c #9C7C01",
"S  c #AC7506",
"D  c #9A4332",
"F  c #84722F",
"G  c #887A32",
"H  c #CF7A0B",
"J  c #EC4537",
"K  c #FC453D",
"L  c #B30276",
"P  c #A63265",
"I  c #E5255E",
"U  c #ED3064",
"Y  c #EF2E74",
"T  c #9E5748",
"R  c #B54F55",
"E  c #847845",
"W  c #987542",
"Q  c #BD6B57",
"!  c #814977",
"~  c #817D72",
"^  c #A5726F",
"/  c #CC4F44",
"(  c #F54E45",
")  c #EE5A4A",
"_  c #E75D5C",
"`  c #DC754E",
"'  c #FD635A",
"]  c #CB5863",
"[  c #EF5C7A",
"{  c #D0756F",
"}  c #FB6B63",
"|  c #F26D6C",
" . c #9C8312",
".. c #AC8601",
"X. c #B38E03",
"o. c #B78A09",
"O. c #B39300",
"+. c #BA9800",
"@. c #AA8819",
"#. c #B99A16",
"$. c #BAA018",
"%. c #9B8324",
"&. c #948530",
"*. c #C19C02",
"=. c #C69805",
"-. c #CBA502",
";. c #CAA707",
":. c #D6AA04",
">. c #DCAC02",
",. c #DBB404",
"<. c #C5A213",
"1. c #E4AF00",
"2. c #E6B805",
"3. c #DA8535",
"4. c #E18E38",
"5. c #D6B42D",
"6. c #ECC001",
"7. c #978042",
"8. c #938D5C",
"9. c #A89944",
"0. c #B8A349",
"q. c #BBAA57",
"w. c #808775",
"e. c #AF9172",
"r. c #EA824A",
"t. c #545D8F",
"y. c #5F6FB4",
"u. c #6978B9",
"i. c #5473F4",
"p. c #A4008C",
"a. c #AA008C",
"s. c #B60192",
"d. c #96328E",
"f. c #AC3092",
"g. c #C8048E",
"h. c #D90890",
"j. c #E70B9C",
"k. c #C83289",
"l. c #D73B8A",
"z. c #D63D94",
"x. c #E4318E",
"c. c #F007BA",
"v. c #CE32B4",
"b. c #F43FA9",
"n. c #BA7BB4",
"m. c #DC4488",
"M. c #D64988",
"N. c #E94988",
"B. c #F25688",
"V. c #CB1EC5",
"C. c #D915D5",
"Z. c #F80ADB",
"A. c #ED10D0",
"S. c #DF36DC",
"D. c #F32BC3",
"F. c #E03ACD",
"G. c #EE05E9",
"H. c #F502EB",
"J. c #FD07EC",
"K. c #EF05F1",
"L. c #FA03F5",
"P. c #FF00FF",
"I. c #FC08F8",
"U. c #F419F2",
"Y. c #FF14FF",
"T. c #DC29EE",
"R. c #E433E1",
"E. c #F42FF4",
"W. c #F727F9",
"Q. c #A76AC1",
"!. c #D840D1",
"~. c #C579C1",
"^. c #F546FC",
"/. c #7D88B5",
"(. c #999489",
"). c #9B9794",
"_. c #B69682",
"`. c #9EAA9E",
"'. c #A9A688",
"]. c #B2AE90",
"[. c #AD9FA5",
"{. c #B9B7A8",
"}. c #BDAABC",
"|. c #B9B4B7",
" X c #DB9B92",
".X c #FE8B83",
"XX c #FF8D88",
"oX c #FD9288",
"OX c #FC9D96",
"+X c #C2BD9A",
"@X c #D3ADA8",
"#X c #C8B7AE",
"$X c #CCBDB8",
"%X c #FEBBB7",
"&X c #C4C3B3",
"*X c #FEC2BD",
"=X c #D296C7",
"-X c #E8A5DF",
";X c #FBADFB",
":X c #F4B6F3",
">X c #FEBCFE",
",X c #C7CCC7",
"<X c #D6C9C7",
"1X c #D4D3CC",
"2X c #CAD5D2",
"3X c #DBD5D4",
"4X c #D9DAD7",
"5X c #EECECC",
"6X c #DCDBE5",
"7X c #DDE3E2",
"8X c #E1E7E9",
"9X c #EDF5F1",
/* pixels */
"P.P.P.P.P.P.P.P.P.P.P.Y.>X;XY.P.P.P.P.P.P.P.P.P.P.P.P.P.P.P.P.P.",
"P.P.P.P.P.P.P.P.P.P.P.Y.>X;XP.P.P.P.P.P.P.P.P.P.P.P.P.P.P.P.P.P.",
"P.P.P.P.P.P.P.P.P.P.P.Y.>X>XW.Y.P.P.P.P.P.P.P.P.P.P.P.P.P.P.P.P.",
"P.P.P.P.P.P.P.P.P.P.P.Y.:X9X:XE.P.P.P.P.P.P.P.P.P.P.P.P.P.P.P.P.",
"P.P.P.P.P.P.P.P.P.P.P.Y.;X9X6X^.P.P.P.P.P.P.P.P.P.P.P.P.P.P.P.P.",
"P.P.P.P.P.P.P.P.P.P.P.U.-X1X}.S.H.P.P.P.P.P.P.P.P.P.P.P.P.P.P.P.",
"P.P.P.P.P.P.P.P.P.P.T.Q.8.W E T k.L.P.P.P.P.P.P.P.P.P.P.P.P.P.P.",
"P.P.P.P.P.P.P.P.P.P.F.e.@.V V B R K.P.P.P.P.P.P.P.P.P.P.P.P.P.P.",
"P.P.P.P.P.P.P.P.P.L.x.H H S M M R Z.J.J.J.L.P.P.P.P.P.P.P.P.P.P.",
"P.P.P.P.P.P.P.P.H.L h s x x x x c U U U U A.P.P.P.P.P.P.P.P.P.P.",
"P.P.P.P.P.P.P.Z.g.h 9 q t l v n ( ) ) ) ) Y A.L.P.P.P.P.P.P.P.P.",
"P.P.P.P.P.P.L.s.0 e r r k v J } r..XXXXXXX) I Z.P.P.P.P.P.P.P.P.",
"P.P.P.P.P.H.L g 0 y u i t v J ' B.oX%X*X-Xr.| I c.P.P.P.P.P.P.P.",
"P.P.P.P.G.s.+ O q y r u i l K ( | OX%X5X5Xr.' b j.P.P.P.P.P.P.P.",
"P.P.P.P.s.X . o 9 e u u k l m K ' oX%X*XOX} n p h.L.P.P.P.P.P.P.",
"P.P.P.P.a.. o O 8 e u u i l z z m J  X<X-X%Xe.p g L H.P.P.P.P.P.",
"P.P.P.P.a.. o 7 9 e u u t c / _ _ _ @X1X7X8X&X] D P H.P.P.P.P.P.",
"P.P.P.P.a.  o 7 9 e y u t / #X3X4X3X4X4X4X4X3X&X&X=XU.P.P.P.P.P.",
"P.P.P.P.p.  o 9 q y r u { @X2X7X7X,X2X,X,X'.8.w.`.|.n.R.P.P.P.P.",
"P.P.P.P.p.  O 9 q e d R $X7X4X&X].'._._.'.1 * # 5 ).n.R.P.P.P.P.",
"P.P.P.P.p.  o 7 7 8 R <X2X,X{.7.= : N f : * & a < ! C.I.P.P.P.P.",
"P.P.P.P.p.  X o 7 ^ #X3X,X`.1 : = = s q @ $ M w # 3 d.C.P.P.P.P.",
"P.P.I.U.f.# # j T $X7X,X].7.% ; C Z N N % B S M < 3 ! V.P.P.P.P.",
"P.P.U.n.[.{.<X<X1X3X1X#X9.C ; Z O.-.1.2.1.2.,.o.1 6 C.P.P.P.P.P.",
"P.P.I.S.~.|.,X,X2X,X+X0.#.A - ; C A +.:.>.,.<.A > 6 K.P.P.P.P.P.",
"P.P.P.P.!.).).(.).].q.*.:.@., - * * C S ..O.X.C 3 d.K.P.P.P.P.P.",
"P.P.P.P.v.~ w.4 , %.<.:.2.$.2 2 - - * B B Z +.;.N.J.L.P.P.P.P.P.",
"P.P.P.P.v.F &.%.Z X.*.;.,.,.#.G 3 t.t.4 V ..+.,.` [ | b.P.P.P.P.",
"P.P.P.P.k. .O.-.-.+.+.:.,.6.6.@.E u.i.u. .+.+.;.-.<.4.b.P.P.P.P.",
"P.P.P.P.M...+.O.S S o.-.,.2.2.,.:.5./.y.V ..+.o.@.Q D.I.P.P.P.P.",
"P.P.P.P.D.m.M.l.k.l.m.N.B.B.B.3.>.2.q.n.M.l.l.z.z.v.P.P.P.P.P.P.",
"P.P.P.P.P.P.P.P.P.P.P.P.P.P.L.] =.>.-.` J.P.P.P.P.P.P.P.P.P.P.P."
};
