/* XPM */
static char *_26d29cc4eb349d8c8bb40b20cb06bf86aIiwpAewrYEVQFB[] = {
/* columns rows colors chars-per-pixel */
"32 32 208 2 ",
"   c #3D0002",
".  c #430003",
"X  c #4A0001",
"o  c #530101",
"O  c #5C0207",
"+  c #6B0500",
"@  c #6C0800",
"#  c #770500",
"$  c #76041D",
"%  c #713632",
"&  c #674E02",
"*  c #6E5B05",
"=  c #785A02",
"-  c #6E5519",
";  c #796600",
":  c #7B6919",
">  c #544626",
",  c #45453E",
"<  c #64562A",
"1  c #6A5F2D",
"2  c #715D31",
"3  c #796929",
"4  c #713557",
"5  c #57574A",
"6  c #615756",
"7  c #6A715A",
"8  c #880503",
"9  c #8D0A00",
"0  c #900B00",
"q  c #9B0C00",
"w  c #A40D00",
"e  c #AC0D00",
"r  c #BE0D00",
"t  c #AD1000",
"y  c #AD1909",
"u  c #B41000",
"i  c #BE1606",
"p  c #962607",
"a  c #BD2B07",
"s  c #AD2A13",
"d  c #8F0429",
"f  c #A71020",
"g  c #933C34",
"h  c #A5352D",
"j  c #A53E38",
"k  c #C40C06",
"l  c #CF0D05",
"z  c #C21001",
"x  c #CE1205",
"c  c #D3150C",
"v  c #DE1911",
"b  c #CB2F05",
"n  c #C92816",
"m  c #ED281F",
"M  c #F1271F",
"N  c #D62F2B",
"B  c #F32921",
"V  c #E43425",
"C  c #EF332C",
"Z  c #884906",
"A  c #945510",
"S  c #886902",
"D  c #967703",
"F  c #9B7D00",
"G  c #8C7011",
"H  c #977D14",
"J  c #AC6F00",
"K  c #A97E04",
"L  c #BE7505",
"P  c #8B7939",
"I  c #B07027",
"U  c #C85300",
"Y  c #D27B0B",
"T  c #EF4A37",
"R  c #EB4A3D",
"E  c #CD7A33",
"W  c #B8074D",
"Q  c #BA0476",
"!  c #B12D65",
"~  c #DA1B59",
"^  c #E71F5B",
"/  c #EB2F5F",
"(  c #D00B60",
")  c #EC2A6A",
"_  c #EE2F68",
"`  c #AD5652",
"'  c #897A44",
"]  c #9E704E",
"[  c #B56B49",
"{  c #844479",
"}  c #B07F75",
"|  c #ED594A",
" . c #F7564A",
".. c #DA7748",
"X. c #E96D4B",
"o. c #E6655E",
"O. c #CC4E75",
"+. c #DB7D78",
"@. c #EF726C",
"#. c #F87971",
"$. c #A48404",
"%. c #A78A03",
"&. c #B48D02",
"*. c #BB8A0B",
"=. c #AD9001",
"-. c #BA9604",
";. c #A58819",
":. c #BE8D17",
">. c #988629",
",. c #D48200",
"<. c #C29A02",
"1. c #C49806",
"2. c #C89A15",
"3. c #C6A307",
"4. c #CAA402",
"5. c #D6AA08",
"6. c #DCB202",
"7. c #D8B603",
"8. c #E7B904",
"9. c #F2BC06",
"0. c #D78135",
"q. c #F8A12F",
"w. c #EEC408",
"e. c #91864B",
"r. c #978E68",
"t. c #9B9774",
"y. c #AB9371",
"u. c #FA8653",
"i. c #FD857C",
"p. c #A5008C",
"a. c #AB008C",
"s. c #B60192",
"d. c #A93194",
"f. c #B728AB",
"g. c #B82BB4",
"h. c #C8048E",
"j. c #D23A89",
"k. c #E5318E",
"l. c #E200BC",
"z. c #ED38A9",
"x. c #FE3AB6",
"c. c #9C698E",
"v. c #B879B1",
"b. c #DB4489",
"n. c #E2418E",
"m. c #C573B9",
"M. c #D316D2",
"N. c #EB06C1",
"B. c #EC1CC8",
"V. c #F408D3",
"C. c #F516DB",
"Z. c #FA19DB",
"A. c #D532C6",
"S. c #F528C7",
"D. c #E23CD9",
"F. c #F101E1",
"G. c #FA08EC",
"H. c #FE17E2",
"J. c #FB02F4",
"K. c #FB07F9",
"L. c #FF00FF",
"P. c #F719F7",
"I. c #FF14FF",
"U. c #DC29EE",
"Y. c #EA23E7",
"T. c #E535E4",
"R. c #F727F9",
"E. c #FB3CFB",
"W. c #DB51D4",
"Q. c #C97EC1",
"!. c #ED4DED",
"~. c #889080",
"^. c #9C9894",
"/. c #B1958C",
"(. c #AEAB83",
"). c #ADAD9B",
"_. c #B7AAAE",
"`. c #B9B7AC",
"'. c #BAB9B1",
"]. c #CB8D85",
"[. c #D39792",
"{. c #FF8D85",
"}. c #FD918A",
"|. c #CFA49F",
" X c #DCA6A3",
".X c #C4BABA",
"XX c #FEAAA4",
"oX c #FFB3AF",
"OX c #C4C3BD",
"+X c #D4C0B7",
"@X c #E8A5DF",
"#X c #FBADFB",
"$X c #F4B6F3",
"%X c #FEBCFE",
"&X c #CBCBC6",
"*X c #D9CAC7",
"=X c #D4D8CC",
"-X c #CED5D3",
";X c #D6D8D5",
":X c #D4DEDC",
">X c #DADBD9",
",X c #E8C2C0",
"<X c #FDCAC4",
"1X c #E3D7D6",
"2X c #DDD6E8",
"3X c #DEE1E1",
"4X c #E1E5E5",
"5X c #EDF5F1",
/* pixels */
"L.L.L.L.L.L.L.L.L.L.L.I.%X#XI.L.L.L.L.L.L.L.L.L.L.L.L.L.L.L.L.L.",
"L.L.L.L.L.L.L.L.L.L.L.I.%X#XK.L.L.L.L.L.L.L.L.L.L.L.L.L.L.L.L.L.",
"L.L.L.L.L.L.L.L.L.L.K.I.%X%XR.L.L.L.L.L.L.L.L.L.L.L.L.L.L.L.L.L.",
"L.L.L.L.L.L.L.L.L.L.K.I.#X5X$XE.L.L.L.L.L.L.L.L.L.L.L.L.L.L.L.L.",
"L.L.L.L.L.L.L.L.L.L.L.I.#X5X2X!.L.L.L.L.L.L.L.L.L.L.L.L.L.L.L.L.",
"L.L.L.L.L.L.L.L.L.L.K.P.@X-X.X!.L.L.L.L.L.L.L.L.L.L.L.L.L.L.L.L.",
"L.L.L.L.L.L.L.L.L.L.U.v.} P ] M.L.L.L.L.L.L.L.L.L.L.L.L.L.L.L.L.",
"L.L.L.L.L.L.L.L.L.L.A.y.I D A ! l.L.L.L.L.L.L.L.L.L.L.L.L.L.L.L.",
"L.L.L.L.L.L.L.L.L.J.k.Y ,.L A p ( V.J.H.G.J.L.L.L.L.L.L.L.L.L.L.",
"L.L.L.L.L.L.L.L.J.Q f a b b n n N / _ _ ) B.L.L.L.L.L.L.L.L.L.L.",
"L.L.L.L.L.L.L.V.h.f q t k l x V R X.| R T ) N.L.L.L.L.L.L.L.L.L.",
"L.L.L.L.L.L.J.s.8 q t t z l c V  .i.{.#.R V ^ F.L.L.L.L.L.L.L.L.",
"L.L.L.L.L.J.Q d # w u t z x v m  .{.oXXX#. .V ~ N.L.L.L.L.L.L.L.",
"L.L.L.L.F.s.$ @ 8 y u u z x v m T @.oX<XXX#.R n ( N.J.L.L.L.L.L.",
"L.L.L.L.a.O o # w t u z z x v B C C }.<X<XXX@.N y W F.L.L.L.L.L.",
"L.L.L.L.a.X O 8 t t u u z x v M B C C @.+X*X,X Xj d F.L.L.L.L.L.",
"L.L.L.L.a.o @ 9 t u e u r l v R o.o.o.+.&X:X4X4Xy.! W.P.K.L.L.L.",
"L.L.L.L.a.X + 9 t e e y i x V ].&X1X1X1X>X>X;X&X&XOX.X!.K.L.L.L.",
"L.L.L.L.a.X o 8 t t e y [ ].[.*X>X3X>X-X&X(.e.' 7 ~.).W.L.L.L.L.",
"L.L.L.L.a.. . # w w e y /.:X3X3X;X&X`./.y.P * & > 5 r.A.L.L.L.L.",
"L.L.L.L.p.  . + 8 0 q s |.3X;XOX'.`.P Z s Z ; * < 5 6 g.L.L.L.L.",
"L.L.L.L.p.  o # 8 8 h ].*X=X'.r.P P : Z a Z ; ; < 5 5 f.L.L.L.L.",
"L.L.K.Y.d.% g g j j c.1X>X'.t.3 ; D F J U L =.$.3 6 { M.L.L.L.L.",
"L.L.P.m.)._.`..X*X1X1X1XOXt.: D =.4.6.8.8.9.w.w.e.4 M.L.L.L.L.L.",
"L.L.K.D.Q.'.'.OX&X>X:XOXy.>.G G H K K &.4.6.7.5.O.M.K.L.L.L.L.L.",
"L.L.L.L.T.v.^.^.^.^.).(.>.F $.3 < * & = D $.=.-.@.Z.L.L.L.L.L.L.",
"L.L.L.L.L.U.c.7 5 , 1 ;.&.-.1.- > 2 - & = S $.4.w.u.P.L.L.L.L.L.",
"L.L.L.L.B.O.I >.H H $.&.-.7.7.: 4 f.f.! S D %.7.8.5.@.S.L.L.L.L.",
"L.L.L.L.j.$.=.4.6.8.6.1.3.7.w.;.` S.L.B.[ E E 0.0.0.0.z.L.L.L.L.",
"L.L.L.L.j.=.-.<.1.1.<.4.5.7.8.8.8.q.x.L.C.C.V.C.H.C.H.G.L.L.L.L.",
"L.L.L.L.B.b.b.n.O.I %.*.1.3.2.6.8.8...z.K.L.L.L.L.L.L.L.L.L.L.L.",
"L.L.L.L.L.L.L.L.G.` F K *.*.:.2.2.2.1...G.L.L.L.L.L.L.L.L.L.L.L."
};
