/* XPM */
static char * Piranha2_xpm[] = {
"32 32 139 2",
"  	c #FF00FF",
". 	c #A487A4",
"+ 	c #C4C6BE",
"@ 	c #977D96",
"# 	c #979795",
"$ 	c #EAF5EA",
"% 	c #A895A6",
"& 	c #D8E4D9",
"* 	c #EBF9EE",
"= 	c #B2BAB1",
"- 	c #CCD4CA",
"; 	c #E8E3D9",
"> 	c #DDE9DD",
", 	c #E9F1E7",
"' 	c #C3C8C1",
") 	c #771A37",
"! 	c #85111C",
"~ 	c #BCBCB4",
"{ 	c #A1AB8B",
"] 	c #878F73",
"^ 	c #E6F3E6",
"/ 	c #AEB8A7",
"( 	c #AB110F",
"_ 	c #C70B07",
": 	c #9B062B",
"< 	c #C30A08",
"[ 	c #B11A19",
"} 	c #959E7C",
"| 	c #9AA28A",
"1 	c #997873",
"2 	c #D81313",
"3 	c #D70A0B",
"4 	c #A30815",
"5 	c #BB0A0A",
"6 	c #D90B0B",
"7 	c #6E7655",
"8 	c #A3AB99",
"9 	c #923A38",
"0 	c #990619",
"a 	c #A50814",
"b 	c #B81716",
"c 	c #A99D97",
"d 	c #707A4A",
"e 	c #819329",
"f 	c #D71212",
"g 	c #980B52",
"h 	c #CC0909",
"i 	c #AAB49F",
"j 	c #AD928E",
"k 	c #D40607",
"l 	c #AC070E",
"m 	c #A77D78",
"n 	c #BFC5BF",
"o 	c #A7ADA5",
"p 	c #E3EEE4",
"q 	c #965754",
"r 	c #DA2927",
"s 	c #D07A71",
"t 	c #AF1926",
"u 	c #D81817",
"v 	c #A54845",
"w 	c #DFEAE1",
"x 	c #DB3D3B",
"y 	c #DFC5BD",
"z 	c #A965A9",
"A 	c #C1A1A6",
"B 	c #E9DAD1",
"C 	c #E4B6AE",
"D 	c #DC4442",
"E 	c #AA1B1A",
"F 	c #92302E",
"G 	c #E4ACA5",
"H 	c #B06EAF",
"I 	c #BAB7BA",
"J 	c #A1706B",
"K 	c #D92826",
"L 	c #E7D4CB",
"M 	c #B3ABA4",
"N 	c #D9201F",
"O 	c #E6CAC2",
"P 	c #E9EDE3",
"Q 	c #A32524",
"R 	c #B2A49D",
"S 	c #D83836",
"T 	c #DF6F6A",
"U 	c #DE4D4A",
"V 	c #DA8077",
"W 	c #B14C49",
"X 	c #C35552",
"Y 	c #E7DCD3",
"Z 	c #CEB8AC",
"` 	c #DD5652",
" .	c #DC514E",
"..	c #E4B8B0",
"+.	c #CE2B2A",
"@.	c #96065C",
"#.	c #E28782",
"$.	c #E37672",
"%.	c #33423C",
"&.	c #1A5823",
"*.	c #628565",
"=.	c #D5DFD6",
"-.	c #D91B1B",
";.	c #871407",
">.	c #393106",
",.	c #124F19",
"'.	c #0C6917",
").	c #00840E",
"!.	c #017C0F",
"~.	c #02740E",
"{.	c #344B3A",
"].	c #5B5A4D",
"^.	c #4E3A11",
"/.	c #502308",
"(.	c #4F0705",
"_.	c #1B3E09",
":.	c #026C0D",
"<.	c #028511",
"[.	c #12651D",
"}.	c #01650D",
"|.	c #014809",
"1.	c #004506",
"2.	c #003406",
"3.	c #037D11",
"4.	c #028911",
"5.	c #00890F",
"6.	c #106D1C",
"7.	c #01570A",
"8.	c #067714",
"9.	c #2E4535",
"0.	c #26392C",
"a.	c #1E4E27",
"b.	c #22562B",
"c.	c #5E3364",
"d.	c #3C3E43",
"e.	c #2A4A32",
"f.	c #4D3754",
"g.	c #274C30",
"h.	c #5E2E63",
"                                                                ",
"                                                                ",
"                                                                ",
"                                                                ",
"                                                                ",
"                                . .                             ",
"                          + @ # $ $ %                           ",
"                        & * = - $ $ +                           ",
"                      # $ ; # > , * ' )                         ",
"                    ! ~ * { ] ^ , * / ( _ :                     ",
"                  < [ ' * } | $ , $ 1 < 2 3 4                   ",
"                5 6 [ + - 7 8 $ , > 9 3 6 6 6 0                 ",
"              a 3 3 b c d e / $ * ~ 4 3 f 3 6 _ g               ",
"              h 6 6 5 c i d 8 * $ j 5 3 6 6 f k l               ",
"            : 6 3 6 h m * n o $ p q h 6 6 6 3 r s               ",
"            t r u 3 k v w w = ^ & 9 3 3 6 3 x y p z             ",
"            A B C D 6 E ' , ' ^ & F k 3 6 2 G $ $ H             ",
"            I * $ C u h J p p , & 9 3 3 6 K L $ ^ z             ",
"            % , , ; x 6 [ M $ , p q h 3 6 N O $ &               ",
"              > $ P D 3 k Q R p > q S T U u V * +               ",
"              = * O K 6 3 k b W v X B * Y x u V                 ",
"                Z U k K U x 6 3 3 G * $ $ ` k 0                 ",
"                g < U O P Y  .3 f G $ $ ..+.l                   ",
"                  @.R $ * * G 2 3 x #.$.+.0                     ",
"                  %.&.*./ =.y -.3 k 5 ;.>.,.                    ",
"              '.).).!.~.'.{.].^./.(._.:.~.<.).~.                ",
"            [.).:.}.:.}.}.|.1.).~.2.}.}.}.}.}.<.).              ",
"          {.).3.}.4.4.4.~.|.:.5.4.|.}.<.4.4.~.:.4.6.            ",
"        {.).3.}.3.4.4.4.4.7.<.4.4.:.8.4.4.4.4.}.~.5.[.          ",
"    9.3.5.<.~.3.4.4.4.4.3.0.6.3.8.a.[.5.4.4.4.<.~.!.5.).&.      ",
"      b.!.).5.5.3.!.8.b.              0.'.<.).5.4.5.).'.c.      ",
"          d.e.e.d.                          f.9.g.9.h.          "};
