/* XPM */
static char * Piranha3_xpm[] = {
"32 32 123 2",
"  	c #FF00FF",
". 	c #CDDACE",
"+ 	c #E4F1E5",
"@ 	c #DBE6DB",
"# 	c #90808F",
"$ 	c #C4C7C3",
"% 	c #E5E8DC",
"& 	c #A582A5",
"* 	c #EAF4EA",
"= 	c #CBD2C9",
"- 	c #E2EBE1",
"; 	c #BABBB9",
"> 	c #A8A0A3",
", 	c #E9F0E6",
"' 	c #C3CAC2",
") 	c #CACEC6",
"! 	c #980752",
"~ 	c #9C0D0E",
"{ 	c #B7A9A4",
"] 	c #D1D6CD",
"^ 	c #AC2423",
"/ 	c #990524",
"( 	c #9A0546",
"_ 	c #C80B07",
": 	c #C30B0A",
"< 	c #B89F99",
"[ 	c #D40806",
"} 	c #A50817",
"| 	c #D90B0B",
"1 	c #A5817C",
"2 	c #BCBAB2",
"3 	c #B51917",
"4 	c #B00A0C",
"5 	c #D60B0A",
"6 	c #9D5A56",
"7 	c #ECF9EE",
"8 	c #AB928D",
"9 	c #CE0A09",
"0 	c #970452",
"a 	c #9E3534",
"b 	c #D3DDD3",
"c 	c #9C615D",
"d 	c #AD1817",
"e 	c #DC4441",
"f 	c #CD9087",
"g 	c #B62526",
"h 	c #DD3937",
"i 	c #D81D1C",
"j 	c #A88D87",
"k 	c #C0C1B9",
"l 	c #DC5B55",
"m 	c #E7DDD4",
"n 	c #D1B7B1",
"o 	c #E9E3DA",
"p 	c #E6C3BB",
"q 	c #DC413F",
"r 	c #E4B4AC",
"s 	c #D81616",
"t 	c #A3514E",
"u 	c #DB3432",
"v 	c #B1A7B1",
"w 	c #DA302E",
"x 	c #A97F7A",
"y 	c #BBB2AB",
"z 	c #D92927",
"A 	c #E7D6CD",
"B 	c #E8DED5",
"C 	c #A34542",
"D 	c #D8524F",
"E 	c #E18984",
"F 	c #DD5754",
"G 	c #D81817",
"H 	c #D60708",
"I 	c #A35350",
"J 	c #A82E2D",
"K 	c #DA6864",
"L 	c #E9EAE0",
"M 	c #D17269",
"N 	c #CDA298",
"O 	c #DB3C3A",
"P 	c #DC4C49",
"Q 	c #E4A39C",
"R 	c #D21A16",
"S 	c #E1736F",
"T 	c #960539",
"U 	c #A15CA0",
"V 	c #E4AFA8",
"W 	c #AF060C",
"X 	c #9A032E",
"Y 	c #38450B",
"Z 	c #008A0E",
"` 	c #00850D",
" .	c #017A0D",
"..	c #662F6B",
"+.	c #623168",
"@.	c #722876",
"#.	c #79257E",
"$.	c #0A7416",
"%.	c #24572E",
"&.	c #285431",
"*.	c #195723",
"=.	c #01730E",
"-.	c #11681C",
";.	c #047511",
">.	c #12631D",
",.	c #275730",
"'.	c #026A0D",
").	c #01670D",
"!.	c #028911",
"~.	c #025D0C",
"{.	c #027E10",
"].	c #028310",
"^.	c #01540A",
"/.	c #424549",
"(.	c #156320",
"_.	c #324E3C",
":.	c #4B3C51",
"<.	c #2C4E34",
"[.	c #196124",
"}.	c #433C4A",
"|.	c #16561F",
"1.	c #314539",
"2.	c #3B3E42",
"                                                                ",
"                        . + @ # $ + %                           ",
"                      & * * * = - * * ;                         ",
"                      > * , , ' - * * )                         ",
"                  ! ~ { * * + $ - * * ] ^ /                     ",
"                ( _ : < * , * ' - , * ) ^ [ }                   ",
"                : | : 1 * * , $ - * * 2 3 | | }                 ",
"              4 | 5 [ 6 - * * ' - - 7 8 4 | | 9 0               ",
"            ( 5 5 | 5 a b * , ' - + * c 9 | | | }               ",
"            } | 5 5 | d ; 7 * ' - * @ a | 5 5 e f               ",
"            g h i 5 | : j * * ' - * k d | 5 l m +               ",
"            n o p q 5 9 6 + * ) - * 8 : | i p * +               ",
"            $ * * r s 5 ^ = * @ + - t [ | u o * @               ",
"            v * , m w 5 _ x * * 7 y 3 5 [ z A * b               ",
"              - * B u 5 | ^ { + ' C D E F | E 7 v               ",
"              ; 7 r G 5 H H 3 I J K L * o u i M                 ",
"                N u 5 O K q | [ G p * * % e H /                 ",
"                  : K m * o P [ G r * * Q R }                   ",
"                    { - 7 7 Q 5 5 h S l 3 T                     ",
"                      U y . V R _ : W X                         ",
"                              Y                                 ",
"                              Z                                 ",
"                              `                                 ",
"                               .                                ",
"                  ..+.@.       .        +.+.#.                  ",
"      $.%.&.*.$.` ` ` ` =.    Z %.  -.` ` Z ` ;.>.,.&.-.>.      ",
"      ` Z =. .;.'.).).).=.'.).!.'.~. .'.).).'.=. .=.` Z         ",
"      $.!.{.=.=.{.{.].{.=.^.'.!. .^.'.;.].` {.'.'.{.!.`         ",
"      /.Z !.!.!.!.!.].!.Z =.=.!.!.).!.!.!.!.!.!.!.!.!.(.        ",
"        >.Z !.!.!.!.!.!.Z ). .!.` ~.` !.!.!.!.!.!.Z ;.          ",
"          _.;.` !.!.Z  .,.  :.-.<.  /.;.` Z !.!.].[.            ",
"              }.*.|.1.                  2.*.*.1.                "};
