/* XPM */
static char * Piranha5_xpm[] = {
"32 32 138 2",
"  	c #FF00FF",
". 	c #BECAB9",
"+ 	c #A496A4",
"@ 	c #B24BB2",
"# 	c #BAA9BA",
"$ 	c #B69DB6",
"% 	c #90508D",
"& 	c #86634B",
"* 	c #81902C",
"= 	c #985069",
"- 	c #88A328",
"; 	c #8A966E",
"> 	c #DFEBE1",
", 	c #ECF8EC",
"' 	c #E7F3E9",
") 	c #998299",
"! 	c #C6CAC3",
"~ 	c #EAF4EA",
"{ 	c #C3C8BD",
"] 	c #8A963B",
"^ 	c #696837",
"/ 	c #D3DDD2",
"( 	c #E9F2E7",
"_ 	c #9BA785",
": 	c #804458",
"< 	c #D7E2D7",
"[ 	c #DDE9DE",
"} 	c #D0D8CF",
"| 	c #764269",
"1 	c #8B5259",
"2 	c #968C8D",
"3 	c #B1AEA6",
"4 	c #72112D",
"5 	c #CBCEC4",
"6 	c #939D7C",
"7 	c #79873A",
"8 	c #AFB8A3",
"9 	c #E6E5DA",
"0 	c #924F4C",
"a 	c #C30905",
"b 	c #950634",
"c 	c #A40715",
"d 	c #A64642",
"e 	c #70683D",
"f 	c #B71616",
"g 	c #D81514",
"h 	c #990454",
"i 	c #CB0909",
"j 	c #A67570",
"k 	c #AC8680",
"l 	c #D90B0B",
"m 	c #DA2C2A",
"n 	c #A23A58",
"o 	c #BAB5B9",
"p 	c #E5EDE2",
"q 	c #D50A0A",
"r 	c #E0615D",
"s 	c #E8D6CD",
"t 	c #B30A0B",
"u 	c #D60707",
"v 	c #A5524F",
"w 	c #BBBBBB",
"x 	c #C2BDC1",
"y 	c #C2BCB4",
"z 	c #E7D4CC",
"A 	c #CC5754",
"B 	c #E0726D",
"C 	c #DB3533",
"D 	c #D90707",
"E 	c #B39C95",
"F 	c #CCD3CB",
"G 	c #CA0606",
"H 	c #DC4644",
"I 	c #DC504D",
"J 	c #AA2A29",
"K 	c #DB3D3B",
"L 	c #E5BEB6",
"M 	c #D81818",
"N 	c #A25652",
"O 	c #CE1212",
"P 	c #E29B94",
"Q 	c #A775A7",
"R 	c #E4F1E5",
"S 	c #A15955",
"T 	c #CFD8CE",
"U 	c #A5706C",
"V 	c #E5B3AC",
"W 	c #DD7F77",
"X 	c #9F5C8D",
"Y 	c #C8D0C4",
"Z 	c #D62724",
"` 	c #A63735",
" .	c #C73332",
"..	c #A06A98",
"+.	c #E4A099",
"@.	c #E17C77",
"#.	c #9C628A",
"$.	c #CD352F",
"%.	c #E0837E",
"&.	c #DE6864",
"*.	c #970348",
"=.	c #DF8C85",
"-.	c #E8DCD3",
";.	c #AC1315",
">.	c #C30B09",
",.	c #724E5A",
"'.	c #49330E",
").	c #552D5A",
"!.	c #00830D",
"~.	c #275532",
"{.	c #54385A",
"].	c #42444A",
"^.	c #5C3362",
"/.	c #017C0E",
"(.	c #75257A",
"_.	c #205D2B",
":.	c #00890E",
"<.	c #067713",
"[.	c #0C7118",
"}.	c #3C4544",
"|.	c #12651E",
"1.	c #6F2A73",
"2.	c #1E3E25",
"3.	c #067313",
"4.	c #02740F",
"5.	c #028410",
"6.	c #028911",
"7.	c #692E6E",
"8.	c #2F3735",
"9.	c #0B6816",
"0.	c #01630C",
"a.	c #026B0D",
"b.	c #015D0B",
"c.	c #1B5524",
"d.	c #114F19",
"e.	c #2C4934",
"f.	c #23522B",
"g.	c #33423B",
"                                                                ",
"                                          . +                   ",
"              @ # $ % & *         = - ; > , ' )                 ",
"              ! ~ ~ { ] ]           ^ { , ' , +                 ",
"              / ~ ( ~ _ :             < ' ( [                   ",
"              # , ( ~ } |         1 2 ~ ( , 3 4                 ",
"                5 ~ ( ( 6 - 7   = - 8 , ( 9 0 a b               ",
"              c d / ~ ~ 5 7       e { ~ , { f g a               ",
"            h i i j ' ' ( 2         / ' ~ k i l m n             ",
"            c l l f o , ( /         p ~ > d q r s {             ",
"            t u l u v [ ( ~ w     x ~ ~ y f m z , /             ",
"            A B C D f E , ( ~ / F ( ' ' j G H p ( <             ",
"            F , s I l J F ~ ( ~ , ( ~ ! J D K 9 , }             ",
"            o , , L M i N < ~ ( ' ( > N O g g P , o             ",
"            Q R ' 9 C D i S T ' ' / U A V V m M W X             ",
"              Y , s Z l l i ` j j `  .z ~ ( H D t               ",
"              ..[ +.g l q D D G G u @.~ ' z m a                 ",
"                #.$.u M r %.H q l l &.9 z r a                   ",
"                  *.t =.( ~ -.H q l g C Z ;.                    ",
"                      ..w / R =.q q >.c *.                      ",
"                              ,.'.'.                            ",
"                              ).!.~.                            ",
"                                !.{.      {.].^.                ",
"                                /.(.  _./.:.:.:.!.<.[./.].      ",
"                }.|.[.[._.1.  ].!.2.3.:./.4.<./.5.6.6.:.{.      ",
"            7.3.:.6.6.:.6.5.8.9.6.0.5.a.a.4.4.4.<.5.:.!.        ",
"          ~.!.6./.a.a.0.0.a.b.5.6.0.b.3.6.6.6.6.6.6.:.c.        ",
"      a.:.6.5./.a.<.6.6.6.4.b.6.6.a.a.6.6.6.6.6.6.6.3.          ",
"      {.:.6.6.!.6.6.6.6.!./.a.6.6.4.b.!.:.:.:.!.!.|.            ",
"        c.:.6.6.6.6.6.6.:.9.d.!.:.c.    e.c.f.].(.              ",
"          e./.6.!.!.!.3.g.                                      ",
"              g.c.e.).                                          "};
