/* XPM */
static char * Piranha4_xpm[] = {
"32 32 133 2",
"  	c #FF00FF",
". 	c #C6C5BD",
"+ 	c #D0D9CF",
"@ 	c #B5A3B5",
"# 	c #8F397B",
"$ 	c #91585B",
"% 	c #8D714A",
"& 	c #AF70AF",
"* 	c #EBF9EE",
"= 	c #EAF4EA",
"- 	c #E8F3E7",
"; 	c #97A57D",
"> 	c #91AD2A",
", 	c #828633",
"' 	c #8E7D83",
") 	c #D2DCD1",
"! 	c #968596",
"~ 	c #B289B2",
"{ 	c #72783C",
"] 	c #829354",
"^ 	c #D9E5DA",
"/ 	c #D5E1D4",
"( 	c #A846A8",
"_ 	c #E7F3E9",
": 	c #DDE9DF",
"< 	c #785B6E",
"[ 	c #ACB6A8",
"} 	c #CDD5CC",
"| 	c #8F0A33",
"1 	c #AE9088",
"2 	c #959A83",
"3 	c #856577",
"4 	c #E2EEE2",
"5 	c #97044B",
"6 	c #CA0905",
"7 	c #AB2625",
"8 	c #CDD5CA",
"9 	c #B8C0AF",
"0 	c #859B2F",
"a 	c #85A128",
"b 	c #A6B197",
"c 	c #B6A8A7",
"d 	c #701724",
"e 	c #AD090D",
"f 	c #D90B0B",
"g 	c #CA0809",
"h 	c #AB817C",
"i 	c #7A615F",
"j 	c #943533",
"k 	c #9A0354",
"l 	c #CF0707",
"m 	c #A73A38",
"n 	c #8F648B",
"o 	c #AB8580",
"p 	c #C20A0A",
"q 	c #D70A0A",
"r 	c #A52546",
"s 	c #DB3936",
"t 	c #D91413",
"u 	c #B71716",
"v 	c #C7CDC3",
"w 	c #BDB3BC",
"x 	c #C72924",
"y 	c #E4E6DB",
"z 	c #E3A7A0",
"A 	c #DB2D2B",
"B 	c #D50907",
"C 	c #A15350",
"D 	c #DEE9E0",
"E 	c #B27874",
"F 	c #DA3533",
"G 	c #E4AEA7",
"H 	c #A757A5",
"I 	c #B4ACB4",
"J 	c #E2938D",
"K 	c #D8100F",
"L 	c #AF201F",
"M 	c #DDBEB2",
"N 	c #E6F2E6",
"O 	c #AE92AE",
"P 	c #E6CBC2",
"Q 	c #D9201F",
"R 	c #A46864",
"S 	c #E9DFD6",
"T 	c #D91F1E",
"U 	c #B29F99",
"V 	c #E9E3DA",
"W 	c #DB3B39",
"X 	c #E06E6A",
"Y 	c #9C679C",
"Z 	c #A84441",
"` 	c #D85C59",
" .	c #E4B4AD",
"..	c #D19B91",
"+.	c #9C1F36",
"@.	c #E4D6CB",
"#.	c #E3A49D",
"$.	c #980726",
"%.	c #D47168",
"&.	c #DB302E",
"*.	c #DE4744",
"=.	c #9D5698",
"-.	c #E2817B",
";.	c #DF605B",
">.	c #D62C28",
",.	c #144E13",
"'.	c #2A420F",
").	c #017B0F",
"!.	c #077414",
"~.	c #443C4A",
"{.	c #3B4B43",
"].	c #1B6225",
"^.	c #314D3A",
"/.	c #12661D",
"(.	c #00840D",
"_.	c #008A0E",
":.	c #028911",
"<.	c #027E10",
"[.	c #205C2A",
"}.	c #1A5B25",
"|.	c #0A6A16",
"1.	c #026D0E",
"2.	c #066311",
"3.	c #028310",
"4.	c #0E6319",
"5.	c #01580B",
"6.	c #02730E",
"7.	c #5E3A64",
"8.	c #01630B",
"9.	c #48274C",
"0.	c #3E3B44",
"a.	c #5E2E63",
"b.	c #572F5C",
"                                                                ",
"                  . + @ # $ %                                   ",
"                & * = - ; > %         , , ' + ) !               ",
"                ~ = - * . {             ] ^ = = /               ",
"                ( ^ _ _ : <             [ = = = }               ",
"                | 1 _ _ _ 2 ,       $ 3 4 = = 4 !               ",
"              5 6 7 8 - * 9 0       a b = = = c d               ",
"              e f g h * _ / i       { } = = + j 6 5             ",
"            k l f f m / _ _ ~       n 4 - - o p q e             ",
"            r s t f u c * * v       w - * 8 7 q t x             ",
"            c y z A B C D _ = @   ~ 4 = _ E g F G ) H           ",
"            I * * J K L M = = - / N _ _ . 7 t G _ N &           ",
"            O N = P Q l R 4 - - = - = ^ C l F S - - H           ",
"            H 4 * P T f u U = - = = D R p B F V = )             ",
"              v * J f f f 7 U ^ D . R W X W t z * I             ",
"              Y M A f f B B u m Z 7 ` / *  .t A ..              ",
"                +.q K s ` A f f l A @.= * #.K l |               ",
"                  $.%.V - P &.f q W S - P *.6 $.                ",
"                    =.. y * -.f f f *.;.>.e 5                   ",
"                        H I E 6 g 6 e $.5                       ",
"                              ,.'.                              ",
"                              ).!.                              ",
"        ~.      {.].].^.      /.].                              ",
"        !.(.(._.:.:.:.:.<.[.  }.|.                              ",
"        /.:.:.<.).1.1.1.<.:.2.2.<.    [.).(.).!.^.              ",
"        ^.(.:.3.).<.<.<.1.1.1.).:.,.4._.<.).).:.:.!.            ",
"          ).:.:.:.:.:.:.:.1.5.3.:.6.5.1.1.1.1.1.3.:.(.[.7.      ",
"            ).:.:.:.:.:.:.:.5.:.:.<.5.:.:.:.:.).1.).:.:._.~.    ",
"              }.).(.(.(.(.2.,.(.:.<.8.:.:.:.:.:.:.:.:.:.|.      ",
"                              4.<.}.9.|.(._.:.:.:.:._.6.        ",
"                                        0.|.).(.(.).}.          ",
"                                              a.b.              "};
